  0
SECTION
  2
HEADER
  9
$ACADVER
  1
AC1009
  9
$INSBASE
 10
0.0
 20
0.0
 30
0.0
  9
$EXTMIN
 10
0.0
 20
0.0
 30
0.0
  9
$EXTMAX
 10
0.0
 20
0.0
 30
0.0
  0
ENDSEC
  0
SECTION
  2
TABLES
  0
TABLE
  2
VPORT
 70
0
  0
ENDTAB
  0
TABLE
  2
LTYPE
 70
1
  0
LTYPE
  2
CONTINUOUS
 70
0
  3
Solid line
 72
65
 73
0
 40
0.0
  0
ENDTAB
  0
TABLE
  2
LAYER
 70
1
  0
LAYER
  2
0
 70
64
 62
7
  6
continuous
  0
ENDTAB
  0
TABLE
  2
STYLE
 70
1
  0
STYLE
  2
STANDARD
 70
0
 40
0
 41
1.0
 50
0.0
 71
0
 42
1
 3
ARIAL.TTF
 4

  0
ENDTAB
  0
TABLE
  2
VIEW
 70
0
  0
ENDTAB
  0
ENDSEC
  0
SECTION
  2
BLOCKS
  0
BLOCK
  8
0
  2
BODY
 70
0
 10
0.0
 20
0.0
 30
0.0
  3
BODY
  0
LINE
  8
0
 62
0
 10
77.86360000000002
 20
16.814800000000005
 30
0.0
 11
77.86360000000002
 21
10.922000000000002
 31
0.0
  0
ARC
  8
0
 62
0
 10
77.60960000000001
 20
10.922000000000002
 30
0.0
 40
0.254
 50
-89.99999999999679
 51
0.0
  0
LINE
  8
0
 62
0
 10
77.86360000000002
 20
16.814800000000005
 30
0.0
 11
79.66700000000002
 21
16.814800000000005
 31
0.0
  0
LINE
  8
0
 62
0
 10
77.60960000000001
 20
10.668000000000003
 30
0.0
 11
77.25400000000003
 21
10.668000000000003
 31
0.0
  0
ARC
  8
0
 62
0
 10
79.66700000000002
 20
17.068800000000007
 30
0.0
 40
0.254
 50
-90.00000000000321
 51
0.0
  0
ARC
  8
0
 62
0
 10
77.25400000000003
 20
10.414000000000003
 30
0.0
 40
0.254
 50
89.99999999999679
 51
-180.0
  0
LINE
  8
0
 62
0
 10
79.92100000000002
 20
17.068800000000007
 30
0.0
 11
79.92100000000002
 21
17.729200000000002
 31
0.0
  0
LINE
  8
0
 62
0
 10
77.00000000000003
 20
10.414
 30
0.0
 11
77.00000000000003
 21
8.128
 31
0.0
  0
ARC
  8
0
 62
0
 10
80.17500000000003
 20
17.729200000000002
 30
0.0
 40
0.254
 50
89.99999999999679
 51
180.0
  0
ARC
  8
0
 62
0
 10
77.25400000000003
 20
8.128000000000004
 30
0.0
 40
0.254
 50
-180.0
 51
-89.99999999999679
  0
LINE
  8
0
 62
0
 10
80.17500000000003
 20
17.983200000000004
 30
0.0
 11
82.71500000000002
 21
17.983200000000004
 31
0.0
  0
LINE
  8
0
 62
0
 10
77.25400000000003
 20
7.874000000000004
 30
0.0
 11
77.60960000000001
 21
7.874000000000004
 31
0.0
  0
ARC
  8
0
 62
0
 10
82.71500000000002
 20
17.729200000000002
 30
0.0
 40
0.254
 50
0.0
 51
90.00000000000321
  0
ARC
  8
0
 62
0
 10
77.60960000000001
 20
7.6200000000000045
 30
0.0
 40
0.254
 50
-0.0
 51
89.99999999999679
  0
LINE
  8
0
 62
0
 10
82.96900000000002
 20
17.729200000000002
 30
0.0
 11
82.96900000000002
 21
17.068800000000007
 31
0.0
  0
LINE
  8
0
 62
0
 10
77.86360000000002
 20
7.620000000000006
 30
0.0
 11
77.86360000000002
 21
4.521200000000004
 31
0.0
  0
ARC
  8
0
 62
0
 10
83.22300000000003
 20
17.068800000000007
 30
0.0
 40
0.254
 50
180.0
 51
-89.99999999999679
  0
LINE
  8
0
 62
0
 10
77.86360000000002
 20
4.521200000000004
 30
0.0
 11
85.02640000000002
 21
4.521200000000004
 31
0.0
  0
LINE
  8
0
 62
0
 10
85.02640000000002
 20
16.814800000000005
 30
0.0
 11
83.22300000000003
 21
16.814800000000005
 31
0.0
  0
LINE
  8
0
 62
0
 10
85.02640000000002
 20
4.521200000000004
 30
0.0
 11
85.02640000000002
 21
7.620000000000001
 31
0.0
  0
LINE
  8
0
 62
0
 10
85.02640000000002
 20
12.700000000000001
 30
0.0
 11
85.02640000000002
 21
16.814800000000005
 31
0.0
  0
ARC
  8
0
 62
0
 10
85.28040000000003
 20
7.6200000000000045
 30
0.0
 40
0.254
 50
90.00000000000321
 51
-180.0
  0
ARC
  8
0
 62
0
 10
85.28040000000003
 20
12.700000000000003
 30
0.0
 40
0.254
 50
-180.0
 51
-90.00000000000321
  0
LINE
  8
0
 62
0
 10
85.28040000000003
 20
7.874000000000004
 30
0.0
 11
85.63600000000001
 21
7.874000000000004
 31
0.0
  0
LINE
  8
0
 62
0
 10
85.63600000000001
 20
12.446000000000003
 30
0.0
 11
85.28040000000003
 21
12.446000000000003
 31
0.0
  0
ARC
  8
0
 62
0
 10
85.63600000000001
 20
8.128000000000004
 30
0.0
 40
0.254
 50
-90.00000000000321
 51
-0.0
  0
ARC
  8
0
 62
0
 10
85.63600000000001
 20
12.192000000000004
 30
0.0
 40
0.254
 50
0.0
 51
90.00000000000321
  0
LINE
  8
0
 62
0
 10
85.89000000000001
 20
8.128000000000005
 30
0.0
 11
85.89000000000001
 21
12.192000000000005
 31
0.0
  0
LINE
  8
0
 62
0
 10
433.07
 20
126.365
 30
0.0
 11
433.07
 21
133.35
 31
0.0
  0
ARC
  8
0
 62
0
 10
431.8
 20
126.365
 30
0.0
 40
1.27
 50
-90.0
 51
-0.0
  0
ARC
  8
0
 62
0
 10
430.53
 20
133.35
 30
0.0
 40
2.54
 50
-0.0
 51
90.0
  0
LINE
  8
0
 62
0
 10
423.164
 20
125.095
 30
0.0
 11
431.8
 21
125.095
 31
0.0
  0
LINE
  8
0
 62
0
 10
430.53
 20
135.89
 30
0.0
 11
384.429
 21
135.89
 31
0.0
  0
ARC
  8
0
 62
0
 10
423.164
 20
123.825
 30
0.0
 40
1.27
 50
90.0
 51
-180.0
  0
ARC
  8
0
 62
0
 10
384.429
 20
134.61999999999998
 30
0.0
 40
1.27
 50
90.0
 51
-180.0
  0
LINE
  8
0
 62
0
 10
421.894
 20
113.66499999999999
 30
0.0
 11
421.894
 21
123.825
 31
0.0
  0
LINE
  8
0
 62
0
 10
383.159
 20
134.61999999999998
 30
0.0
 11
383.159
 21
125.09499999999998
 31
0.0
  0
ARC
  8
0
 62
0
 10
423.164
 20
113.66499999999999
 30
0.0
 40
1.27
 50
-180.0
 51
-90.0
  0
ARC
  8
0
 62
0
 10
381.889
 20
125.09499999999998
 30
0.0
 40
1.27
 50
-90.0
 51
-0.0
  0
LINE
  8
0
 62
0
 10
431.8
 20
112.395
 30
0.0
 11
423.164
 21
112.395
 31
0.0
  0
LINE
  8
0
 62
0
 10
381.889
 20
123.82499999999999
 30
0.0
 11
368.681
 21
123.82499999999999
 31
0.0
  0
ARC
  8
0
 62
0
 10
431.8
 20
111.125
 30
0.0
 40
1.27
 50
-0.0
 51
90.0
  0
ARC
  8
0
 62
0
 10
368.681
 20
125.09499999999998
 30
0.0
 40
1.27
 50
-180.0
 51
-90.0
  0
LINE
  8
0
 62
0
 10
433.07
 20
2.54
 30
0.0
 11
433.07
 21
111.125
 31
0.0
  0
LINE
  8
0
 62
0
 10
367.411
 20
125.09499999999998
 30
0.0
 11
367.411
 21
134.61999999999998
 31
0.0
  0
ARC
  8
0
 62
0
 10
430.53
 20
2.5399999999999996
 30
0.0
 40
2.54
 50
-90.0
 51
-0.0
  0
ARC
  8
0
 62
0
 10
366.141
 20
134.61999999999998
 30
0.0
 40
1.27
 50
-0.0
 51
90.0
  0
LINE
  8
0
 62
0
 10
2.54
 20
0.0
 30
0.0
 11
430.53
 21
0.0
 31
0.0
  0
LINE
  8
0
 62
0
 10
366.141
 20
135.89
 30
0.0
 11
360.2516819588037
 21
135.89
 31
0.0
  0
ARC
  8
0
 62
0
 10
2.5399999999999996
 20
2.5399999999999996
 30
0.0
 40
2.54
 50
180.0
 51
-90.00000000000018
  0
ARC
  8
0
 62
0
 10
360.2516819588037
 20
133.85799999999998
 30
0.0
 40
2.032
 50
90.0
 51
135.00000000296768
  0
LINE
  8
0
 62
0
 10
0.0
 20
124.46
 30
0.0
 11
0.0
 21
2.5400000000000063
 31
0.0
  0
LINE
  8
0
 62
0
 10
351.11515902156253
 20
127.59515902070336
 30
0.0
 11
358.8148409793582
 21
135.29484097929662
 31
0.0
  0
ARC
  8
0
 62
0
 10
2.5399999999999996
 20
124.46
 30
0.0
 40
2.54
 50
89.99999999999979
 51
-180.0
  0
ARC
  8
0
 62
0
 10
349.67831804211704
 20
129.032
 30
0.0
 40
2.032
 50
-90.0
 51
-44.999999997034024
  0
LINE
  8
0
 62
0
 10
349.67831804211704
 20
127.0
 30
0.0
 11
2.5400000000000205
 21
127.0
 31
0.0
  0
CIRCLE
  8
0
 62
0
 10
24.765
 20
5.715
 30
0.0
 40
1.65
  0
LINE
  8
0
 62
0
 10
5.699999999999999
 20
16.906000000000002
 30
0.0
 11
5.699999999999999
 21
3.4140000000000033
 31
0.0
  0
ARC
  8
0
 62
0
 10
5.953999999999999
 20
3.414
 30
0.0
 40
0.254
 50
180.0
 51
-89.999999999999
  0
ARC
  8
0
 62
0
 10
5.953999999999999
 20
16.906
 30
0.0
 40
0.254
 50
89.999999999999
 51
-180.0
  0
LINE
  8
0
 62
0
 10
5.9540000000000095
 20
3.16
 30
0.0
 11
19.44600000000001
 21
3.16
 31
0.0
  0
LINE
  8
0
 62
0
 10
19.44600000000001
 20
17.16
 30
0.0
 11
5.9540000000000095
 21
17.16
 31
0.0
  0
ARC
  8
0
 62
0
 10
19.445999999999998
 20
3.414
 30
0.0
 40
0.254
 50
-90.0
 51
-0.0
  0
ARC
  8
0
 62
0
 10
19.445999999999998
 20
16.906
 30
0.0
 40
0.254
 50
-0.0
 51
90.0
  0
LINE
  8
0
 62
0
 10
19.7
 20
3.414000000000004
 30
0.0
 11
19.7
 21
16.906000000000002
 31
0.0
  0
LINE
  8
0
 62
0
 10
29.83
 20
16.906000000000002
 30
0.0
 11
29.83
 21
3.4140000000000033
 31
0.0
  0
ARC
  8
0
 62
0
 10
30.084
 20
3.414
 30
0.0
 40
0.254
 50
180.0
 51
-89.9999999999992
  0
ARC
  8
0
 62
0
 10
30.084
 20
16.906
 30
0.0
 40
0.254
 50
89.9999999999992
 51
-180.0
  0
LINE
  8
0
 62
0
 10
30.083999999999985
 20
3.16
 30
0.0
 11
43.575999999999986
 21
3.16
 31
0.0
  0
LINE
  8
0
 62
0
 10
43.575999999999986
 20
17.16
 30
0.0
 11
30.083999999999985
 21
17.16
 31
0.0
  0
ARC
  8
0
 62
0
 10
43.576
 20
3.414
 30
0.0
 40
0.254
 50
-90.0000000000016
 51
-0.0
  0
ARC
  8
0
 62
0
 10
43.576
 20
16.906
 30
0.0
 40
0.254
 50
-0.0
 51
90.0000000000016
  0
LINE
  8
0
 62
0
 10
43.83
 20
3.414000000000004
 30
0.0
 11
43.83
 21
16.906000000000002
 31
0.0
  0
LINE
  8
0
 62
0
 10
53.959999999999994
 20
16.905999999999995
 30
0.0
 11
53.959999999999994
 21
3.413999999999998
 31
0.0
  0
ARC
  8
0
 62
0
 10
54.21399999999999
 20
3.4139999999999984
 30
0.0
 40
0.254
 50
180.0
 51
-89.9999999999984
  0
ARC
  8
0
 62
0
 10
54.21399999999999
 20
16.905999999999995
 30
0.0
 40
0.254
 50
89.9999999999984
 51
-180.0
  0
LINE
  8
0
 62
0
 10
54.21399999999998
 20
3.1599999999999984
 30
0.0
 11
67.70599999999997
 21
3.1599999999999984
 31
0.0
  0
LINE
  8
0
 62
0
 10
67.70599999999997
 20
17.159999999999997
 30
0.0
 11
54.21399999999998
 21
17.159999999999997
 31
0.0
  0
ARC
  8
0
 62
0
 10
67.70599999999999
 20
3.4139999999999984
 30
0.0
 40
0.254
 50
-90.0
 51
0.0
  0
ARC
  8
0
 62
0
 10
67.70599999999999
 20
16.905999999999995
 30
0.0
 40
0.254
 50
-0.0
 51
90.0
  0
LINE
  8
0
 62
0
 10
67.96
 20
3.4140000000000006
 30
0.0
 11
67.96
 21
16.905999999999995
 31
0.0
  0
CIRCLE
  8
0
 62
0
 10
102.87
 20
13.335
 30
0.0
 40
1.65
  0
LINE
  8
0
 62
0
 10
5.6999999999999975
 20
35.955999999999996
 30
0.0
 11
5.6999999999999975
 21
22.463999999999995
 31
0.0
  0
ARC
  8
0
 62
0
 10
5.953999999999997
 20
22.463999999999995
 30
0.0
 40
0.254
 50
180.0
 51
-89.9999999999988
  0
ARC
  8
0
 62
0
 10
5.953999999999997
 20
35.955999999999996
 30
0.0
 40
0.254
 50
89.9999999999988
 51
-180.0
  0
LINE
  8
0
 62
0
 10
5.954000000000006
 20
22.209999999999994
 30
0.0
 11
19.446000000000005
 21
22.209999999999994
 31
0.0
  0
LINE
  8
0
 62
0
 10
19.446
 20
36.209999999999994
 30
0.0
 11
5.954000000000004
 21
36.209999999999994
 31
0.0
  0
ARC
  8
0
 62
0
 10
19.445999999999994
 20
22.463999999999995
 30
0.0
 40
0.254
 50
-89.9999999999992
 51
0.0
  0
ARC
  8
0
 62
0
 10
19.445999999999994
 20
35.955999999999996
 30
0.0
 40
0.254
 50
-0.0
 51
89.9999999999992
  0
LINE
  8
0
 62
0
 10
19.699999999999996
 20
22.463999999999995
 30
0.0
 11
19.699999999999996
 21
35.955999999999996
 31
0.0
  0
LINE
  8
0
 62
0
 10
27.290000000000003
 20
35.956
 30
0.0
 11
27.290000000000003
 21
22.464
 31
0.0
  0
ARC
  8
0
 62
0
 10
27.544000000000004
 20
22.464
 30
0.0
 40
0.254
 50
-180.0
 51
-89.9999999999992
  0
ARC
  8
0
 62
0
 10
27.544000000000004
 20
35.956
 30
0.0
 40
0.254
 50
89.9999999999992
 51
-180.0
  0
LINE
  8
0
 62
0
 10
27.544000000000015
 20
22.209999999999997
 30
0.0
 11
41.03600000000001
 21
22.209999999999997
 31
0.0
  0
LINE
  8
0
 62
0
 10
41.03600000000002
 20
36.21
 30
0.0
 11
27.54400000000002
 21
36.21
 31
0.0
  0
ARC
  8
0
 62
0
 10
41.03600000000001
 20
22.464
 30
0.0
 40
0.254
 50
-90.0000000000016
 51
-0.0
  0
ARC
  8
0
 62
0
 10
41.03600000000001
 20
35.956
 30
0.0
 40
0.254
 50
-0.0
 51
90.0000000000016
  0
LINE
  8
0
 62
0
 10
41.290000000000006
 20
22.464000000000002
 30
0.0
 11
41.290000000000006
 21
35.956
 31
0.0
  0
LINE
  8
0
 62
0
 10
46.33999999999999
 20
35.956
 30
0.0
 11
46.33999999999999
 21
22.464000000000002
 31
0.0
  0
ARC
  8
0
 62
0
 10
46.59399999999999
 20
22.464000000000002
 30
0.0
 40
0.254
 50
-180.0
 51
-89.9999999999984
  0
ARC
  8
0
 62
0
 10
46.59399999999999
 20
35.956
 30
0.0
 40
0.254
 50
89.9999999999984
 51
-180.0
  0
LINE
  8
0
 62
0
 10
46.59399999999997
 20
22.21
 30
0.0
 11
60.08599999999998
 21
22.21
 31
0.0
  0
LINE
  8
0
 62
0
 10
60.08599999999998
 20
36.21
 30
0.0
 11
46.59399999999997
 21
36.21
 31
0.0
  0
ARC
  8
0
 62
0
 10
60.08599999999999
 20
22.464000000000002
 30
0.0
 40
0.254
 50
-90.0000000000016
 51
-0.0
  0
ARC
  8
0
 62
0
 10
60.08599999999999
 20
35.956
 30
0.0
 40
0.254
 50
-0.0
 51
90.0000000000016
  0
LINE
  8
0
 62
0
 10
60.33999999999999
 20
22.464000000000002
 30
0.0
 11
60.33999999999999
 21
35.956
 31
0.0
  0
LINE
  8
0
 62
0
 10
65.39
 20
35.95600000000001
 30
0.0
 11
65.39
 21
22.46400000000001
 31
0.0
  0
ARC
  8
0
 62
0
 10
65.644
 20
22.46400000000001
 30
0.0
 40
0.254
 50
180.0
 51
-90.0
  0
ARC
  8
0
 62
0
 10
65.644
 20
35.95600000000001
 30
0.0
 40
0.254
 50
90.0
 51
-180.0
  0
LINE
  8
0
 62
0
 10
65.64399999999999
 20
22.210000000000008
 30
0.0
 11
79.13599999999998
 21
22.210000000000008
 31
0.0
  0
LINE
  8
0
 62
0
 10
79.13599999999998
 20
36.21000000000001
 30
0.0
 11
65.64399999999999
 21
36.21000000000001
 31
0.0
  0
ARC
  8
0
 62
0
 10
79.136
 20
22.46400000000001
 30
0.0
 40
0.254
 50
-90.0
 51
0.0
  0
ARC
  8
0
 62
0
 10
79.136
 20
35.95600000000001
 30
0.0
 40
0.254
 50
-0.0
 51
90.0
  0
LINE
  8
0
 62
0
 10
79.39
 20
22.46400000000001
 30
0.0
 11
79.39
 21
35.95600000000001
 31
0.0
  0
LINE
  8
0
 62
0
 10
84.44
 20
35.955999999999975
 30
0.0
 11
84.44
 21
22.463999999999974
 31
0.0
  0
ARC
  8
0
 62
0
 10
84.694
 20
22.463999999999974
 30
0.0
 40
0.254
 50
-180.0
 51
-90.00000000000321
  0
ARC
  8
0
 62
0
 10
84.694
 20
35.955999999999975
 30
0.0
 40
0.254
 50
90.00000000000321
 51
-180.0
  0
LINE
  8
0
 62
0
 10
84.694
 20
22.209999999999972
 30
0.0
 11
98.18599999999999
 21
22.209999999999972
 31
0.0
  0
LINE
  8
0
 62
0
 10
98.18599999999999
 20
36.20999999999997
 30
0.0
 11
84.694
 21
36.20999999999997
 31
0.0
  0
ARC
  8
0
 62
0
 10
98.18599999999999
 20
22.463999999999974
 30
0.0
 40
0.254
 50
-90.0
 51
-0.0
  0
ARC
  8
0
 62
0
 10
98.18599999999999
 20
35.955999999999975
 30
0.0
 40
0.254
 50
-0.0
 51
90.0
  0
LINE
  8
0
 62
0
 10
98.44
 20
22.463999999999974
 30
0.0
 11
98.44
 21
35.955999999999975
 31
0.0
  0
LINE
  8
0
 62
0
 10
124.44500000000001
 20
16.906000000000002
 30
0.0
 11
124.44500000000001
 21
3.4140000000000033
 31
0.0
  0
ARC
  8
0
 62
0
 10
124.69900000000001
 20
3.4140000000000037
 30
0.0
 40
0.254
 50
-180.0
 51
-90.0
  0
ARC
  8
0
 62
0
 10
124.69900000000001
 20
16.906000000000002
 30
0.0
 40
0.254
 50
90.0
 51
180.0
  0
LINE
  8
0
 62
0
 10
124.69900000000001
 20
3.1600000000000037
 30
0.0
 11
138.19100000000003
 21
3.1600000000000037
 31
0.0
  0
LINE
  8
0
 62
0
 10
138.19100000000003
 20
17.160000000000004
 30
0.0
 11
124.69900000000001
 21
17.160000000000004
 31
0.0
  0
ARC
  8
0
 62
0
 10
138.19100000000003
 20
3.4140000000000037
 30
0.0
 40
0.254
 50
-90.0
 51
-0.0
  0
ARC
  8
0
 62
0
 10
138.19100000000003
 20
16.906000000000002
 30
0.0
 40
0.254
 50
0.0
 51
90.0
  0
LINE
  8
0
 62
0
 10
138.44500000000002
 20
3.4140000000000037
 30
0.0
 11
138.44500000000002
 21
16.906000000000002
 31
0.0
  0
CIRCLE
  8
0
 62
0
 10
160.02
 20
13.335
 30
0.0
 40
1.65
  0
LINE
  8
0
 62
0
 10
194.93
 20
16.906000000000002
 30
0.0
 11
194.93
 21
3.4140000000000033
 31
0.0
  0
ARC
  8
0
 62
0
 10
195.184
 20
3.414
 30
0.0
 40
0.254
 50
180.0
 51
-90.0
  0
ARC
  8
0
 62
0
 10
195.184
 20
16.906
 30
0.0
 40
0.254
 50
90.0
 51
-180.0
  0
LINE
  8
0
 62
0
 10
195.184
 20
3.16
 30
0.0
 11
208.67600000000002
 21
3.16
 31
0.0
  0
LINE
  8
0
 62
0
 10
208.67600000000002
 20
17.16
 30
0.0
 11
195.184
 21
17.16
 31
0.0
  0
ARC
  8
0
 62
0
 10
208.67600000000002
 20
3.414
 30
0.0
 40
0.254
 50
-90.0
 51
-0.0
  0
ARC
  8
0
 62
0
 10
208.67600000000002
 20
16.906
 30
0.0
 40
0.254
 50
-0.0
 51
90.0
  0
LINE
  8
0
 62
0
 10
208.93
 20
3.414000000000004
 30
0.0
 11
208.93
 21
16.906000000000002
 31
0.0
  0
LINE
  8
0
 62
0
 10
103.48999999999998
 20
35.95599999999998
 30
0.0
 11
103.48999999999998
 21
22.46399999999998
 31
0.0
  0
ARC
  8
0
 62
0
 10
103.74399999999999
 20
22.46399999999998
 30
0.0
 40
0.254
 50
180.0
 51
-90.0
  0
ARC
  8
0
 62
0
 10
103.74399999999999
 20
35.95599999999998
 30
0.0
 40
0.254
 50
90.0
 51
-180.0
  0
LINE
  8
0
 62
0
 10
103.74399999999999
 20
22.20999999999998
 30
0.0
 11
117.23599999999998
 21
22.20999999999998
 31
0.0
  0
LINE
  8
0
 62
0
 10
117.23599999999998
 20
36.20999999999998
 30
0.0
 11
103.74399999999999
 21
36.20999999999998
 31
0.0
  0
ARC
  8
0
 62
0
 10
117.23599999999998
 20
22.46399999999998
 30
0.0
 40
0.254
 50
-90.0
 51
0.0
  0
ARC
  8
0
 62
0
 10
117.23599999999998
 20
35.95599999999998
 30
0.0
 40
0.254
 50
-0.0
 51
90.0
  0
LINE
  8
0
 62
0
 10
117.48999999999998
 20
22.46399999999998
 30
0.0
 11
117.48999999999998
 21
35.95599999999998
 31
0.0
  0
LINE
  8
0
 62
0
 10
122.54
 20
35.95599999999998
 30
0.0
 11
122.54
 21
22.46399999999998
 31
0.0
  0
ARC
  8
0
 62
0
 10
122.79400000000001
 20
22.46399999999998
 30
0.0
 40
0.254
 50
180.0
 51
-90.0
  0
ARC
  8
0
 62
0
 10
122.79400000000001
 20
35.95599999999998
 30
0.0
 40
0.254
 50
90.0
 51
-180.0
  0
LINE
  8
0
 62
0
 10
122.79400000000001
 20
22.20999999999998
 30
0.0
 11
136.28600000000003
 21
22.20999999999998
 31
0.0
  0
LINE
  8
0
 62
0
 10
136.28600000000003
 20
36.20999999999998
 30
0.0
 11
122.79400000000001
 21
36.20999999999998
 31
0.0
  0
ARC
  8
0
 62
0
 10
136.28600000000003
 20
22.46399999999998
 30
0.0
 40
0.254
 50
-90.0
 51
0.0
  0
ARC
  8
0
 62
0
 10
136.28600000000003
 20
35.95599999999998
 30
0.0
 40
0.254
 50
-0.0
 51
90.0
  0
LINE
  8
0
 62
0
 10
136.54000000000002
 20
22.46399999999998
 30
0.0
 11
136.54000000000002
 21
35.95599999999998
 31
0.0
  0
LINE
  8
0
 62
0
 10
141.59
 20
35.956
 30
0.0
 11
141.59
 21
22.464000000000002
 31
0.0
  0
ARC
  8
0
 62
0
 10
141.844
 20
22.464000000000002
 30
0.0
 40
0.254
 50
-180.0
 51
-90.0
  0
ARC
  8
0
 62
0
 10
141.844
 20
35.956
 30
0.0
 40
0.254
 50
90.0
 51
-180.0
  0
LINE
  8
0
 62
0
 10
141.844
 20
22.21
 30
0.0
 11
155.336
 21
22.21
 31
0.0
  0
LINE
  8
0
 62
0
 10
155.336
 20
36.21
 30
0.0
 11
141.844
 21
36.21
 31
0.0
  0
ARC
  8
0
 62
0
 10
155.336
 20
22.464000000000002
 30
0.0
 40
0.254
 50
-90.0
 51
-0.0
  0
ARC
  8
0
 62
0
 10
155.336
 20
35.956
 30
0.0
 40
0.254
 50
-0.0
 51
90.0
  0
LINE
  8
0
 62
0
 10
155.59
 20
22.464000000000002
 30
0.0
 11
155.59
 21
35.956
 31
0.0
  0
LINE
  8
0
 62
0
 10
160.64000000000001
 20
35.956
 30
0.0
 11
160.64000000000001
 21
22.464000000000002
 31
0.0
  0
ARC
  8
0
 62
0
 10
160.894
 20
22.464000000000002
 30
0.0
 40
0.254
 50
-180.0
 51
-90.0
  0
ARC
  8
0
 62
0
 10
160.894
 20
35.956
 30
0.0
 40
0.254
 50
90.0
 51
-180.0
  0
LINE
  8
0
 62
0
 10
160.894
 20
22.21
 30
0.0
 11
174.38600000000002
 21
22.21
 31
0.0
  0
LINE
  8
0
 62
0
 10
174.38600000000002
 20
36.21
 30
0.0
 11
160.894
 21
36.21
 31
0.0
  0
ARC
  8
0
 62
0
 10
174.38600000000002
 20
22.464000000000002
 30
0.0
 40
0.254
 50
-90.0
 51
-0.0
  0
ARC
  8
0
 62
0
 10
174.38600000000002
 20
35.956
 30
0.0
 40
0.254
 50
-0.0
 51
90.0
  0
LINE
  8
0
 62
0
 10
174.64000000000001
 20
22.464000000000002
 30
0.0
 11
174.64000000000001
 21
35.956
 31
0.0
  0
LINE
  8
0
 62
0
 10
179.69
 20
35.956
 30
0.0
 11
179.69
 21
22.464000000000002
 31
0.0
  0
ARC
  8
0
 62
0
 10
179.944
 20
22.464000000000002
 30
0.0
 40
0.254
 50
-180.0
 51
-90.0
  0
ARC
  8
0
 62
0
 10
179.944
 20
35.956
 30
0.0
 40
0.254
 50
90.0
 51
-180.0
  0
LINE
  8
0
 62
0
 10
179.944
 20
22.21
 30
0.0
 11
193.436
 21
22.21
 31
0.0
  0
LINE
  8
0
 62
0
 10
193.436
 20
36.21
 30
0.0
 11
179.944
 21
36.21
 31
0.0
  0
ARC
  8
0
 62
0
 10
193.436
 20
22.464000000000002
 30
0.0
 40
0.254
 50
-90.0
 51
-0.0
  0
ARC
  8
0
 62
0
 10
193.436
 20
35.956
 30
0.0
 40
0.254
 50
-0.0
 51
90.0
  0
LINE
  8
0
 62
0
 10
193.69
 20
22.464000000000002
 30
0.0
 11
193.69
 21
35.956
 31
0.0
  0
LINE
  8
0
 62
0
 10
198.74
 20
35.956
 30
0.0
 11
198.74
 21
22.464000000000002
 31
0.0
  0
ARC
  8
0
 62
0
 10
198.994
 20
22.464000000000002
 30
0.0
 40
0.254
 50
-180.0
 51
-90.0
  0
ARC
  8
0
 62
0
 10
198.994
 20
35.956
 30
0.0
 40
0.254
 50
90.0
 51
-180.0
  0
LINE
  8
0
 62
0
 10
198.994
 20
22.21
 30
0.0
 11
212.48600000000002
 21
22.21
 31
0.0
  0
LINE
  8
0
 62
0
 10
212.48600000000002
 20
36.21
 30
0.0
 11
198.994
 21
36.21
 31
0.0
  0
ARC
  8
0
 62
0
 10
212.48600000000002
 20
22.464000000000002
 30
0.0
 40
0.254
 50
-90.0
 51
-0.0
  0
ARC
  8
0
 62
0
 10
212.48600000000002
 20
35.956
 30
0.0
 40
0.254
 50
-0.0
 51
90.0
  0
LINE
  8
0
 62
0
 10
212.74
 20
22.464000000000002
 30
0.0
 11
212.74
 21
35.956
 31
0.0
  0
LINE
  8
0
 62
0
 10
10.780000000000001
 20
55.00599999999999
 30
0.0
 11
10.780000000000001
 21
41.51399999999999
 31
0.0
  0
ARC
  8
0
 62
0
 10
11.034
 20
41.51399999999999
 30
0.0
 40
0.254
 50
-180.0
 51
-90.00000000000121
  0
ARC
  8
0
 62
0
 10
11.034
 20
55.00599999999999
 30
0.0
 40
0.254
 50
90.00000000000121
 51
-180.0
  0
LINE
  8
0
 62
0
 10
11.034
 20
41.25999999999999
 30
0.0
 11
24.526
 21
41.25999999999999
 31
0.0
  0
LINE
  8
0
 62
0
 10
24.526
 20
55.25999999999999
 30
0.0
 11
11.034
 21
55.25999999999999
 31
0.0
  0
ARC
  8
0
 62
0
 10
24.526
 20
41.51399999999999
 30
0.0
 40
0.254
 50
-89.9999999999992
 51
-0.0
  0
ARC
  8
0
 62
0
 10
24.526
 20
55.00599999999999
 30
0.0
 40
0.254
 50
-0.0
 51
89.9999999999992
  0
LINE
  8
0
 62
0
 10
24.78
 20
41.51399999999999
 30
0.0
 11
24.78
 21
55.00599999999999
 31
0.0
  0
LINE
  8
0
 62
0
 10
37.45
 20
55.00600000000001
 30
0.0
 11
37.45
 21
41.514
 31
0.0
  0
ARC
  8
0
 62
0
 10
37.704
 20
41.514
 30
0.0
 40
0.254
 50
-180.0
 51
-89.9999999999984
  0
ARC
  8
0
 62
0
 10
37.704
 20
55.00600000000001
 30
0.0
 40
0.254
 50
89.9999999999984
 51
-180.0
  0
LINE
  8
0
 62
0
 10
37.703999999999986
 20
41.260000000000005
 30
0.0
 11
51.19599999999999
 21
41.260000000000005
 31
0.0
  0
LINE
  8
0
 62
0
 10
51.19599999999999
 20
55.260000000000005
 30
0.0
 11
37.703999999999986
 21
55.260000000000005
 31
0.0
  0
ARC
  8
0
 62
0
 10
51.196000000000005
 20
41.514
 30
0.0
 40
0.254
 50
-90.0000000000016
 51
-0.0
  0
ARC
  8
0
 62
0
 10
51.196000000000005
 20
55.00600000000001
 30
0.0
 40
0.254
 50
-0.0
 51
90.0000000000016
  0
LINE
  8
0
 62
0
 10
51.45
 20
41.514
 30
0.0
 11
51.45
 21
55.00600000000001
 31
0.0
  0
LINE
  8
0
 62
0
 10
56.49999999999998
 20
55.006
 30
0.0
 11
56.49999999999998
 21
41.513999999999996
 31
0.0
  0
ARC
  8
0
 62
0
 10
56.75399999999998
 20
41.513999999999996
 30
0.0
 40
0.254
 50
-180.0
 51
-89.9999999999984
  0
ARC
  8
0
 62
0
 10
56.75399999999998
 20
55.006
 30
0.0
 40
0.254
 50
89.9999999999984
 51
-180.0
  0
LINE
  8
0
 62
0
 10
56.753999999999984
 20
41.26
 30
0.0
 11
70.24599999999997
 21
41.26
 31
0.0
  0
LINE
  8
0
 62
0
 10
70.24599999999997
 20
55.26
 30
0.0
 11
56.75399999999998
 21
55.26
 31
0.0
  0
ARC
  8
0
 62
0
 10
70.24599999999997
 20
41.513999999999996
 30
0.0
 40
0.254
 50
-90.00000000000321
 51
-0.0
  0
ARC
  8
0
 62
0
 10
70.24599999999997
 20
55.006
 30
0.0
 40
0.254
 50
-0.0
 51
90.00000000000321
  0
LINE
  8
0
 62
0
 10
70.49999999999997
 20
41.513999999999996
 30
0.0
 11
70.49999999999997
 21
55.006
 31
0.0
  0
LINE
  8
0
 62
0
 10
75.54999999999998
 20
55.00600000000001
 30
0.0
 11
75.54999999999998
 21
41.514
 31
0.0
  0
ARC
  8
0
 62
0
 10
75.80399999999999
 20
41.514
 30
0.0
 40
0.254
 50
-180.0
 51
-89.99999999999679
  0
ARC
  8
0
 62
0
 10
75.80399999999999
 20
55.00600000000001
 30
0.0
 40
0.254
 50
89.99999999999679
 51
-180.0
  0
LINE
  8
0
 62
0
 10
75.80399999999999
 20
41.260000000000005
 30
0.0
 11
89.29599999999998
 21
41.260000000000005
 31
0.0
  0
LINE
  8
0
 62
0
 10
89.29599999999998
 20
55.260000000000005
 30
0.0
 11
75.80399999999999
 21
55.260000000000005
 31
0.0
  0
ARC
  8
0
 62
0
 10
89.29599999999998
 20
41.514
 30
0.0
 40
0.254
 50
-90.00000000000321
 51
-0.0
  0
ARC
  8
0
 62
0
 10
89.29599999999998
 20
55.00600000000001
 30
0.0
 40
0.254
 50
-0.0
 51
90.00000000000321
  0
LINE
  8
0
 62
0
 10
89.54999999999998
 20
41.514
 30
0.0
 11
89.54999999999998
 21
55.00600000000001
 31
0.0
  0
LINE
  8
0
 62
0
 10
8.239999999999995
 20
74.056
 30
0.0
 11
8.239999999999995
 21
60.564
 31
0.0
  0
ARC
  8
0
 62
0
 10
8.493999999999994
 20
60.564
 30
0.0
 40
0.254
 50
-180.0
 51
-89.9999999999996
  0
ARC
  8
0
 62
0
 10
8.493999999999994
 20
74.056
 30
0.0
 40
0.254
 50
89.9999999999996
 51
-180.0
  0
LINE
  8
0
 62
0
 10
8.494000000000009
 20
60.31
 30
0.0
 11
21.986000000000008
 21
60.31
 31
0.0
  0
LINE
  8
0
 62
0
 10
21.986000000000008
 20
74.31
 30
0.0
 11
8.494000000000009
 21
74.31
 31
0.0
  0
ARC
  8
0
 62
0
 10
21.985999999999994
 20
60.564
 30
0.0
 40
0.254
 50
-90.0000000000008
 51
-0.0
  0
ARC
  8
0
 62
0
 10
21.985999999999994
 20
74.056
 30
0.0
 40
0.254
 50
-0.0
 51
90.0000000000008
  0
LINE
  8
0
 62
0
 10
22.239999999999995
 20
60.564
 30
0.0
 11
22.239999999999995
 21
74.056
 31
0.0
  0
LINE
  8
0
 62
0
 10
32.370000000000005
 20
74.05599999999998
 30
0.0
 11
32.370000000000005
 21
60.563999999999986
 31
0.0
  0
ARC
  8
0
 62
0
 10
32.624
 20
60.563999999999986
 30
0.0
 40
0.254
 50
-180.0
 51
-90.0000000000016
  0
ARC
  8
0
 62
0
 10
32.624
 20
74.05599999999998
 30
0.0
 40
0.254
 50
90.0000000000016
 51
-180.0
  0
LINE
  8
0
 62
0
 10
32.624
 20
60.30999999999999
 30
0.0
 11
46.11600000000001
 21
60.30999999999999
 31
0.0
  0
LINE
  8
0
 62
0
 10
46.11600000000001
 20
74.30999999999999
 30
0.0
 11
32.624
 21
74.30999999999999
 31
0.0
  0
ARC
  8
0
 62
0
 10
46.11600000000001
 20
60.563999999999986
 30
0.0
 40
0.254
 50
-89.9999999999984
 51
-0.0
  0
ARC
  8
0
 62
0
 10
46.11600000000001
 20
74.05599999999998
 30
0.0
 40
0.254
 50
-0.0
 51
89.9999999999984
  0
LINE
  8
0
 62
0
 10
46.370000000000005
 20
60.563999999999986
 30
0.0
 11
46.370000000000005
 21
74.05599999999998
 31
0.0
  0
LINE
  8
0
 62
0
 10
51.41999999999999
 20
74.056
 30
0.0
 11
51.41999999999999
 21
60.56399999999999
 31
0.0
  0
ARC
  8
0
 62
0
 10
51.673999999999985
 20
60.56399999999999
 30
0.0
 40
0.254
 50
-180.0
 51
-90.0000000000016
  0
ARC
  8
0
 62
0
 10
51.673999999999985
 20
74.056
 30
0.0
 40
0.254
 50
90.0000000000016
 51
-180.0
  0
LINE
  8
0
 62
0
 10
51.673999999999985
 20
60.309999999999995
 30
0.0
 11
65.16599999999998
 21
60.309999999999995
 31
0.0
  0
LINE
  8
0
 62
0
 10
65.16599999999998
 20
74.31
 30
0.0
 11
51.673999999999985
 21
74.31
 31
0.0
  0
ARC
  8
0
 62
0
 10
65.16599999999998
 20
60.56399999999999
 30
0.0
 40
0.254
 50
-90.00000000000321
 51
-0.0
  0
ARC
  8
0
 62
0
 10
65.16599999999998
 20
74.056
 30
0.0
 40
0.254
 50
-0.0
 51
90.00000000000321
  0
LINE
  8
0
 62
0
 10
65.41999999999999
 20
60.56399999999999
 30
0.0
 11
65.41999999999999
 21
74.056
 31
0.0
  0
LINE
  8
0
 62
0
 10
70.47
 20
74.05600000000004
 30
0.0
 11
70.47
 21
60.56400000000005
 31
0.0
  0
ARC
  8
0
 62
0
 10
70.724
 20
60.56400000000005
 30
0.0
 40
0.254
 50
-180.0
 51
-89.99999999999679
  0
ARC
  8
0
 62
0
 10
70.724
 20
74.05600000000004
 30
0.0
 40
0.254
 50
89.99999999999679
 51
-180.0
  0
LINE
  8
0
 62
0
 10
70.724
 20
60.31000000000005
 30
0.0
 11
84.216
 21
60.31000000000005
 31
0.0
  0
LINE
  8
0
 62
0
 10
84.216
 20
74.31000000000004
 30
0.0
 11
70.724
 21
74.31000000000004
 31
0.0
  0
ARC
  8
0
 62
0
 10
84.216
 20
60.56400000000005
 30
0.0
 40
0.254
 50
-90.00000000000321
 51
-0.0
  0
ARC
  8
0
 62
0
 10
84.216
 20
74.05600000000004
 30
0.0
 40
0.254
 50
-0.0
 51
90.00000000000321
  0
LINE
  8
0
 62
0
 10
84.47
 20
60.56400000000005
 30
0.0
 11
84.47
 21
74.05600000000004
 31
0.0
  0
LINE
  8
0
 62
0
 10
89.52000000000001
 20
74.05599999999997
 30
0.0
 11
89.52000000000001
 21
60.56399999999998
 31
0.0
  0
ARC
  8
0
 62
0
 10
89.77400000000002
 20
60.56399999999998
 30
0.0
 40
0.254
 50
-180.0
 51
-89.99999999999679
  0
ARC
  8
0
 62
0
 10
89.77400000000002
 20
74.05599999999997
 30
0.0
 40
0.254
 50
89.99999999999679
 51
-180.0
  0
LINE
  8
0
 62
0
 10
89.77400000000002
 20
60.30999999999998
 30
0.0
 11
103.266
 21
60.30999999999998
 31
0.0
  0
LINE
  8
0
 62
0
 10
103.266
 20
74.30999999999997
 30
0.0
 11
89.77400000000002
 21
74.30999999999997
 31
0.0
  0
ARC
  8
0
 62
0
 10
103.266
 20
60.56399999999998
 30
0.0
 40
0.254
 50
-90.0
 51
-0.0
  0
ARC
  8
0
 62
0
 10
103.266
 20
74.05599999999997
 30
0.0
 40
0.254
 50
-0.0
 51
90.0
  0
LINE
  8
0
 62
0
 10
103.52000000000001
 20
60.56399999999998
 30
0.0
 11
103.52000000000001
 21
74.05599999999997
 31
0.0
  0
LINE
  8
0
 62
0
 10
132.7
 20
55.00600000000005
 30
0.0
 11
132.7
 21
41.514000000000046
 31
0.0
  0
ARC
  8
0
 62
0
 10
132.95399999999998
 20
41.514000000000046
 30
0.0
 40
0.254
 50
-180.0
 51
-90.0
  0
ARC
  8
0
 62
0
 10
132.95399999999998
 20
55.00600000000005
 30
0.0
 40
0.254
 50
90.0
 51
-180.0
  0
LINE
  8
0
 62
0
 10
132.95399999999998
 20
41.26000000000005
 30
0.0
 11
146.446
 21
41.26000000000005
 31
0.0
  0
LINE
  8
0
 62
0
 10
146.446
 20
55.26000000000005
 30
0.0
 11
132.95399999999998
 21
55.26000000000005
 31
0.0
  0
ARC
  8
0
 62
0
 10
146.446
 20
41.514000000000046
 30
0.0
 40
0.254
 50
-90.0
 51
-0.0
  0
ARC
  8
0
 62
0
 10
146.446
 20
55.00600000000005
 30
0.0
 40
0.254
 50
-0.0
 51
90.0
  0
LINE
  8
0
 62
0
 10
146.7
 20
41.514000000000046
 30
0.0
 11
146.7
 21
55.00600000000005
 31
0.0
  0
LINE
  8
0
 62
0
 10
151.74999999999997
 20
55.00599999999997
 30
0.0
 11
151.74999999999997
 21
41.51399999999997
 31
0.0
  0
ARC
  8
0
 62
0
 10
152.00399999999996
 20
41.51399999999997
 30
0.0
 40
0.254
 50
-180.0
 51
-90.0
  0
ARC
  8
0
 62
0
 10
152.00399999999996
 20
55.00599999999997
 30
0.0
 40
0.254
 50
90.0
 51
-180.0
  0
LINE
  8
0
 62
0
 10
152.00399999999996
 20
41.25999999999997
 30
0.0
 11
165.49599999999998
 21
41.25999999999997
 31
0.0
  0
LINE
  8
0
 62
0
 10
165.49599999999998
 20
55.25999999999997
 30
0.0
 11
152.00399999999996
 21
55.25999999999997
 31
0.0
  0
ARC
  8
0
 62
0
 10
165.49599999999998
 20
41.51399999999997
 30
0.0
 40
0.254
 50
-90.0
 51
-0.0
  0
ARC
  8
0
 62
0
 10
165.49599999999998
 20
55.00599999999997
 30
0.0
 40
0.254
 50
-0.0
 51
90.0
  0
LINE
  8
0
 62
0
 10
165.74999999999997
 20
41.51399999999997
 30
0.0
 11
165.74999999999997
 21
55.00599999999997
 31
0.0
  0
LINE
  8
0
 62
0
 10
170.80000000000004
 20
55.006000000000064
 30
0.0
 11
170.80000000000004
 21
41.51400000000006
 31
0.0
  0
ARC
  8
0
 62
0
 10
171.05400000000003
 20
41.51400000000006
 30
0.0
 40
0.254
 50
-180.0
 51
-90.0
  0
ARC
  8
0
 62
0
 10
171.05400000000003
 20
55.006000000000064
 30
0.0
 40
0.254
 50
90.0
 51
-180.0
  0
LINE
  8
0
 62
0
 10
171.05400000000003
 20
41.26000000000006
 30
0.0
 11
184.54600000000005
 21
41.26000000000006
 31
0.0
  0
LINE
  8
0
 62
0
 10
184.54600000000005
 20
55.26000000000006
 30
0.0
 11
171.05400000000003
 21
55.26000000000006
 31
0.0
  0
ARC
  8
0
 62
0
 10
184.54600000000005
 20
41.51400000000006
 30
0.0
 40
0.254
 50
-90.0
 51
-0.0
  0
ARC
  8
0
 62
0
 10
184.54600000000005
 20
55.006000000000064
 30
0.0
 40
0.254
 50
-0.0
 51
90.0
  0
LINE
  8
0
 62
0
 10
184.80000000000004
 20
41.51400000000006
 30
0.0
 11
184.80000000000004
 21
55.006000000000064
 31
0.0
  0
LINE
  8
0
 62
0
 10
189.84999999999994
 20
55.00599999999989
 30
0.0
 11
189.84999999999994
 21
41.51399999999988
 31
0.0
  0
ARC
  8
0
 62
0
 10
190.10399999999993
 20
41.51399999999988
 30
0.0
 40
0.254
 50
-180.0
 51
-90.0
  0
ARC
  8
0
 62
0
 10
190.10399999999993
 20
55.00599999999989
 30
0.0
 40
0.254
 50
90.0
 51
-180.0
  0
LINE
  8
0
 62
0
 10
190.10399999999993
 20
41.259999999999884
 30
0.0
 11
203.59599999999995
 21
41.259999999999884
 31
0.0
  0
LINE
  8
0
 62
0
 10
203.59599999999995
 20
55.259999999999884
 30
0.0
 11
190.10399999999993
 21
55.259999999999884
 31
0.0
  0
ARC
  8
0
 62
0
 10
203.59599999999995
 20
41.51399999999988
 30
0.0
 40
0.254
 50
-90.0
 51
-0.0
  0
ARC
  8
0
 62
0
 10
203.59599999999995
 20
55.00599999999989
 30
0.0
 40
0.254
 50
-0.0
 51
90.0
  0
LINE
  8
0
 62
0
 10
203.84999999999994
 20
41.51399999999988
 30
0.0
 11
203.84999999999994
 21
55.00599999999989
 31
0.0
  0
LINE
  8
0
 62
0
 10
208.89999999999998
 20
55.00600000000001
 30
0.0
 11
208.89999999999998
 21
41.514
 31
0.0
  0
ARC
  8
0
 62
0
 10
209.15399999999997
 20
41.514
 30
0.0
 40
0.254
 50
-180.0
 51
-90.0
  0
ARC
  8
0
 62
0
 10
209.15399999999997
 20
55.00600000000001
 30
0.0
 40
0.254
 50
90.0
 51
-180.0
  0
LINE
  8
0
 62
0
 10
209.15399999999997
 20
41.260000000000005
 30
0.0
 11
222.646
 21
41.260000000000005
 31
0.0
  0
LINE
  8
0
 62
0
 10
222.646
 20
55.260000000000005
 30
0.0
 11
209.15399999999997
 21
55.260000000000005
 31
0.0
  0
ARC
  8
0
 62
0
 10
222.646
 20
41.514
 30
0.0
 40
0.254
 50
-90.0
 51
-0.0
  0
ARC
  8
0
 62
0
 10
222.646
 20
55.00600000000001
 30
0.0
 40
0.254
 50
-0.0
 51
90.0
  0
LINE
  8
0
 62
0
 10
222.89999999999998
 20
41.514
 30
0.0
 11
222.89999999999998
 21
55.00600000000001
 31
0.0
  0
ARC
  8
0
 62
0
 10
94.85400000000006
 20
41.51399999999997
 30
0.0
 40
0.254
 50
-180.0
 51
-90.0
  0
LINE
  8
0
 62
0
 10
94.60000000000005
 20
55.00599999999997
 30
0.0
 11
94.60000000000005
 21
41.51399999999997
 31
0.0
  0
LINE
  8
0
 62
0
 10
94.85400000000006
 20
41.25999999999997
 30
0.0
 11
108.34600000000005
 21
41.25999999999997
 31
0.0
  0
ARC
  8
0
 62
0
 10
94.85400000000006
 20
55.00599999999997
 30
0.0
 40
0.254
 50
90.0
 51
-180.0
  0
ARC
  8
0
 62
0
 10
108.34600000000005
 20
41.51399999999997
 30
0.0
 40
0.254
 50
-90.0
 51
-0.0
  0
LINE
  8
0
 62
0
 10
108.34600000000005
 20
55.25999999999997
 30
0.0
 11
94.85400000000006
 21
55.25999999999997
 31
0.0
  0
LINE
  8
0
 62
0
 10
108.60000000000005
 20
41.51399999999997
 30
0.0
 11
108.60000000000005
 21
55.00599999999997
 31
0.0
  0
ARC
  8
0
 62
0
 10
108.34600000000005
 20
55.00599999999997
 30
0.0
 40
0.254
 50
71.49588903844457
 51
90.0
  0
ARC
  8
0
 62
0
 10
108.34600000000005
 20
55.00599999999997
 30
0.0
 40
0.254
 50
-0.0
 51
3.804522241144895
  0
ARC
  8
0
 62
0
 10
111.125
 20
57.15
 30
0.0
 40
3.302
 50
106.86405700083664
 51
-144.80526461856473
  0
ARC
  8
0
 62
0
 10
111.125
 20
57.15
 30
0.0
 40
3.302
 50
-139.8943241018459
 51
-40.10567589815365
  0
LINE
  8
0
 62
0
 10
108.82399999999998
 20
60.31000000000001
 30
0.0
 11
110.16708351094549
 21
60.31000000000001
 31
0.0
  0
ARC
  8
0
 62
0
 10
113.90400000000002
 20
55.005999999999965
 30
0.0
 40
0.254
 50
176.19547775885675
 51
-180.0
  0
ARC
  8
0
 62
0
 10
108.82399999999998
 20
60.56400000000001
 30
0.0
 40
0.254
 50
-180.0
 51
-90.0
  0
LINE
  8
0
 62
0
 10
113.65000000000002
 20
55.005999999999965
 30
0.0
 11
113.65000000000002
 21
41.51399999999996
 31
0.0
  0
LINE
  8
0
 62
0
 10
108.56999999999998
 20
74.056
 30
0.0
 11
108.56999999999998
 21
60.56400000000001
 31
0.0
  0
ARC
  8
0
 62
0
 10
113.90400000000002
 20
41.51399999999996
 30
0.0
 40
0.254
 50
-180.0
 51
-90.0
  0
ARC
  8
0
 62
0
 10
108.82399999999998
 20
74.056
 30
0.0
 40
0.254
 50
90.0
 51
-180.0
  0
LINE
  8
0
 62
0
 10
113.90400000000002
 20
41.25999999999996
 30
0.0
 11
127.39600000000002
 21
41.25999999999996
 31
0.0
  0
LINE
  8
0
 62
0
 10
122.31599999999997
 20
74.31
 30
0.0
 11
108.82399999999998
 21
74.31
 31
0.0
  0
ARC
  8
0
 62
0
 10
127.39600000000002
 20
41.51399999999996
 30
0.0
 40
0.254
 50
-90.0
 51
-0.0
  0
ARC
  8
0
 62
0
 10
122.31599999999997
 20
74.056
 30
0.0
 40
0.254
 50
-0.0
 51
90.0
  0
LINE
  8
0
 62
0
 10
127.65000000000002
 20
41.51399999999996
 30
0.0
 11
127.65000000000002
 21
55.005999999999965
 31
0.0
  0
LINE
  8
0
 62
0
 10
122.56999999999998
 20
60.56400000000001
 30
0.0
 11
122.56999999999998
 21
74.056
 31
0.0
  0
ARC
  8
0
 62
0
 10
127.39600000000002
 20
55.005999999999965
 30
0.0
 40
0.254
 50
-0.0
 51
90.0
  0
ARC
  8
0
 62
0
 10
122.31599999999997
 20
60.56400000000001
 30
0.0
 40
0.254
 50
-90.0
 51
-0.0
  0
LINE
  8
0
 62
0
 10
127.39600000000002
 20
55.25999999999996
 30
0.0
 11
113.90400000000002
 21
55.25999999999996
 31
0.0
  0
LINE
  8
0
 62
0
 10
112.08291648905451
 20
60.31000000000001
 30
0.0
 11
122.31599999999997
 21
60.31000000000001
 31
0.0
  0
ARC
  8
0
 62
0
 10
113.90400000000002
 20
55.005999999999965
 30
0.0
 40
0.254
 50
90.0
 51
108.50411096155544
  0
ARC
  8
0
 62
0
 10
111.125
 20
57.15
 30
0.0
 40
3.302
 50
-0.0
 51
73.13594299916336
  0
ARC
  8
0
 62
0
 10
111.125
 20
57.15
 30
0.0
 40
3.302
 50
-35.19473538143458
 51
-0.0
  0
LINE
  8
0
 62
0
 10
127.62000000000013
 20
74.05599999999994
 30
0.0
 11
127.62000000000013
 21
60.56399999999994
 31
0.0
  0
ARC
  8
0
 62
0
 10
127.87400000000014
 20
60.56399999999994
 30
0.0
 40
0.254
 50
-180.0
 51
-90.0
  0
ARC
  8
0
 62
0
 10
127.87400000000014
 20
74.05599999999994
 30
0.0
 40
0.254
 50
90.0
 51
-180.0
  0
LINE
  8
0
 62
0
 10
127.87400000000014
 20
60.309999999999945
 30
0.0
 11
141.36600000000013
 21
60.309999999999945
 31
0.0
  0
LINE
  8
0
 62
0
 10
141.36600000000013
 20
74.30999999999995
 30
0.0
 11
127.87400000000014
 21
74.30999999999995
 31
0.0
  0
ARC
  8
0
 62
0
 10
141.36600000000013
 20
60.56399999999994
 30
0.0
 40
0.254
 50
-90.0
 51
-0.0
  0
ARC
  8
0
 62
0
 10
141.36600000000013
 20
74.05599999999994
 30
0.0
 40
0.254
 50
-0.0
 51
90.0
  0
LINE
  8
0
 62
0
 10
141.62000000000012
 20
60.56399999999994
 30
0.0
 11
141.62000000000012
 21
74.05599999999994
 31
0.0
  0
LINE
  8
0
 62
0
 10
146.67000000000002
 20
74.05599999999991
 30
0.0
 11
146.67000000000002
 21
60.56399999999992
 31
0.0
  0
ARC
  8
0
 62
0
 10
146.924
 20
60.56399999999992
 30
0.0
 40
0.254
 50
-180.0
 51
-90.0
  0
ARC
  8
0
 62
0
 10
146.924
 20
74.05599999999991
 30
0.0
 40
0.254
 50
90.0
 51
-180.0
  0
LINE
  8
0
 62
0
 10
146.924
 20
60.309999999999924
 30
0.0
 11
160.41600000000003
 21
60.309999999999924
 31
0.0
  0
LINE
  8
0
 62
0
 10
160.41600000000003
 20
74.30999999999992
 30
0.0
 11
146.924
 21
74.30999999999992
 31
0.0
  0
ARC
  8
0
 62
0
 10
160.41600000000003
 20
60.56399999999992
 30
0.0
 40
0.254
 50
-90.0
 51
-0.0
  0
ARC
  8
0
 62
0
 10
160.41600000000003
 20
74.05599999999991
 30
0.0
 40
0.254
 50
-0.0
 51
90.0
  0
LINE
  8
0
 62
0
 10
160.67000000000002
 20
60.56399999999992
 30
0.0
 11
160.67000000000002
 21
74.05599999999991
 31
0.0
  0
LINE
  8
0
 62
0
 10
165.72
 20
74.05600000000003
 30
0.0
 11
165.72
 21
60.564000000000036
 31
0.0
  0
ARC
  8
0
 62
0
 10
165.974
 20
60.564000000000036
 30
0.0
 40
0.254
 50
-180.0
 51
-90.0
  0
ARC
  8
0
 62
0
 10
165.974
 20
74.05600000000003
 30
0.0
 40
0.254
 50
90.0
 51
-180.0
  0
LINE
  8
0
 62
0
 10
165.974
 20
60.31000000000004
 30
0.0
 11
179.466
 21
60.31000000000004
 31
0.0
  0
LINE
  8
0
 62
0
 10
179.466
 20
74.31000000000003
 30
0.0
 11
165.974
 21
74.31000000000003
 31
0.0
  0
ARC
  8
0
 62
0
 10
179.466
 20
60.564000000000036
 30
0.0
 40
0.254
 50
-90.0
 51
-0.0
  0
ARC
  8
0
 62
0
 10
179.466
 20
74.05600000000003
 30
0.0
 40
0.254
 50
-0.0
 51
90.0
  0
LINE
  8
0
 62
0
 10
179.72
 20
60.564000000000036
 30
0.0
 11
179.72
 21
74.05600000000003
 31
0.0
  0
LINE
  8
0
 62
0
 10
184.76999999999992
 20
74.05599999999988
 30
0.0
 11
184.76999999999992
 21
60.56399999999989
 31
0.0
  0
ARC
  8
0
 62
0
 10
185.02399999999992
 20
60.56399999999989
 30
0.0
 40
0.254
 50
-180.0
 51
-90.0
  0
ARC
  8
0
 62
0
 10
185.02399999999992
 20
74.05599999999988
 30
0.0
 40
0.254
 50
90.0
 51
-180.0
  0
LINE
  8
0
 62
0
 10
185.02399999999992
 20
60.309999999999896
 30
0.0
 11
198.51599999999993
 21
60.309999999999896
 31
0.0
  0
LINE
  8
0
 62
0
 10
198.51599999999993
 20
74.30999999999989
 30
0.0
 11
185.02399999999992
 21
74.30999999999989
 31
0.0
  0
ARC
  8
0
 62
0
 10
198.51599999999993
 20
60.56399999999989
 30
0.0
 40
0.254
 50
-90.0
 51
-0.0
  0
ARC
  8
0
 62
0
 10
198.51599999999993
 20
74.05599999999988
 30
0.0
 40
0.254
 50
-0.0
 51
90.0
  0
LINE
  8
0
 62
0
 10
198.76999999999992
 20
60.56399999999989
 30
0.0
 11
198.76999999999992
 21
74.05599999999988
 31
0.0
  0
LINE
  8
0
 62
0
 10
203.82000000000002
 20
74.05599999999995
 30
0.0
 11
203.82000000000002
 21
60.56399999999996
 31
0.0
  0
ARC
  8
0
 62
0
 10
204.074
 20
60.56399999999996
 30
0.0
 40
0.254
 50
-180.0
 51
-90.0
  0
ARC
  8
0
 62
0
 10
204.074
 20
74.05599999999995
 30
0.0
 40
0.254
 50
90.0
 51
-180.0
  0
LINE
  8
0
 62
0
 10
204.074
 20
60.30999999999996
 30
0.0
 11
217.56600000000003
 21
60.30999999999996
 31
0.0
  0
LINE
  8
0
 62
0
 10
217.56600000000003
 20
74.30999999999996
 30
0.0
 11
204.074
 21
74.30999999999996
 31
0.0
  0
ARC
  8
0
 62
0
 10
217.56600000000003
 20
60.56399999999996
 30
0.0
 40
0.254
 50
-90.0
 51
-0.0
  0
ARC
  8
0
 62
0
 10
217.56600000000003
 20
74.05599999999995
 30
0.0
 40
0.254
 50
-0.0
 51
90.0
  0
LINE
  8
0
 62
0
 10
217.82000000000002
 20
60.56399999999996
 30
0.0
 11
217.82000000000002
 21
74.05599999999995
 31
0.0
  0
LINE
  8
0
 62
0
 10
219.06
 20
16.906000000000002
 30
0.0
 11
219.06
 21
3.4140000000000033
 31
0.0
  0
ARC
  8
0
 62
0
 10
219.314
 20
3.414
 30
0.0
 40
0.254
 50
180.0
 51
-90.0
  0
ARC
  8
0
 62
0
 10
219.314
 20
16.906
 30
0.0
 40
0.254
 50
90.0
 51
-180.0
  0
LINE
  8
0
 62
0
 10
219.314
 20
3.16
 30
0.0
 11
232.806
 21
3.16
 31
0.0
  0
LINE
  8
0
 62
0
 10
232.806
 20
17.16
 30
0.0
 11
219.314
 21
17.16
 31
0.0
  0
ARC
  8
0
 62
0
 10
232.806
 20
3.414
 30
0.0
 40
0.254
 50
-90.0
 51
-0.0
  0
ARC
  8
0
 62
0
 10
232.806
 20
16.906
 30
0.0
 40
0.254
 50
-0.0
 51
90.0
  0
LINE
  8
0
 62
0
 10
233.06
 20
3.414000000000004
 30
0.0
 11
233.06
 21
16.906000000000002
 31
0.0
  0
LINE
  8
0
 62
0
 10
243.19000000000003
 20
16.906000000000002
 30
0.0
 11
243.19000000000003
 21
3.4140000000000033
 31
0.0
  0
ARC
  8
0
 62
0
 10
243.44400000000002
 20
3.414
 30
0.0
 40
0.254
 50
180.0
 51
-90.0
  0
ARC
  8
0
 62
0
 10
243.44400000000002
 20
16.906
 30
0.0
 40
0.254
 50
90.0
 51
-180.0
  0
LINE
  8
0
 62
0
 10
243.44400000000002
 20
3.16
 30
0.0
 11
256.936
 21
3.16
 31
0.0
  0
LINE
  8
0
 62
0
 10
256.936
 20
17.16
 30
0.0
 11
243.44400000000002
 21
17.16
 31
0.0
  0
ARC
  8
0
 62
0
 10
256.936
 20
3.414
 30
0.0
 40
0.254
 50
-90.0
 51
-0.0
  0
ARC
  8
0
 62
0
 10
256.936
 20
16.906
 30
0.0
 40
0.254
 50
-0.0
 51
90.0
  0
LINE
  8
0
 62
0
 10
257.19
 20
3.414000000000004
 30
0.0
 11
257.19
 21
16.906000000000002
 31
0.0
  0
CIRCLE
  8
0
 62
0
 10
289.56
 20
6.35
 30
0.0
 40
1.65
  0
LINE
  8
0
 62
0
 10
267.32000000000005
 20
16.906000000000002
 30
0.0
 11
267.32000000000005
 21
3.4140000000000033
 31
0.0
  0
ARC
  8
0
 62
0
 10
267.57400000000007
 20
3.414
 30
0.0
 40
0.254
 50
180.0
 51
-90.0
  0
ARC
  8
0
 62
0
 10
267.57400000000007
 20
16.906
 30
0.0
 40
0.254
 50
90.0
 51
-180.0
  0
LINE
  8
0
 62
0
 10
267.57400000000007
 20
3.16
 30
0.0
 11
281.06600000000003
 21
3.16
 31
0.0
  0
LINE
  8
0
 62
0
 10
281.06600000000003
 20
17.16
 30
0.0
 11
267.57400000000007
 21
17.16
 31
0.0
  0
ARC
  8
0
 62
0
 10
281.06600000000003
 20
3.414
 30
0.0
 40
0.254
 50
-90.0
 51
-0.0
  0
ARC
  8
0
 62
0
 10
281.06600000000003
 20
16.906
 30
0.0
 40
0.254
 50
-0.0
 51
90.0
  0
LINE
  8
0
 62
0
 10
281.32000000000005
 20
3.414000000000004
 30
0.0
 11
281.32000000000005
 21
16.906000000000002
 31
0.0
  0
LINE
  8
0
 62
0
 10
295.26
 20
16.905999999999988
 30
0.0
 11
295.26
 21
3.413999999999989
 31
0.0
  0
ARC
  8
0
 62
0
 10
295.514
 20
3.4139999999999895
 30
0.0
 40
0.254
 50
-180.0
 51
-90.0
  0
ARC
  8
0
 62
0
 10
295.514
 20
16.905999999999988
 30
0.0
 40
0.254
 50
90.0
 51
180.0
  0
LINE
  8
0
 62
0
 10
295.514
 20
3.1599999999999895
 30
0.0
 11
309.006
 21
3.1599999999999895
 31
0.0
  0
LINE
  8
0
 62
0
 10
309.006
 20
17.15999999999999
 30
0.0
 11
295.514
 21
17.15999999999999
 31
0.0
  0
ARC
  8
0
 62
0
 10
309.006
 20
3.4139999999999895
 30
0.0
 40
0.254
 50
-90.0
 51
-0.0
  0
ARC
  8
0
 62
0
 10
309.006
 20
16.905999999999988
 30
0.0
 40
0.254
 50
0.0
 51
90.0
  0
LINE
  8
0
 62
0
 10
309.26
 20
3.4139999999999895
 30
0.0
 11
309.26
 21
16.905999999999988
 31
0.0
  0
LINE
  8
0
 62
0
 10
314.31000000000006
 20
16.905999999999988
 30
0.0
 11
314.31000000000006
 21
3.413999999999989
 31
0.0
  0
ARC
  8
0
 62
0
 10
314.5640000000001
 20
3.4139999999999895
 30
0.0
 40
0.254
 50
-180.0
 51
-90.0
  0
ARC
  8
0
 62
0
 10
314.5640000000001
 20
16.905999999999988
 30
0.0
 40
0.254
 50
90.0
 51
180.0
  0
LINE
  8
0
 62
0
 10
314.5640000000001
 20
3.1599999999999895
 30
0.0
 11
328.05600000000004
 21
3.1599999999999895
 31
0.0
  0
LINE
  8
0
 62
0
 10
328.05600000000004
 20
17.15999999999999
 30
0.0
 11
314.5640000000001
 21
17.15999999999999
 31
0.0
  0
ARC
  8
0
 62
0
 10
328.05600000000004
 20
3.4139999999999895
 30
0.0
 40
0.254
 50
-90.0
 51
-0.0
  0
ARC
  8
0
 62
0
 10
328.05600000000004
 20
16.905999999999988
 30
0.0
 40
0.254
 50
0.0
 51
90.0
  0
LINE
  8
0
 62
0
 10
328.31000000000006
 20
3.4139999999999895
 30
0.0
 11
328.31000000000006
 21
16.905999999999988
 31
0.0
  0
LINE
  8
0
 62
0
 10
217.79000000000002
 20
35.956
 30
0.0
 11
217.79000000000002
 21
22.464000000000002
 31
0.0
  0
ARC
  8
0
 62
0
 10
218.044
 20
22.464000000000002
 30
0.0
 40
0.254
 50
-180.0
 51
-90.0
  0
ARC
  8
0
 62
0
 10
218.044
 20
35.956
 30
0.0
 40
0.254
 50
90.0
 51
-180.0
  0
LINE
  8
0
 62
0
 10
218.044
 20
22.21
 30
0.0
 11
231.53600000000003
 21
22.21
 31
0.0
  0
LINE
  8
0
 62
0
 10
231.53600000000003
 20
36.21
 30
0.0
 11
218.044
 21
36.21
 31
0.0
  0
ARC
  8
0
 62
0
 10
231.53600000000003
 20
22.464000000000002
 30
0.0
 40
0.254
 50
-90.0
 51
-0.0
  0
ARC
  8
0
 62
0
 10
231.53600000000003
 20
35.956
 30
0.0
 40
0.254
 50
-0.0
 51
90.0
  0
LINE
  8
0
 62
0
 10
231.79000000000002
 20
22.464000000000002
 30
0.0
 11
231.79000000000002
 21
35.956
 31
0.0
  0
LINE
  8
0
 62
0
 10
314.31
 20
35.95600000000001
 30
0.0
 11
314.31
 21
22.46400000000001
 31
0.0
  0
ARC
  8
0
 62
0
 10
314.564
 20
22.46400000000001
 30
0.0
 40
0.254
 50
180.0
 51
-90.0
  0
ARC
  8
0
 62
0
 10
314.564
 20
35.95600000000001
 30
0.0
 40
0.254
 50
90.0
 51
-180.0
  0
LINE
  8
0
 62
0
 10
314.564
 20
22.210000000000008
 30
0.0
 11
328.056
 21
22.210000000000008
 31
0.0
  0
LINE
  8
0
 62
0
 10
328.056
 20
36.21000000000001
 30
0.0
 11
314.564
 21
36.21000000000001
 31
0.0
  0
ARC
  8
0
 62
0
 10
328.056
 20
22.46400000000001
 30
0.0
 40
0.254
 50
-90.0
 51
0.0
  0
ARC
  8
0
 62
0
 10
328.056
 20
35.95600000000001
 30
0.0
 40
0.254
 50
-0.0
 51
90.0
  0
LINE
  8
0
 62
0
 10
328.31
 20
22.46400000000001
 30
0.0
 11
328.31
 21
35.95600000000001
 31
0.0
  0
LINE
  8
0
 62
0
 10
333.35999999999996
 20
16.905999999999988
 30
0.0
 11
333.35999999999996
 21
3.413999999999989
 31
0.0
  0
ARC
  8
0
 62
0
 10
333.614
 20
3.413999999999993
 30
0.0
 40
0.254
 50
180.0
 51
-90.0
  0
ARC
  8
0
 62
0
 10
333.614
 20
16.90599999999999
 30
0.0
 40
0.254
 50
90.0
 51
-180.0
  0
LINE
  8
0
 62
0
 10
333.614
 20
3.159999999999993
 30
0.0
 11
347.10599999999994
 21
3.159999999999993
 31
0.0
  0
LINE
  8
0
 62
0
 10
347.10599999999994
 20
17.159999999999993
 30
0.0
 11
333.614
 21
17.159999999999993
 31
0.0
  0
ARC
  8
0
 62
0
 10
347.10599999999994
 20
3.413999999999993
 30
0.0
 40
0.254
 50
-90.0
 51
-0.0
  0
ARC
  8
0
 62
0
 10
347.10599999999994
 20
16.90599999999999
 30
0.0
 40
0.254
 50
-0.0
 51
90.0
  0
LINE
  8
0
 62
0
 10
347.35999999999996
 20
3.413999999999989
 30
0.0
 11
347.35999999999996
 21
16.905999999999988
 31
0.0
  0
CIRCLE
  8
0
 62
0
 10
353.06
 20
6.35
 30
0.0
 40
1.65
  0
LINE
  8
0
 62
0
 10
396.86000000000007
 20
16.906000000000002
 30
0.0
 11
396.86000000000007
 21
3.4140000000000033
 31
0.0
  0
ARC
  8
0
 62
0
 10
397.1140000000001
 20
3.4140000000000037
 30
0.0
 40
0.254
 50
-180.0
 51
-90.0
  0
ARC
  8
0
 62
0
 10
397.1140000000001
 20
16.906000000000002
 30
0.0
 40
0.254
 50
90.0
 51
180.0
  0
LINE
  8
0
 62
0
 10
397.1140000000001
 20
3.1600000000000037
 30
0.0
 11
410.60600000000005
 21
3.1600000000000037
 31
0.0
  0
LINE
  8
0
 62
0
 10
410.60600000000005
 20
17.160000000000004
 30
0.0
 11
397.1140000000001
 21
17.160000000000004
 31
0.0
  0
ARC
  8
0
 62
0
 10
410.60600000000005
 20
3.4140000000000037
 30
0.0
 40
0.254
 50
-90.0
 51
-0.0
  0
ARC
  8
0
 62
0
 10
410.60600000000005
 20
16.906000000000002
 30
0.0
 40
0.254
 50
0.0
 51
90.0
  0
LINE
  8
0
 62
0
 10
410.86000000000007
 20
3.4140000000000037
 30
0.0
 11
410.86000000000007
 21
16.906000000000002
 31
0.0
  0
LINE
  8
0
 62
0
 10
358.7599999999999
 20
35.95599999999998
 30
0.0
 11
358.7599999999999
 21
22.46399999999998
 31
0.0
  0
ARC
  8
0
 62
0
 10
359.0139999999999
 20
22.46399999999998
 30
0.0
 40
0.254
 50
180.0
 51
-90.0
  0
ARC
  8
0
 62
0
 10
359.0139999999999
 20
35.95599999999998
 30
0.0
 40
0.254
 50
90.0
 51
-180.0
  0
LINE
  8
0
 62
0
 10
359.0139999999999
 20
22.20999999999998
 30
0.0
 11
372.50599999999986
 21
22.20999999999998
 31
0.0
  0
LINE
  8
0
 62
0
 10
372.50599999999986
 20
36.20999999999998
 30
0.0
 11
359.0139999999999
 21
36.20999999999998
 31
0.0
  0
ARC
  8
0
 62
0
 10
372.50599999999986
 20
22.46399999999998
 30
0.0
 40
0.254
 50
-90.0
 51
0.0
  0
ARC
  8
0
 62
0
 10
372.50599999999986
 20
35.95599999999998
 30
0.0
 40
0.254
 50
-0.0
 51
90.0
  0
LINE
  8
0
 62
0
 10
372.7599999999999
 20
22.46399999999998
 30
0.0
 11
372.7599999999999
 21
35.95599999999998
 31
0.0
  0
LINE
  8
0
 62
0
 10
377.81
 20
35.95600000000008
 30
0.0
 11
377.81
 21
22.464000000000077
 31
0.0
  0
ARC
  8
0
 62
0
 10
378.064
 20
22.464000000000077
 30
0.0
 40
0.254
 50
-180.0
 51
-90.0
  0
ARC
  8
0
 62
0
 10
378.064
 20
35.95600000000008
 30
0.0
 40
0.254
 50
90.0
 51
-180.0
  0
LINE
  8
0
 62
0
 10
378.064
 20
22.210000000000075
 30
0.0
 11
391.556
 21
22.210000000000075
 31
0.0
  0
LINE
  8
0
 62
0
 10
391.556
 20
36.21000000000008
 30
0.0
 11
378.064
 21
36.21000000000008
 31
0.0
  0
ARC
  8
0
 62
0
 10
391.556
 20
22.464000000000077
 30
0.0
 40
0.254
 50
-90.0
 51
-0.0
  0
ARC
  8
0
 62
0
 10
391.556
 20
35.95600000000008
 30
0.0
 40
0.254
 50
0.0
 51
90.0
  0
LINE
  8
0
 62
0
 10
391.81
 20
22.464000000000073
 30
0.0
 11
391.81
 21
35.95600000000008
 31
0.0
  0
LINE
  8
0
 62
0
 10
396.85999999999996
 20
35.95600000000006
 30
0.0
 11
396.85999999999996
 21
22.46400000000006
 31
0.0
  0
ARC
  8
0
 62
0
 10
397.114
 20
22.46400000000006
 30
0.0
 40
0.254
 50
-180.0
 51
-90.0
  0
ARC
  8
0
 62
0
 10
397.114
 20
35.95600000000006
 30
0.0
 40
0.254
 50
90.0
 51
-180.0
  0
LINE
  8
0
 62
0
 10
397.114
 20
22.210000000000058
 30
0.0
 11
410.60599999999994
 21
22.210000000000058
 31
0.0
  0
LINE
  8
0
 62
0
 10
410.60599999999994
 20
36.21000000000006
 30
0.0
 11
397.114
 21
36.21000000000006
 31
0.0
  0
ARC
  8
0
 62
0
 10
410.60599999999994
 20
22.46400000000006
 30
0.0
 40
0.254
 50
-90.0
 51
-0.0
  0
ARC
  8
0
 62
0
 10
410.60599999999994
 20
35.95600000000006
 30
0.0
 40
0.254
 50
-0.0
 51
90.0
  0
LINE
  8
0
 62
0
 10
410.85999999999996
 20
22.46400000000006
 30
0.0
 11
410.85999999999996
 21
35.95600000000006
 31
0.0
  0
LINE
  8
0
 62
0
 10
227.94999999999987
 20
55.00599999999998
 30
0.0
 11
227.94999999999987
 21
41.513999999999974
 31
0.0
  0
ARC
  8
0
 62
0
 10
228.20399999999987
 20
41.513999999999974
 30
0.0
 40
0.254
 50
-180.0
 51
-90.0
  0
ARC
  8
0
 62
0
 10
228.20399999999987
 20
55.00599999999998
 30
0.0
 40
0.254
 50
90.0
 51
-180.0
  0
LINE
  8
0
 62
0
 10
228.20399999999987
 20
41.25999999999998
 30
0.0
 11
241.69599999999988
 21
41.25999999999998
 31
0.0
  0
LINE
  8
0
 62
0
 10
241.69599999999988
 20
55.25999999999998
 30
0.0
 11
228.20399999999987
 21
55.25999999999998
 31
0.0
  0
ARC
  8
0
 62
0
 10
241.69599999999988
 20
41.513999999999974
 30
0.0
 40
0.254
 50
-90.0
 51
-0.0
  0
ARC
  8
0
 62
0
 10
241.69599999999988
 20
55.00599999999998
 30
0.0
 40
0.254
 50
-0.0
 51
90.0
  0
LINE
  8
0
 62
0
 10
241.94999999999987
 20
41.513999999999974
 30
0.0
 11
241.94999999999987
 21
55.00599999999998
 31
0.0
  0
LINE
  8
0
 62
0
 10
247.00000000000003
 20
55.00600000000009
 30
0.0
 11
247.00000000000003
 21
41.51400000000009
 31
0.0
  0
ARC
  8
0
 62
0
 10
247.25400000000002
 20
41.51400000000009
 30
0.0
 40
0.254
 50
-180.0
 51
-90.0
  0
ARC
  8
0
 62
0
 10
247.25400000000002
 20
55.00600000000009
 30
0.0
 40
0.254
 50
90.0
 51
-180.0
  0
LINE
  8
0
 62
0
 10
247.25400000000002
 20
41.26000000000009
 30
0.0
 11
260.74600000000004
 21
41.26000000000009
 31
0.0
  0
LINE
  8
0
 62
0
 10
260.74600000000004
 20
55.26000000000009
 30
0.0
 11
247.25400000000002
 21
55.26000000000009
 31
0.0
  0
ARC
  8
0
 62
0
 10
260.74600000000004
 20
41.51400000000009
 30
0.0
 40
0.254
 50
-90.0
 51
-0.0
  0
ARC
  8
0
 62
0
 10
260.74600000000004
 20
55.00600000000009
 30
0.0
 40
0.254
 50
-0.0
 51
90.0
  0
LINE
  8
0
 62
0
 10
261.00000000000006
 20
41.51400000000009
 30
0.0
 11
261.00000000000006
 21
55.00600000000009
 31
0.0
  0
CIRCLE
  8
0
 62
0
 10
302.26
 20
38.735
 30
0.0
 40
1.65
  0
LINE
  8
0
 62
0
 10
314.30999999999995
 20
55.00599999999992
 30
0.0
 11
314.30999999999995
 21
41.51399999999992
 31
0.0
  0
ARC
  8
0
 62
0
 10
314.56399999999996
 20
41.51399999999992
 30
0.0
 40
0.254
 50
-180.0
 51
-90.0
  0
ARC
  8
0
 62
0
 10
314.56399999999996
 20
55.00599999999992
 30
0.0
 40
0.254
 50
90.0
 51
-180.0
  0
LINE
  8
0
 62
0
 10
314.56399999999996
 20
41.25999999999992
 30
0.0
 11
328.0559999999999
 21
41.25999999999992
 31
0.0
  0
LINE
  8
0
 62
0
 10
328.0559999999999
 20
55.25999999999992
 30
0.0
 11
314.56399999999996
 21
55.25999999999992
 31
0.0
  0
ARC
  8
0
 62
0
 10
328.0559999999999
 20
41.51399999999992
 30
0.0
 40
0.254
 50
-90.0
 51
-0.0
  0
ARC
  8
0
 62
0
 10
328.0559999999999
 20
55.00599999999992
 30
0.0
 40
0.254
 50
-0.0
 51
90.0
  0
LINE
  8
0
 62
0
 10
328.30999999999995
 20
41.51399999999992
 30
0.0
 11
328.30999999999995
 21
55.00599999999992
 31
0.0
  0
LINE
  8
0
 62
0
 10
222.86999999999995
 20
74.05599999999991
 30
0.0
 11
222.86999999999995
 21
60.56399999999992
 31
0.0
  0
ARC
  8
0
 62
0
 10
223.12399999999994
 20
60.56399999999992
 30
0.0
 40
0.254
 50
-180.0
 51
-90.0
  0
ARC
  8
0
 62
0
 10
223.12399999999994
 20
74.05599999999991
 30
0.0
 40
0.254
 50
90.0
 51
-180.0
  0
LINE
  8
0
 62
0
 10
223.12399999999994
 20
60.309999999999924
 30
0.0
 11
236.61599999999996
 21
60.309999999999924
 31
0.0
  0
LINE
  8
0
 62
0
 10
236.61599999999996
 20
74.30999999999992
 30
0.0
 11
223.12399999999994
 21
74.30999999999992
 31
0.0
  0
ARC
  8
0
 62
0
 10
236.61599999999996
 20
60.56399999999992
 30
0.0
 40
0.254
 50
-90.0
 51
-0.0
  0
ARC
  8
0
 62
0
 10
236.61599999999996
 20
74.05599999999991
 30
0.0
 40
0.254
 50
-0.0
 51
90.0
  0
LINE
  8
0
 62
0
 10
236.86999999999995
 20
60.56399999999992
 30
0.0
 11
236.86999999999995
 21
74.05599999999991
 31
0.0
  0
LINE
  8
0
 62
0
 10
241.92
 20
74.05600000000001
 30
0.0
 11
241.92
 21
60.56400000000002
 31
0.0
  0
ARC
  8
0
 62
0
 10
242.17399999999998
 20
60.56400000000002
 30
0.0
 40
0.254
 50
-180.0
 51
-90.0
  0
ARC
  8
0
 62
0
 10
242.17399999999998
 20
74.05600000000001
 30
0.0
 40
0.254
 50
90.0
 51
-180.0
  0
LINE
  8
0
 62
0
 10
242.17399999999998
 20
60.310000000000024
 30
0.0
 11
255.666
 21
60.310000000000024
 31
0.0
  0
LINE
  8
0
 62
0
 10
255.666
 20
74.31000000000002
 30
0.0
 11
242.17399999999998
 21
74.31000000000002
 31
0.0
  0
ARC
  8
0
 62
0
 10
255.666
 20
60.56400000000002
 30
0.0
 40
0.254
 50
-90.0
 51
-0.0
  0
ARC
  8
0
 62
0
 10
255.666
 20
74.05600000000001
 30
0.0
 40
0.254
 50
-0.0
 51
90.0
  0
LINE
  8
0
 62
0
 10
255.92
 20
60.56400000000002
 30
0.0
 11
255.92
 21
74.05600000000001
 31
0.0
  0
LINE
  8
0
 62
0
 10
295.2600000000001
 20
74.05600000000005
 30
0.0
 11
295.2600000000001
 21
60.564000000000064
 31
0.0
  0
ARC
  8
0
 62
0
 10
295.5140000000001
 20
60.564000000000064
 30
0.0
 40
0.254
 50
-180.0
 51
-90.0
  0
ARC
  8
0
 62
0
 10
295.5140000000001
 20
74.05600000000005
 30
0.0
 40
0.254
 50
90.0
 51
-180.0
  0
LINE
  8
0
 62
0
 10
295.5140000000001
 20
60.310000000000066
 30
0.0
 11
309.0060000000001
 21
60.310000000000066
 31
0.0
  0
LINE
  8
0
 62
0
 10
309.0060000000001
 20
74.31000000000006
 30
0.0
 11
295.5140000000001
 21
74.31000000000006
 31
0.0
  0
ARC
  8
0
 62
0
 10
309.0060000000001
 20
60.564000000000064
 30
0.0
 40
0.254
 50
-90.0
 51
-0.0
  0
ARC
  8
0
 62
0
 10
309.0060000000001
 20
74.05600000000005
 30
0.0
 40
0.254
 50
-0.0
 51
90.0
  0
LINE
  8
0
 62
0
 10
309.2600000000001
 20
60.564000000000064
 30
0.0
 11
309.2600000000001
 21
74.05600000000005
 31
0.0
  0
LINE
  8
0
 62
0
 10
314.3099999999999
 20
74.05599999999995
 30
0.0
 11
314.3099999999999
 21
60.56399999999996
 31
0.0
  0
ARC
  8
0
 62
0
 10
314.5639999999999
 20
60.56399999999996
 30
0.0
 40
0.254
 50
-180.0
 51
-90.0
  0
ARC
  8
0
 62
0
 10
314.5639999999999
 20
74.05599999999995
 30
0.0
 40
0.254
 50
90.0
 51
-180.0
  0
LINE
  8
0
 62
0
 10
314.5639999999999
 20
60.30999999999996
 30
0.0
 11
328.05599999999987
 21
60.30999999999996
 31
0.0
  0
LINE
  8
0
 62
0
 10
328.05599999999987
 20
74.30999999999996
 30
0.0
 11
314.5639999999999
 21
74.30999999999996
 31
0.0
  0
ARC
  8
0
 62
0
 10
328.05599999999987
 20
60.56399999999996
 30
0.0
 40
0.254
 50
-90.0
 51
-0.0
  0
ARC
  8
0
 62
0
 10
328.05599999999987
 20
74.05599999999995
 30
0.0
 40
0.254
 50
-0.0
 51
90.0
  0
LINE
  8
0
 62
0
 10
328.3099999999999
 20
60.56399999999996
 30
0.0
 11
328.3099999999999
 21
74.05599999999995
 31
0.0
  0
CIRCLE
  8
0
 62
0
 10
340.36
 20
38.735
 30
0.0
 40
1.65
  0
LINE
  8
0
 62
0
 10
358.76000000000005
 20
55.00600000000012
 30
0.0
 11
358.76000000000005
 21
41.51400000000012
 31
0.0
  0
ARC
  8
0
 62
0
 10
359.01400000000007
 20
41.51400000000012
 30
0.0
 40
0.254
 50
-180.0
 51
-90.0
  0
ARC
  8
0
 62
0
 10
359.01400000000007
 20
55.00600000000012
 30
0.0
 40
0.254
 50
90.0
 51
-180.0
  0
LINE
  8
0
 62
0
 10
359.01400000000007
 20
41.26000000000012
 30
0.0
 11
372.50600000000003
 21
41.26000000000012
 31
0.0
  0
LINE
  8
0
 62
0
 10
372.50600000000003
 20
55.26000000000012
 30
0.0
 11
359.01400000000007
 21
55.26000000000012
 31
0.0
  0
ARC
  8
0
 62
0
 10
372.50600000000003
 20
41.51400000000012
 30
0.0
 40
0.254
 50
-90.0
 51
-0.0
  0
ARC
  8
0
 62
0
 10
372.50600000000003
 20
55.00600000000012
 30
0.0
 40
0.254
 50
-0.0
 51
90.0
  0
LINE
  8
0
 62
0
 10
372.76000000000005
 20
41.51400000000012
 30
0.0
 11
372.76000000000005
 21
55.00600000000012
 31
0.0
  0
CIRCLE
  8
0
 62
0
 10
419.1
 20
38.735
 30
0.0
 40
1.65
  0
LINE
  8
0
 62
0
 10
377.80999999999983
 20
55.00600000000002
 30
0.0
 11
377.80999999999983
 21
41.51400000000002
 31
0.0
  0
ARC
  8
0
 62
0
 10
378.06399999999985
 20
41.51400000000002
 30
0.0
 40
0.254
 50
-180.0
 51
-90.0
  0
ARC
  8
0
 62
0
 10
378.06399999999985
 20
55.00600000000002
 30
0.0
 40
0.254
 50
90.0
 51
-180.0
  0
LINE
  8
0
 62
0
 10
378.06399999999985
 20
41.26000000000002
 30
0.0
 11
391.5559999999998
 21
41.26000000000002
 31
0.0
  0
LINE
  8
0
 62
0
 10
391.5559999999998
 20
55.26000000000002
 30
0.0
 11
378.06399999999985
 21
55.26000000000002
 31
0.0
  0
ARC
  8
0
 62
0
 10
391.5559999999998
 20
41.51400000000002
 30
0.0
 40
0.254
 50
-90.0
 51
-0.0
  0
ARC
  8
0
 62
0
 10
391.5559999999998
 20
55.00600000000002
 30
0.0
 40
0.254
 50
-0.0
 51
90.0
  0
LINE
  8
0
 62
0
 10
391.80999999999983
 20
41.51400000000002
 30
0.0
 11
391.80999999999983
 21
55.00600000000002
 31
0.0
  0
LINE
  8
0
 62
0
 10
396.86000000000007
 20
55.006000000000206
 30
0.0
 11
396.86000000000007
 21
41.5140000000002
 31
0.0
  0
ARC
  8
0
 62
0
 10
397.1140000000001
 20
41.5140000000002
 30
0.0
 40
0.254
 50
-180.0
 51
-90.0
  0
ARC
  8
0
 62
0
 10
397.1140000000001
 20
55.006000000000206
 30
0.0
 40
0.254
 50
90.0
 51
-180.0
  0
LINE
  8
0
 62
0
 10
397.1140000000001
 20
41.260000000000204
 30
0.0
 11
410.60600000000005
 21
41.260000000000204
 31
0.0
  0
LINE
  8
0
 62
0
 10
410.60600000000005
 20
55.260000000000204
 30
0.0
 11
397.1140000000001
 21
55.260000000000204
 31
0.0
  0
ARC
  8
0
 62
0
 10
410.60600000000005
 20
41.5140000000002
 30
0.0
 40
0.254
 50
-90.0
 51
-0.0
  0
ARC
  8
0
 62
0
 10
410.60600000000005
 20
55.006000000000206
 30
0.0
 40
0.254
 50
-0.0
 51
90.0
  0
LINE
  8
0
 62
0
 10
410.86000000000007
 20
41.5140000000002
 30
0.0
 11
410.86000000000007
 21
55.006000000000206
 31
0.0
  0
LINE
  8
0
 62
0
 10
333.3599999999998
 20
74.05600000000001
 30
0.0
 11
333.3599999999998
 21
60.564000000000014
 31
0.0
  0
ARC
  8
0
 62
0
 10
333.6139999999998
 20
60.564000000000014
 30
0.0
 40
0.254
 50
-180.0
 51
-90.0
  0
ARC
  8
0
 62
0
 10
333.6139999999998
 20
74.05600000000001
 30
0.0
 40
0.254
 50
90.0
 51
-180.0
  0
LINE
  8
0
 62
0
 10
333.6139999999998
 20
60.31000000000002
 30
0.0
 11
347.10599999999977
 21
60.31000000000002
 31
0.0
  0
LINE
  8
0
 62
0
 10
347.10599999999977
 20
74.31000000000002
 30
0.0
 11
333.6139999999998
 21
74.31000000000002
 31
0.0
  0
ARC
  8
0
 62
0
 10
347.10599999999977
 20
60.564000000000014
 30
0.0
 40
0.254
 50
-90.0
 51
-0.0
  0
ARC
  8
0
 62
0
 10
347.10599999999977
 20
74.05600000000001
 30
0.0
 40
0.254
 50
-0.0
 51
90.0
  0
LINE
  8
0
 62
0
 10
347.3599999999998
 20
60.564000000000014
 30
0.0
 11
347.3599999999998
 21
74.05600000000001
 31
0.0
  0
LINE
  8
0
 62
0
 10
358.75999999999993
 20
74.05600000000004
 30
0.0
 11
358.75999999999993
 21
60.56400000000005
 31
0.0
  0
ARC
  8
0
 62
0
 10
359.01399999999995
 20
60.56400000000005
 30
0.0
 40
0.254
 50
-180.0
 51
-90.0
  0
ARC
  8
0
 62
0
 10
359.01399999999995
 20
74.05600000000004
 30
0.0
 40
0.254
 50
90.0
 51
-180.0
  0
LINE
  8
0
 62
0
 10
359.01399999999995
 20
60.31000000000005
 30
0.0
 11
372.5059999999999
 21
60.31000000000005
 31
0.0
  0
LINE
  8
0
 62
0
 10
372.5059999999999
 20
74.31000000000004
 30
0.0
 11
359.01399999999995
 21
74.31000000000004
 31
0.0
  0
ARC
  8
0
 62
0
 10
372.5059999999999
 20
60.56400000000005
 30
0.0
 40
0.254
 50
-90.0
 51
-0.0
  0
ARC
  8
0
 62
0
 10
372.5059999999999
 20
74.05600000000004
 30
0.0
 40
0.254
 50
-0.0
 51
90.0
  0
LINE
  8
0
 62
0
 10
372.75999999999993
 20
60.56400000000005
 30
0.0
 11
372.75999999999993
 21
74.05600000000004
 31
0.0
  0
LINE
  8
0
 62
0
 10
377.80999999999983
 20
74.05600000000007
 30
0.0
 11
377.80999999999983
 21
60.56400000000007
 31
0.0
  0
ARC
  8
0
 62
0
 10
378.06399999999985
 20
60.56400000000007
 30
0.0
 40
0.254
 50
-180.0
 51
-90.0
  0
ARC
  8
0
 62
0
 10
378.06399999999985
 20
74.05600000000007
 30
0.0
 40
0.254
 50
90.0
 51
-180.0
  0
LINE
  8
0
 62
0
 10
378.06399999999985
 20
60.31000000000007
 30
0.0
 11
391.5559999999998
 21
60.31000000000007
 31
0.0
  0
LINE
  8
0
 62
0
 10
391.5559999999998
 20
74.31000000000007
 30
0.0
 11
378.06399999999985
 21
74.31000000000007
 31
0.0
  0
ARC
  8
0
 62
0
 10
391.5559999999998
 20
60.56400000000007
 30
0.0
 40
0.254
 50
-90.0
 51
-0.0
  0
ARC
  8
0
 62
0
 10
391.5559999999998
 20
74.05600000000007
 30
0.0
 40
0.254
 50
-0.0
 51
90.0
  0
LINE
  8
0
 62
0
 10
391.80999999999983
 20
60.56400000000007
 30
0.0
 11
391.80999999999983
 21
74.05600000000007
 31
0.0
  0
LINE
  8
0
 62
0
 10
396.8599999999998
 20
74.05599999999994
 30
0.0
 11
396.8599999999998
 21
60.56399999999994
 31
0.0
  0
ARC
  8
0
 62
0
 10
397.1139999999998
 20
60.56399999999994
 30
0.0
 40
0.254
 50
-180.0
 51
-90.0
  0
ARC
  8
0
 62
0
 10
397.1139999999998
 20
74.05599999999994
 30
0.0
 40
0.254
 50
90.0
 51
-180.0
  0
LINE
  8
0
 62
0
 10
397.1139999999998
 20
60.309999999999945
 30
0.0
 11
410.60599999999977
 21
60.309999999999945
 31
0.0
  0
LINE
  8
0
 62
0
 10
410.60599999999977
 20
74.30999999999995
 30
0.0
 11
397.1139999999998
 21
74.30999999999995
 31
0.0
  0
ARC
  8
0
 62
0
 10
410.60599999999977
 20
60.56399999999994
 30
0.0
 40
0.254
 50
-90.0
 51
-0.0
  0
ARC
  8
0
 62
0
 10
410.60599999999977
 20
74.05599999999994
 30
0.0
 40
0.254
 50
-0.0
 51
90.0
  0
LINE
  8
0
 62
0
 10
410.8599999999998
 20
60.56399999999994
 30
0.0
 11
410.8599999999998
 21
74.05599999999994
 31
0.0
  0
LINE
  8
0
 62
0
 10
3.160000000000002
 20
93.106
 30
0.0
 11
3.160000000000002
 21
79.614
 31
0.0
  0
ARC
  8
0
 62
0
 10
3.414000000000002
 20
79.614
 30
0.0
 40
0.254
 50
-180.0
 51
-89.9999999999985
  0
ARC
  8
0
 62
0
 10
3.414000000000002
 20
93.106
 30
0.0
 40
0.254
 50
89.9999999999985
 51
-180.0
  0
LINE
  8
0
 62
0
 10
3.414000000000007
 20
79.36
 30
0.0
 11
16.906000000000006
 21
79.36
 31
0.0
  0
LINE
  8
0
 62
0
 10
16.906000000000002
 20
93.36
 30
0.0
 11
3.414000000000005
 21
93.36
 31
0.0
  0
ARC
  8
0
 62
0
 10
16.906
 20
79.614
 30
0.0
 40
0.254
 50
-89.9999999999992
 51
-0.0
  0
ARC
  8
0
 62
0
 10
16.906
 20
93.106
 30
0.0
 40
0.254
 50
-0.0
 51
89.9999999999992
  0
LINE
  8
0
 62
0
 10
17.16
 20
79.614
 30
0.0
 11
17.16
 21
93.106
 31
0.0
  0
LINE
  8
0
 62
0
 10
22.210000000000004
 20
93.10600000000001
 30
0.0
 11
22.210000000000004
 21
79.61400000000002
 31
0.0
  0
ARC
  8
0
 62
0
 10
22.464000000000006
 20
79.61400000000002
 30
0.0
 40
0.254
 50
-180.0
 51
-90.0000000000008
  0
ARC
  8
0
 62
0
 10
22.464000000000006
 20
93.10600000000001
 30
0.0
 40
0.254
 50
90.0000000000008
 51
-180.0
  0
LINE
  8
0
 62
0
 10
22.464000000000002
 20
79.36000000000001
 30
0.0
 11
35.956
 21
79.36000000000001
 31
0.0
  0
LINE
  8
0
 62
0
 10
35.955999999999996
 20
93.36000000000001
 30
0.0
 11
22.464
 21
93.36000000000001
 31
0.0
  0
ARC
  8
0
 62
0
 10
35.956
 20
79.61400000000002
 30
0.0
 40
0.254
 50
-89.9999999999984
 51
-0.0
  0
ARC
  8
0
 62
0
 10
35.956
 20
93.10600000000001
 30
0.0
 40
0.254
 50
-0.0
 51
90.0000000000016
  0
LINE
  8
0
 62
0
 10
36.21
 20
79.61400000000002
 30
0.0
 11
36.21
 21
93.10600000000001
 31
0.0
  0
LINE
  8
0
 62
0
 10
41.25999999999997
 20
93.10599999999998
 30
0.0
 11
41.25999999999997
 21
79.61399999999999
 31
0.0
  0
ARC
  8
0
 62
0
 10
41.51399999999997
 20
79.61399999999999
 30
0.0
 40
0.254
 50
-180.0
 51
-89.9999999999984
  0
ARC
  8
0
 62
0
 10
41.51399999999997
 20
93.10599999999998
 30
0.0
 40
0.254
 50
89.9999999999984
 51
-180.0
  0
LINE
  8
0
 62
0
 10
41.513999999999974
 20
79.35999999999999
 30
0.0
 11
55.00599999999998
 21
79.35999999999999
 31
0.0
  0
LINE
  8
0
 62
0
 10
55.00599999999998
 20
93.35999999999999
 30
0.0
 11
41.513999999999974
 21
93.35999999999999
 31
0.0
  0
ARC
  8
0
 62
0
 10
55.00599999999997
 20
79.61399999999999
 30
0.0
 40
0.254
 50
-90.0
 51
-0.0
  0
ARC
  8
0
 62
0
 10
55.00599999999997
 20
93.10599999999998
 30
0.0
 40
0.254
 50
-0.0
 51
90.0
  0
LINE
  8
0
 62
0
 10
55.25999999999997
 20
79.61399999999999
 30
0.0
 11
55.25999999999997
 21
93.10599999999998
 31
0.0
  0
LINE
  8
0
 62
0
 10
60.30999999999998
 20
93.10599999999995
 30
0.0
 11
60.30999999999998
 21
79.61399999999996
 31
0.0
  0
ARC
  8
0
 62
0
 10
60.56399999999998
 20
79.61399999999996
 30
0.0
 40
0.254
 50
-180.0
 51
-89.9999999999984
  0
ARC
  8
0
 62
0
 10
60.56399999999998
 20
93.10599999999995
 30
0.0
 40
0.254
 50
89.9999999999984
 51
-180.0
  0
LINE
  8
0
 62
0
 10
60.563999999999986
 20
79.35999999999996
 30
0.0
 11
74.05599999999998
 21
79.35999999999996
 31
0.0
  0
LINE
  8
0
 62
0
 10
74.056
 20
93.35999999999996
 30
0.0
 11
60.56399999999999
 21
93.35999999999996
 31
0.0
  0
ARC
  8
0
 62
0
 10
74.05599999999998
 20
79.61399999999996
 30
0.0
 40
0.254
 50
-90.0
 51
-0.0
  0
ARC
  8
0
 62
0
 10
74.05599999999998
 20
93.10599999999995
 30
0.0
 40
0.254
 50
-0.0
 51
90.0
  0
LINE
  8
0
 62
0
 10
74.30999999999999
 20
79.61399999999996
 30
0.0
 11
74.30999999999999
 21
93.10599999999995
 31
0.0
  0
LINE
  8
0
 62
0
 10
79.36
 20
93.10600000000005
 30
0.0
 11
79.36
 21
79.61400000000006
 31
0.0
  0
ARC
  8
0
 62
0
 10
79.614
 20
79.61400000000006
 30
0.0
 40
0.254
 50
-180.0
 51
-90.0
  0
ARC
  8
0
 62
0
 10
79.614
 20
93.10600000000005
 30
0.0
 40
0.254
 50
90.0
 51
-180.0
  0
LINE
  8
0
 62
0
 10
79.61400000000002
 20
79.36000000000006
 30
0.0
 11
93.10600000000001
 21
79.36000000000006
 31
0.0
  0
LINE
  8
0
 62
0
 10
93.106
 20
93.36000000000006
 30
0.0
 11
79.614
 21
93.36000000000006
 31
0.0
  0
ARC
  8
0
 62
0
 10
93.106
 20
79.61400000000006
 30
0.0
 40
0.254
 50
-90.0
 51
-0.0
  0
ARC
  8
0
 62
0
 10
93.106
 20
93.10600000000005
 30
0.0
 40
0.254
 50
-0.0
 51
90.0
  0
LINE
  8
0
 62
0
 10
93.36
 20
79.61400000000006
 30
0.0
 11
93.36
 21
93.10600000000005
 31
0.0
  0
LINE
  8
0
 62
0
 10
98.41
 20
93.10599999999998
 30
0.0
 11
98.41
 21
79.61399999999999
 31
0.0
  0
ARC
  8
0
 62
0
 10
98.664
 20
79.61399999999999
 30
0.0
 40
0.254
 50
-180.0
 51
-90.0
  0
ARC
  8
0
 62
0
 10
98.664
 20
93.10599999999998
 30
0.0
 40
0.254
 50
90.0
 51
-180.0
  0
LINE
  8
0
 62
0
 10
98.664
 20
79.35999999999999
 30
0.0
 11
112.15599999999999
 21
79.35999999999999
 31
0.0
  0
LINE
  8
0
 62
0
 10
112.15599999999999
 20
93.35999999999999
 30
0.0
 11
98.664
 21
93.35999999999999
 31
0.0
  0
ARC
  8
0
 62
0
 10
112.15599999999999
 20
79.61399999999999
 30
0.0
 40
0.254
 50
-90.0
 51
-0.0
  0
ARC
  8
0
 62
0
 10
112.15599999999999
 20
93.10599999999998
 30
0.0
 40
0.254
 50
-0.0
 51
90.0
  0
LINE
  8
0
 62
0
 10
112.41
 20
79.61399999999999
 30
0.0
 11
112.41
 21
93.10599999999998
 31
0.0
  0
LINE
  8
0
 62
0
 10
117.46000000000004
 20
93.10600000000002
 30
0.0
 11
117.46000000000004
 21
79.61400000000003
 31
0.0
  0
ARC
  8
0
 62
0
 10
117.71400000000004
 20
79.61400000000003
 30
0.0
 40
0.254
 50
-180.0
 51
-90.0
  0
ARC
  8
0
 62
0
 10
117.71400000000004
 20
93.10600000000002
 30
0.0
 40
0.254
 50
90.0
 51
-180.0
  0
LINE
  8
0
 62
0
 10
117.71400000000004
 20
79.36000000000003
 30
0.0
 11
131.20600000000005
 21
79.36000000000003
 31
0.0
  0
LINE
  8
0
 62
0
 10
131.20600000000005
 20
93.36000000000003
 30
0.0
 11
117.71400000000004
 21
93.36000000000003
 31
0.0
  0
ARC
  8
0
 62
0
 10
131.20600000000005
 20
79.61400000000003
 30
0.0
 40
0.254
 50
-90.0
 51
-0.0
  0
ARC
  8
0
 62
0
 10
131.20600000000005
 20
93.10600000000002
 30
0.0
 40
0.254
 50
-0.0
 51
90.0
  0
LINE
  8
0
 62
0
 10
131.46000000000004
 20
79.61400000000003
 30
0.0
 11
131.46000000000004
 21
93.10600000000002
 31
0.0
  0
LINE
  8
0
 62
0
 10
136.51000000000005
 20
93.10600000000002
 30
0.0
 11
136.51000000000005
 21
79.61400000000003
 31
0.0
  0
ARC
  8
0
 62
0
 10
136.76400000000004
 20
79.61400000000003
 30
0.0
 40
0.254
 50
-180.0
 51
-90.0
  0
ARC
  8
0
 62
0
 10
136.76400000000004
 20
93.10600000000002
 30
0.0
 40
0.254
 50
90.0
 51
-180.0
  0
LINE
  8
0
 62
0
 10
136.76400000000004
 20
79.36000000000003
 30
0.0
 11
150.25600000000006
 21
79.36000000000003
 31
0.0
  0
LINE
  8
0
 62
0
 10
150.25600000000006
 20
93.36000000000003
 30
0.0
 11
136.76400000000004
 21
93.36000000000003
 31
0.0
  0
ARC
  8
0
 62
0
 10
150.25600000000006
 20
79.61400000000003
 30
0.0
 40
0.254
 50
-90.0
 51
-0.0
  0
ARC
  8
0
 62
0
 10
150.25600000000006
 20
93.10600000000002
 30
0.0
 40
0.254
 50
-0.0
 51
90.0
  0
LINE
  8
0
 62
0
 10
150.51000000000005
 20
79.61400000000003
 30
0.0
 11
150.51000000000005
 21
93.10600000000002
 31
0.0
  0
LINE
  8
0
 62
0
 10
155.55999999999995
 20
93.10599999999995
 30
0.0
 11
155.55999999999995
 21
79.61399999999996
 31
0.0
  0
ARC
  8
0
 62
0
 10
155.81399999999994
 20
79.61399999999996
 30
0.0
 40
0.254
 50
-180.0
 51
-90.0
  0
ARC
  8
0
 62
0
 10
155.81399999999994
 20
93.10599999999995
 30
0.0
 40
0.254
 50
90.0
 51
-180.0
  0
LINE
  8
0
 62
0
 10
155.81399999999994
 20
79.35999999999996
 30
0.0
 11
169.30599999999995
 21
79.35999999999996
 31
0.0
  0
LINE
  8
0
 62
0
 10
169.30599999999995
 20
93.35999999999996
 30
0.0
 11
155.81399999999994
 21
93.35999999999996
 31
0.0
  0
ARC
  8
0
 62
0
 10
169.30599999999995
 20
79.61399999999996
 30
0.0
 40
0.254
 50
-90.0
 51
-0.0
  0
ARC
  8
0
 62
0
 10
169.30599999999995
 20
93.10599999999995
 30
0.0
 40
0.254
 50
-0.0
 51
90.0
  0
LINE
  8
0
 62
0
 10
169.55999999999995
 20
79.61399999999996
 30
0.0
 11
169.55999999999995
 21
93.10599999999995
 31
0.0
  0
LINE
  8
0
 62
0
 10
174.60999999999993
 20
93.10599999999998
 30
0.0
 11
174.60999999999993
 21
79.61399999999999
 31
0.0
  0
ARC
  8
0
 62
0
 10
174.86399999999992
 20
79.61399999999999
 30
0.0
 40
0.254
 50
-180.0
 51
-90.0
  0
ARC
  8
0
 62
0
 10
174.86399999999992
 20
93.10599999999998
 30
0.0
 40
0.254
 50
90.0
 51
-180.0
  0
LINE
  8
0
 62
0
 10
174.86399999999992
 20
79.35999999999999
 30
0.0
 11
188.35599999999994
 21
79.35999999999999
 31
0.0
  0
LINE
  8
0
 62
0
 10
188.35599999999994
 20
93.35999999999999
 30
0.0
 11
174.86399999999992
 21
93.35999999999999
 31
0.0
  0
ARC
  8
0
 62
0
 10
188.35599999999994
 20
79.61399999999999
 30
0.0
 40
0.254
 50
-90.0
 51
-0.0
  0
ARC
  8
0
 62
0
 10
188.35599999999994
 20
93.10599999999998
 30
0.0
 40
0.254
 50
-0.0
 51
90.0
  0
LINE
  8
0
 62
0
 10
188.60999999999993
 20
79.61399999999999
 30
0.0
 11
188.60999999999993
 21
93.10599999999998
 31
0.0
  0
LINE
  8
0
 62
0
 10
193.66000000000005
 20
93.10600000000011
 30
0.0
 11
193.66000000000005
 21
79.61400000000012
 31
0.0
  0
ARC
  8
0
 62
0
 10
193.91400000000004
 20
79.61400000000012
 30
0.0
 40
0.254
 50
-180.0
 51
-90.0
  0
ARC
  8
0
 62
0
 10
193.91400000000004
 20
93.10600000000011
 30
0.0
 40
0.254
 50
90.0
 51
-180.0
  0
LINE
  8
0
 62
0
 10
193.91400000000004
 20
79.36000000000011
 30
0.0
 11
207.40600000000006
 21
79.36000000000011
 31
0.0
  0
LINE
  8
0
 62
0
 10
207.40600000000006
 20
93.36000000000011
 30
0.0
 11
193.91400000000004
 21
93.36000000000011
 31
0.0
  0
ARC
  8
0
 62
0
 10
207.40600000000006
 20
79.61400000000012
 30
0.0
 40
0.254
 50
-90.0
 51
-0.0
  0
ARC
  8
0
 62
0
 10
207.40600000000006
 20
93.10600000000011
 30
0.0
 40
0.254
 50
-0.0
 51
90.0
  0
LINE
  8
0
 62
0
 10
207.66000000000005
 20
79.61400000000012
 30
0.0
 11
207.66000000000005
 21
93.10600000000011
 31
0.0
  0
CIRCLE
  8
0
 62
0
 10
172.085
 20
99.69500000000001
 30
0.0
 40
1.65
  0
CIRCLE
  8
0
 62
0
 10
5.715
 20
101.6
 30
0.0
 40
1.65
  0
LINE
  8
0
 62
0
 10
3.1599999999999984
 20
123.586
 30
0.0
 11
3.1599999999999984
 21
110.09400000000001
 31
0.0
  0
ARC
  8
0
 62
0
 10
3.4139999999999984
 20
110.09400000000001
 30
0.0
 40
0.254
 50
-180.0
 51
-90.00000000000131
  0
ARC
  8
0
 62
0
 10
3.4139999999999984
 20
123.586
 30
0.0
 40
0.254
 50
90.00000000000131
 51
-180.0
  0
LINE
  8
0
 62
0
 10
3.4140000000000006
 20
109.84
 30
0.0
 11
16.906
 21
109.84
 31
0.0
  0
LINE
  8
0
 62
0
 10
16.906000000000002
 20
123.84
 30
0.0
 11
3.4140000000000015
 21
123.84
 31
0.0
  0
ARC
  8
0
 62
0
 10
16.906
 20
110.09400000000001
 30
0.0
 40
0.254
 50
-89.9999999999992
 51
-0.0
  0
ARC
  8
0
 62
0
 10
16.906
 20
123.586
 30
0.0
 40
0.254
 50
-0.0
 51
89.9999999999992
  0
LINE
  8
0
 62
0
 10
17.16
 20
110.09400000000001
 30
0.0
 11
17.16
 21
123.586
 31
0.0
  0
LINE
  8
0
 62
0
 10
41.259999999999984
 20
123.586
 30
0.0
 11
41.259999999999984
 21
110.09400000000001
 31
0.0
  0
ARC
  8
0
 62
0
 10
41.51399999999998
 20
110.09400000000001
 30
0.0
 40
0.254
 50
-180.0
 51
-90.0
  0
ARC
  8
0
 62
0
 10
41.51399999999998
 20
123.586
 30
0.0
 40
0.254
 50
90.0
 51
-180.0
  0
LINE
  8
0
 62
0
 10
41.513999999999974
 20
109.84
 30
0.0
 11
55.00599999999998
 21
109.84
 31
0.0
  0
LINE
  8
0
 62
0
 10
55.00599999999998
 20
123.84
 30
0.0
 11
41.513999999999974
 21
123.84
 31
0.0
  0
ARC
  8
0
 62
0
 10
55.005999999999986
 20
110.09400000000001
 30
0.0
 40
0.254
 50
-89.9999999999984
 51
-0.0
  0
ARC
  8
0
 62
0
 10
55.005999999999986
 20
123.586
 30
0.0
 40
0.254
 50
-0.0
 51
89.9999999999984
  0
LINE
  8
0
 62
0
 10
55.259999999999984
 20
110.09400000000001
 30
0.0
 11
55.259999999999984
 21
123.586
 31
0.0
  0
LINE
  8
0
 62
0
 10
60.31000000000001
 20
123.58599999999997
 30
0.0
 11
60.31000000000001
 21
110.09399999999998
 31
0.0
  0
ARC
  8
0
 62
0
 10
60.56400000000001
 20
110.09399999999998
 30
0.0
 40
0.254
 50
-180.0
 51
-90.0000000000016
  0
ARC
  8
0
 62
0
 10
60.56400000000001
 20
123.58599999999997
 30
0.0
 40
0.254
 50
90.0000000000016
 51
-180.0
  0
LINE
  8
0
 62
0
 10
60.564000000000014
 20
109.83999999999997
 30
0.0
 11
74.05600000000001
 21
109.83999999999997
 31
0.0
  0
LINE
  8
0
 62
0
 10
74.056
 20
123.83999999999997
 30
0.0
 11
60.56399999999999
 21
123.83999999999997
 31
0.0
  0
ARC
  8
0
 62
0
 10
74.05600000000001
 20
110.09399999999998
 30
0.0
 40
0.254
 50
-90.0
 51
-0.0
  0
ARC
  8
0
 62
0
 10
74.05600000000001
 20
123.58599999999997
 30
0.0
 40
0.254
 50
-0.0
 51
90.0
  0
LINE
  8
0
 62
0
 10
74.31000000000002
 20
110.09399999999998
 30
0.0
 11
74.31000000000002
 21
123.58599999999997
 31
0.0
  0
LINE
  8
0
 62
0
 10
79.35999999999996
 20
123.58600000000003
 30
0.0
 11
79.35999999999996
 21
110.09400000000004
 31
0.0
  0
ARC
  8
0
 62
0
 10
79.61399999999996
 20
110.09400000000004
 30
0.0
 40
0.254
 50
-180.0
 51
-90.00000000000321
  0
ARC
  8
0
 62
0
 10
79.61399999999996
 20
123.58600000000003
 30
0.0
 40
0.254
 50
90.00000000000321
 51
-180.0
  0
LINE
  8
0
 62
0
 10
79.61399999999996
 20
109.84000000000003
 30
0.0
 11
93.10599999999995
 21
109.84000000000003
 31
0.0
  0
LINE
  8
0
 62
0
 10
93.10599999999995
 20
123.84000000000003
 30
0.0
 11
79.61399999999996
 21
123.84000000000003
 31
0.0
  0
ARC
  8
0
 62
0
 10
93.10599999999995
 20
110.09400000000004
 30
0.0
 40
0.254
 50
-90.0
 51
-0.0
  0
ARC
  8
0
 62
0
 10
93.10599999999995
 20
123.58600000000003
 30
0.0
 40
0.254
 50
-0.0
 51
90.0
  0
LINE
  8
0
 62
0
 10
93.35999999999996
 20
110.09400000000004
 30
0.0
 11
93.35999999999996
 21
123.58600000000003
 31
0.0
  0
LINE
  8
0
 62
0
 10
98.41000000000003
 20
123.58599999999984
 30
0.0
 11
98.41000000000003
 21
110.09399999999985
 31
0.0
  0
ARC
  8
0
 62
0
 10
98.66400000000003
 20
110.09399999999985
 30
0.0
 40
0.254
 50
-180.0
 51
-90.0
  0
ARC
  8
0
 62
0
 10
98.66400000000003
 20
123.58599999999984
 30
0.0
 40
0.254
 50
90.0
 51
-180.0
  0
LINE
  8
0
 62
0
 10
98.66400000000003
 20
109.83999999999985
 30
0.0
 11
112.15600000000002
 21
109.83999999999985
 31
0.0
  0
LINE
  8
0
 62
0
 10
112.15600000000002
 20
123.83999999999985
 30
0.0
 11
98.66400000000003
 21
123.83999999999985
 31
0.0
  0
ARC
  8
0
 62
0
 10
112.15600000000002
 20
110.09399999999985
 30
0.0
 40
0.254
 50
-90.0
 51
-0.0
  0
ARC
  8
0
 62
0
 10
112.15600000000002
 20
123.58599999999984
 30
0.0
 40
0.254
 50
-0.0
 51
90.0
  0
LINE
  8
0
 62
0
 10
112.41000000000003
 20
110.09399999999985
 30
0.0
 11
112.41000000000003
 21
123.58599999999984
 31
0.0
  0
LINE
  8
0
 62
0
 10
126.35000000000011
 20
123.58600000000006
 30
0.0
 11
126.35000000000011
 21
110.09400000000007
 31
0.0
  0
ARC
  8
0
 62
0
 10
126.60400000000011
 20
110.09400000000007
 30
0.0
 40
0.254
 50
-180.0
 51
-90.0
  0
ARC
  8
0
 62
0
 10
126.60400000000011
 20
123.58600000000006
 30
0.0
 40
0.254
 50
90.0
 51
-180.0
  0
LINE
  8
0
 62
0
 10
126.60400000000011
 20
109.84000000000006
 30
0.0
 11
140.09600000000012
 21
109.84000000000006
 31
0.0
  0
LINE
  8
0
 62
0
 10
140.09600000000012
 20
123.84000000000006
 30
0.0
 11
126.60400000000011
 21
123.84000000000006
 31
0.0
  0
ARC
  8
0
 62
0
 10
140.09600000000012
 20
110.09400000000007
 30
0.0
 40
0.254
 50
-90.0
 51
-0.0
  0
ARC
  8
0
 62
0
 10
140.09600000000012
 20
123.58600000000006
 30
0.0
 40
0.254
 50
-0.0
 51
90.0
  0
LINE
  8
0
 62
0
 10
140.3500000000001
 20
110.09400000000007
 30
0.0
 11
140.3500000000001
 21
123.58600000000006
 31
0.0
  0
LINE
  8
0
 62
0
 10
145.39999999999995
 20
123.58600000000013
 30
0.0
 11
145.39999999999995
 21
110.09400000000014
 31
0.0
  0
ARC
  8
0
 62
0
 10
145.65399999999994
 20
110.09400000000014
 30
0.0
 40
0.254
 50
-180.0
 51
-90.0
  0
ARC
  8
0
 62
0
 10
145.65399999999994
 20
123.58600000000013
 30
0.0
 40
0.254
 50
90.0
 51
-180.0
  0
LINE
  8
0
 62
0
 10
145.65399999999994
 20
109.84000000000013
 30
0.0
 11
159.14599999999996
 21
109.84000000000013
 31
0.0
  0
LINE
  8
0
 62
0
 10
159.14599999999996
 20
123.84000000000013
 30
0.0
 11
145.65399999999994
 21
123.84000000000013
 31
0.0
  0
ARC
  8
0
 62
0
 10
159.14599999999996
 20
110.09400000000014
 30
0.0
 40
0.254
 50
-90.0
 51
-0.0
  0
ARC
  8
0
 62
0
 10
159.14599999999996
 20
123.58600000000013
 30
0.0
 40
0.254
 50
-0.0
 51
90.0
  0
LINE
  8
0
 62
0
 10
159.39999999999995
 20
110.09400000000014
 30
0.0
 11
159.39999999999995
 21
123.58600000000013
 31
0.0
  0
LINE
  8
0
 62
0
 10
164.44999999999982
 20
123.58599999999996
 30
0.0
 11
164.44999999999982
 21
110.09399999999997
 31
0.0
  0
ARC
  8
0
 62
0
 10
164.7039999999998
 20
110.09399999999997
 30
0.0
 40
0.254
 50
-180.0
 51
-90.0
  0
ARC
  8
0
 62
0
 10
164.7039999999998
 20
123.58599999999996
 30
0.0
 40
0.254
 50
90.0
 51
-180.0
  0
LINE
  8
0
 62
0
 10
164.7039999999998
 20
109.83999999999996
 30
0.0
 11
178.19599999999983
 21
109.83999999999996
 31
0.0
  0
LINE
  8
0
 62
0
 10
178.19599999999983
 20
123.83999999999996
 30
0.0
 11
164.7039999999998
 21
123.83999999999996
 31
0.0
  0
ARC
  8
0
 62
0
 10
178.19599999999983
 20
110.09399999999997
 30
0.0
 40
0.254
 50
-90.0
 51
-0.0
  0
ARC
  8
0
 62
0
 10
178.19599999999983
 20
123.58599999999996
 30
0.0
 40
0.254
 50
-0.0
 51
90.0
  0
LINE
  8
0
 62
0
 10
178.44999999999982
 20
110.09399999999997
 30
0.0
 11
178.44999999999982
 21
123.58599999999996
 31
0.0
  0
LINE
  8
0
 62
0
 10
183.49999999999997
 20
123.58600000000004
 30
0.0
 11
183.49999999999997
 21
110.09400000000005
 31
0.0
  0
ARC
  8
0
 62
0
 10
183.75399999999996
 20
110.09400000000005
 30
0.0
 40
0.254
 50
-180.0
 51
-90.0
  0
ARC
  8
0
 62
0
 10
183.75399999999996
 20
123.58600000000004
 30
0.0
 40
0.254
 50
90.0
 51
-180.0
  0
LINE
  8
0
 62
0
 10
183.75399999999996
 20
109.84000000000005
 30
0.0
 11
197.24599999999998
 21
109.84000000000005
 31
0.0
  0
LINE
  8
0
 62
0
 10
197.24599999999998
 20
123.84000000000005
 30
0.0
 11
183.75399999999996
 21
123.84000000000005
 31
0.0
  0
ARC
  8
0
 62
0
 10
197.24599999999998
 20
110.09400000000005
 30
0.0
 40
0.254
 50
-90.0
 51
-0.0
  0
ARC
  8
0
 62
0
 10
197.24599999999998
 20
123.58600000000004
 30
0.0
 40
0.254
 50
-0.0
 51
90.0
  0
LINE
  8
0
 62
0
 10
197.49999999999997
 20
110.09400000000005
 30
0.0
 11
197.49999999999997
 21
123.58600000000004
 31
0.0
  0
LINE
  8
0
 62
0
 10
212.71000000000004
 20
93.10600000000011
 30
0.0
 11
212.71000000000004
 21
79.61400000000012
 31
0.0
  0
ARC
  8
0
 62
0
 10
212.96400000000003
 20
79.61400000000012
 30
0.0
 40
0.254
 50
-180.0
 51
-90.0
  0
ARC
  8
0
 62
0
 10
212.96400000000003
 20
93.10600000000011
 30
0.0
 40
0.254
 50
90.0
 51
-180.0
  0
LINE
  8
0
 62
0
 10
212.96400000000003
 20
79.36000000000011
 30
0.0
 11
226.45600000000005
 21
79.36000000000011
 31
0.0
  0
LINE
  8
0
 62
0
 10
226.45600000000005
 20
93.36000000000011
 30
0.0
 11
212.96400000000003
 21
93.36000000000011
 31
0.0
  0
ARC
  8
0
 62
0
 10
226.45600000000005
 20
79.61400000000012
 30
0.0
 40
0.254
 50
-90.0
 51
-0.0
  0
ARC
  8
0
 62
0
 10
226.45600000000005
 20
93.10600000000011
 30
0.0
 40
0.254
 50
-0.0
 51
90.0
  0
LINE
  8
0
 62
0
 10
226.71000000000004
 20
79.61400000000012
 30
0.0
 11
226.71000000000004
 21
93.10600000000011
 31
0.0
  0
LINE
  8
0
 62
0
 10
231.7599999999998
 20
93.10600000000002
 30
0.0
 11
231.7599999999998
 21
79.61400000000003
 31
0.0
  0
ARC
  8
0
 62
0
 10
232.01399999999978
 20
79.61400000000003
 30
0.0
 40
0.254
 50
-180.0
 51
-90.0
  0
ARC
  8
0
 62
0
 10
232.01399999999978
 20
93.10600000000002
 30
0.0
 40
0.254
 50
90.0
 51
-180.0
  0
LINE
  8
0
 62
0
 10
232.01399999999978
 20
79.36000000000003
 30
0.0
 11
245.5059999999998
 21
79.36000000000003
 31
0.0
  0
LINE
  8
0
 62
0
 10
245.5059999999998
 20
93.36000000000003
 30
0.0
 11
232.01399999999978
 21
93.36000000000003
 31
0.0
  0
ARC
  8
0
 62
0
 10
245.5059999999998
 20
79.61400000000003
 30
0.0
 40
0.254
 50
-90.0
 51
-0.0
  0
ARC
  8
0
 62
0
 10
245.5059999999998
 20
93.10600000000002
 30
0.0
 40
0.254
 50
-0.0
 51
90.0
  0
LINE
  8
0
 62
0
 10
245.7599999999998
 20
79.61400000000003
 30
0.0
 11
245.7599999999998
 21
93.10600000000002
 31
0.0
  0
LINE
  8
0
 62
0
 10
295.26000000000033
 20
93.10600000000022
 30
0.0
 11
295.26000000000033
 21
79.61400000000023
 31
0.0
  0
ARC
  8
0
 62
0
 10
295.51400000000035
 20
79.61400000000023
 30
0.0
 40
0.254
 50
-180.0
 51
-90.0
  0
ARC
  8
0
 62
0
 10
295.51400000000035
 20
93.10600000000022
 30
0.0
 40
0.254
 50
90.0
 51
-180.0
  0
LINE
  8
0
 62
0
 10
295.51400000000035
 20
79.36000000000023
 30
0.0
 11
309.0060000000003
 21
79.36000000000023
 31
0.0
  0
LINE
  8
0
 62
0
 10
309.0060000000003
 20
93.36000000000023
 30
0.0
 11
295.51400000000035
 21
93.36000000000023
 31
0.0
  0
ARC
  8
0
 62
0
 10
309.0060000000003
 20
79.61400000000023
 30
0.0
 40
0.254
 50
-90.0
 51
-0.0
  0
ARC
  8
0
 62
0
 10
309.0060000000003
 20
93.10600000000022
 30
0.0
 40
0.254
 50
-0.0
 51
90.0
  0
LINE
  8
0
 62
0
 10
309.26000000000033
 20
79.61400000000023
 30
0.0
 11
309.26000000000033
 21
93.10600000000022
 31
0.0
  0
LINE
  8
0
 62
0
 10
314.3099999999999
 20
93.10600000000001
 30
0.0
 11
314.3099999999999
 21
79.61400000000002
 31
0.0
  0
ARC
  8
0
 62
0
 10
314.5639999999999
 20
79.61400000000002
 30
0.0
 40
0.254
 50
-180.0
 51
-90.0
  0
ARC
  8
0
 62
0
 10
314.5639999999999
 20
93.10600000000001
 30
0.0
 40
0.254
 50
90.0
 51
-180.0
  0
LINE
  8
0
 62
0
 10
314.5639999999999
 20
79.36000000000001
 30
0.0
 11
328.05599999999987
 21
79.36000000000001
 31
0.0
  0
LINE
  8
0
 62
0
 10
328.05599999999987
 20
93.36000000000001
 30
0.0
 11
314.5639999999999
 21
93.36000000000001
 31
0.0
  0
ARC
  8
0
 62
0
 10
328.05599999999987
 20
79.61400000000002
 30
0.0
 40
0.254
 50
-90.0
 51
-0.0
  0
ARC
  8
0
 62
0
 10
328.05599999999987
 20
93.10600000000001
 30
0.0
 40
0.254
 50
-0.0
 51
90.0
  0
LINE
  8
0
 62
0
 10
328.3099999999999
 20
79.61400000000002
 30
0.0
 11
328.3099999999999
 21
93.10600000000001
 31
0.0
  0
CIRCLE
  8
0
 62
0
 10
289.56
 20
99.69500000000001
 30
0.0
 40
1.65
  0
LINE
  8
0
 62
0
 10
333.35999999999996
 20
93.10600000000011
 30
0.0
 11
333.35999999999996
 21
79.61400000000012
 31
0.0
  0
ARC
  8
0
 62
0
 10
333.614
 20
79.61400000000012
 30
0.0
 40
0.254
 50
-180.0
 51
-90.0
  0
ARC
  8
0
 62
0
 10
333.614
 20
93.10600000000011
 30
0.0
 40
0.254
 50
90.0
 51
-180.0
  0
LINE
  8
0
 62
0
 10
333.614
 20
79.36000000000011
 30
0.0
 11
347.10599999999994
 21
79.36000000000011
 31
0.0
  0
LINE
  8
0
 62
0
 10
347.10599999999994
 20
93.36000000000011
 30
0.0
 11
333.614
 21
93.36000000000011
 31
0.0
  0
ARC
  8
0
 62
0
 10
347.10599999999994
 20
79.61400000000012
 30
0.0
 40
0.254
 50
-90.0
 51
-0.0
  0
ARC
  8
0
 62
0
 10
347.10599999999994
 20
93.10600000000011
 30
0.0
 40
0.254
 50
-0.0
 51
90.0
  0
LINE
  8
0
 62
0
 10
347.35999999999996
 20
79.61400000000012
 30
0.0
 11
347.35999999999996
 21
93.10600000000011
 31
0.0
  0
LINE
  8
0
 62
0
 10
358.75999999999993
 20
93.10599999999991
 30
0.0
 11
358.75999999999993
 21
79.61399999999992
 31
0.0
  0
ARC
  8
0
 62
0
 10
359.01399999999995
 20
79.61399999999992
 30
0.0
 40
0.254
 50
-180.0
 51
-90.0
  0
ARC
  8
0
 62
0
 10
359.01399999999995
 20
93.10599999999991
 30
0.0
 40
0.254
 50
90.0
 51
-180.0
  0
LINE
  8
0
 62
0
 10
359.01399999999995
 20
79.35999999999991
 30
0.0
 11
372.5059999999999
 21
79.35999999999991
 31
0.0
  0
LINE
  8
0
 62
0
 10
372.5059999999999
 20
93.35999999999991
 30
0.0
 11
359.01399999999995
 21
93.35999999999991
 31
0.0
  0
ARC
  8
0
 62
0
 10
372.5059999999999
 20
79.61399999999992
 30
0.0
 40
0.254
 50
-90.0
 51
-0.0
  0
ARC
  8
0
 62
0
 10
372.5059999999999
 20
93.10599999999991
 30
0.0
 40
0.254
 50
-0.0
 51
90.0
  0
LINE
  8
0
 62
0
 10
372.75999999999993
 20
79.61399999999992
 30
0.0
 11
372.75999999999993
 21
93.10599999999991
 31
0.0
  0
LINE
  8
0
 62
0
 10
377.80999999999966
 20
93.10600000000011
 30
0.0
 11
377.80999999999966
 21
79.61400000000012
 31
0.0
  0
ARC
  8
0
 62
0
 10
378.0639999999997
 20
79.61400000000012
 30
0.0
 40
0.254
 50
-180.0
 51
-90.0
  0
ARC
  8
0
 62
0
 10
378.0639999999997
 20
93.10600000000011
 30
0.0
 40
0.254
 50
90.0
 51
-180.0
  0
LINE
  8
0
 62
0
 10
378.0639999999997
 20
79.36000000000011
 30
0.0
 11
391.55599999999964
 21
79.36000000000011
 31
0.0
  0
LINE
  8
0
 62
0
 10
391.55599999999964
 20
93.36000000000011
 30
0.0
 11
378.0639999999997
 21
93.36000000000011
 31
0.0
  0
ARC
  8
0
 62
0
 10
391.55599999999964
 20
79.61400000000012
 30
0.0
 40
0.254
 50
-90.0
 51
-0.0
  0
ARC
  8
0
 62
0
 10
391.55599999999964
 20
93.10600000000011
 30
0.0
 40
0.254
 50
-0.0
 51
90.0
  0
LINE
  8
0
 62
0
 10
391.80999999999966
 20
79.61400000000012
 30
0.0
 11
391.80999999999966
 21
93.10600000000011
 31
0.0
  0
LINE
  8
0
 62
0
 10
396.8599999999999
 20
93.10600000000005
 30
0.0
 11
396.8599999999999
 21
79.61400000000006
 31
0.0
  0
ARC
  8
0
 62
0
 10
397.1139999999999
 20
79.61400000000006
 30
0.0
 40
0.254
 50
-180.0
 51
-90.0
  0
ARC
  8
0
 62
0
 10
397.1139999999999
 20
93.10600000000005
 30
0.0
 40
0.254
 50
90.0
 51
-180.0
  0
LINE
  8
0
 62
0
 10
397.1139999999999
 20
79.36000000000006
 30
0.0
 11
410.6059999999999
 21
79.36000000000006
 31
0.0
  0
LINE
  8
0
 62
0
 10
410.6059999999999
 20
93.36000000000006
 30
0.0
 11
397.1139999999999
 21
93.36000000000006
 31
0.0
  0
ARC
  8
0
 62
0
 10
410.6059999999999
 20
79.61400000000006
 30
0.0
 40
0.254
 50
-90.0
 51
-0.0
  0
ARC
  8
0
 62
0
 10
410.6059999999999
 20
93.10600000000005
 30
0.0
 40
0.254
 50
-0.0
 51
90.0
  0
LINE
  8
0
 62
0
 10
410.8599999999999
 20
79.61400000000006
 30
0.0
 11
410.8599999999999
 21
93.10600000000005
 31
0.0
  0
LINE
  8
0
 62
0
 10
415.91000000000037
 20
93.10599999999992
 30
0.0
 11
415.91000000000037
 21
79.61399999999993
 31
0.0
  0
ARC
  8
0
 62
0
 10
416.1640000000004
 20
79.61399999999993
 30
0.0
 40
0.254
 50
-180.0
 51
-90.0
  0
ARC
  8
0
 62
0
 10
416.1640000000004
 20
93.10599999999992
 30
0.0
 40
0.254
 50
90.0
 51
-180.0
  0
LINE
  8
0
 62
0
 10
416.1640000000004
 20
79.35999999999993
 30
0.0
 11
429.65600000000035
 21
79.35999999999993
 31
0.0
  0
LINE
  8
0
 62
0
 10
429.65600000000035
 20
93.35999999999993
 30
0.0
 11
416.1640000000004
 21
93.35999999999993
 31
0.0
  0
ARC
  8
0
 62
0
 10
429.65600000000035
 20
79.61399999999993
 30
0.0
 40
0.254
 50
-90.0
 51
-0.0
  0
ARC
  8
0
 62
0
 10
429.65600000000035
 20
93.10599999999992
 30
0.0
 40
0.254
 50
-0.0
 51
90.0
  0
LINE
  8
0
 62
0
 10
429.91000000000037
 20
79.61399999999993
 30
0.0
 11
429.91000000000037
 21
93.10599999999992
 31
0.0
  0
LINE
  8
0
 62
0
 10
211.44000000000017
 20
123.58600000000007
 30
0.0
 11
211.44000000000017
 21
110.09400000000008
 31
0.0
  0
ARC
  8
0
 62
0
 10
211.69400000000016
 20
110.09400000000008
 30
0.0
 40
0.254
 50
-180.0
 51
-90.0
  0
ARC
  8
0
 62
0
 10
211.69400000000016
 20
123.58600000000007
 30
0.0
 40
0.254
 50
90.0
 51
-180.0
  0
LINE
  8
0
 62
0
 10
211.69400000000016
 20
109.84000000000007
 30
0.0
 11
225.18600000000018
 21
109.84000000000007
 31
0.0
  0
LINE
  8
0
 62
0
 10
225.18600000000018
 20
123.84000000000007
 30
0.0
 11
211.69400000000016
 21
123.84000000000007
 31
0.0
  0
ARC
  8
0
 62
0
 10
225.18600000000018
 20
110.09400000000008
 30
0.0
 40
0.254
 50
-90.0
 51
-0.0
  0
ARC
  8
0
 62
0
 10
225.18600000000018
 20
123.58600000000007
 30
0.0
 40
0.254
 50
-0.0
 51
90.0
  0
LINE
  8
0
 62
0
 10
225.44000000000017
 20
110.09400000000008
 30
0.0
 11
225.44000000000017
 21
123.58600000000007
 31
0.0
  0
LINE
  8
0
 62
0
 10
230.48999999999984
 20
123.58599999999994
 30
0.0
 11
230.48999999999984
 21
110.09399999999995
 31
0.0
  0
ARC
  8
0
 62
0
 10
230.74399999999983
 20
110.09399999999995
 30
0.0
 40
0.254
 50
-180.0
 51
-90.0
  0
ARC
  8
0
 62
0
 10
230.74399999999983
 20
123.58599999999994
 30
0.0
 40
0.254
 50
90.0
 51
-180.0
  0
LINE
  8
0
 62
0
 10
230.74399999999983
 20
109.83999999999995
 30
0.0
 11
244.23599999999985
 21
109.83999999999995
 31
0.0
  0
LINE
  8
0
 62
0
 10
244.23599999999985
 20
123.83999999999995
 30
0.0
 11
230.74399999999983
 21
123.83999999999995
 31
0.0
  0
ARC
  8
0
 62
0
 10
244.23599999999985
 20
110.09399999999995
 30
0.0
 40
0.254
 50
-90.0
 51
-0.0
  0
ARC
  8
0
 62
0
 10
244.23599999999985
 20
123.58599999999994
 30
0.0
 40
0.254
 50
-0.0
 51
90.0
  0
LINE
  8
0
 62
0
 10
244.48999999999984
 20
110.09399999999995
 30
0.0
 11
244.48999999999984
 21
123.58599999999994
 31
0.0
  0
LINE
  8
0
 62
0
 10
249.53999999999996
 20
123.58599999999997
 30
0.0
 11
249.53999999999996
 21
110.09399999999998
 31
0.0
  0
ARC
  8
0
 62
0
 10
249.79399999999995
 20
110.09399999999998
 30
0.0
 40
0.254
 50
-180.0
 51
-90.0
  0
ARC
  8
0
 62
0
 10
249.79399999999995
 20
123.58599999999997
 30
0.0
 40
0.254
 50
90.0
 51
-180.0
  0
LINE
  8
0
 62
0
 10
249.79399999999995
 20
109.83999999999997
 30
0.0
 11
263.28599999999994
 21
109.83999999999997
 31
0.0
  0
LINE
  8
0
 62
0
 10
263.28599999999994
 20
123.83999999999997
 30
0.0
 11
249.79399999999995
 21
123.83999999999997
 31
0.0
  0
ARC
  8
0
 62
0
 10
263.28599999999994
 20
110.09399999999998
 30
0.0
 40
0.254
 50
-90.0
 51
-0.0
  0
ARC
  8
0
 62
0
 10
263.28599999999994
 20
123.58599999999997
 30
0.0
 40
0.254
 50
-0.0
 51
90.0
  0
LINE
  8
0
 62
0
 10
263.53999999999996
 20
110.09399999999998
 30
0.0
 11
263.53999999999996
 21
123.58599999999997
 31
0.0
  0
LINE
  8
0
 62
0
 10
268.5899999999999
 20
123.58599999999981
 30
0.0
 11
268.5899999999999
 21
110.09399999999982
 31
0.0
  0
ARC
  8
0
 62
0
 10
268.84399999999994
 20
110.09399999999982
 30
0.0
 40
0.254
 50
-180.0
 51
-90.0
  0
ARC
  8
0
 62
0
 10
268.84399999999994
 20
123.58599999999981
 30
0.0
 40
0.254
 50
90.0
 51
-180.0
  0
LINE
  8
0
 62
0
 10
268.84399999999994
 20
109.83999999999982
 30
0.0
 11
282.3359999999999
 21
109.83999999999982
 31
0.0
  0
LINE
  8
0
 62
0
 10
282.3359999999999
 20
123.83999999999982
 30
0.0
 11
268.84399999999994
 21
123.83999999999982
 31
0.0
  0
ARC
  8
0
 62
0
 10
282.3359999999999
 20
110.09399999999982
 30
0.0
 40
0.254
 50
-90.0
 51
-0.0
  0
ARC
  8
0
 62
0
 10
282.3359999999999
 20
123.58599999999981
 30
0.0
 40
0.254
 50
-0.0
 51
90.0
  0
LINE
  8
0
 62
0
 10
282.5899999999999
 20
110.09399999999982
 30
0.0
 11
282.5899999999999
 21
123.58599999999981
 31
0.0
  0
LINE
  8
0
 62
0
 10
295.26000000000033
 20
123.5860000000001
 30
0.0
 11
295.26000000000033
 21
110.09400000000011
 31
0.0
  0
ARC
  8
0
 62
0
 10
295.51400000000035
 20
110.09400000000011
 30
0.0
 40
0.254
 50
-180.0
 51
-90.0
  0
ARC
  8
0
 62
0
 10
295.51400000000035
 20
123.5860000000001
 30
0.0
 40
0.254
 50
90.0
 51
-180.0
  0
LINE
  8
0
 62
0
 10
295.51400000000035
 20
109.8400000000001
 30
0.0
 11
309.0060000000003
 21
109.8400000000001
 31
0.0
  0
LINE
  8
0
 62
0
 10
309.0060000000003
 20
123.8400000000001
 30
0.0
 11
295.51400000000035
 21
123.8400000000001
 31
0.0
  0
ARC
  8
0
 62
0
 10
309.0060000000003
 20
110.09400000000011
 30
0.0
 40
0.254
 50
-90.0
 51
-0.0
  0
ARC
  8
0
 62
0
 10
309.0060000000003
 20
123.5860000000001
 30
0.0
 40
0.254
 50
-0.0
 51
90.0
  0
LINE
  8
0
 62
0
 10
309.26000000000033
 20
110.09400000000011
 30
0.0
 11
309.26000000000033
 21
123.5860000000001
 31
0.0
  0
LINE
  8
0
 62
0
 10
314.31
 20
123.58599999999993
 30
0.0
 11
314.31
 21
110.09399999999994
 31
0.0
  0
ARC
  8
0
 62
0
 10
314.564
 20
110.09399999999994
 30
0.0
 40
0.254
 50
-180.0
 51
-90.0
  0
ARC
  8
0
 62
0
 10
314.564
 20
123.58599999999993
 30
0.0
 40
0.254
 50
90.0
 51
-180.0
  0
LINE
  8
0
 62
0
 10
314.564
 20
109.83999999999993
 30
0.0
 11
328.056
 21
109.83999999999993
 31
0.0
  0
LINE
  8
0
 62
0
 10
328.056
 20
123.83999999999993
 30
0.0
 11
314.564
 21
123.83999999999993
 31
0.0
  0
ARC
  8
0
 62
0
 10
328.056
 20
110.09399999999994
 30
0.0
 40
0.254
 50
-90.0
 51
-0.0
  0
ARC
  8
0
 62
0
 10
328.056
 20
123.58599999999993
 30
0.0
 40
0.254
 50
-0.0
 51
90.0
  0
LINE
  8
0
 62
0
 10
328.31
 20
110.09399999999994
 30
0.0
 11
328.31
 21
123.58599999999993
 31
0.0
  0
LINE
  8
0
 62
0
 10
333.36000000000007
 20
123.5859999999996
 30
0.0
 11
333.36000000000007
 21
110.09399999999961
 31
0.0
  0
ARC
  8
0
 62
0
 10
333.6140000000001
 20
110.09399999999961
 30
0.0
 40
0.254
 50
-180.0
 51
-90.0
  0
ARC
  8
0
 62
0
 10
333.6140000000001
 20
123.5859999999996
 30
0.0
 40
0.254
 50
90.0
 51
-180.0
  0
LINE
  8
0
 62
0
 10
333.6140000000001
 20
109.8399999999996
 30
0.0
 11
347.10600000000005
 21
109.8399999999996
 31
0.0
  0
LINE
  8
0
 62
0
 10
347.10600000000005
 20
123.8399999999996
 30
0.0
 11
333.6140000000001
 21
123.8399999999996
 31
0.0
  0
ARC
  8
0
 62
0
 10
347.10600000000005
 20
110.09399999999961
 30
0.0
 40
0.254
 50
-90.0
 51
-0.0
  0
ARC
  8
0
 62
0
 10
347.10600000000005
 20
123.5859999999996
 30
0.0
 40
0.254
 50
-0.0
 51
90.0
  0
LINE
  8
0
 62
0
 10
347.36000000000007
 20
110.09399999999961
 30
0.0
 11
347.36000000000007
 21
123.5859999999996
 31
0.0
  0
CIRCLE
  8
0
 62
0
 10
364.49
 20
122.555
 30
0.0
 40
1.65
  0
CIRCLE
  8
0
 62
0
 10
429.26
 20
132.08
 30
0.0
 40
1.65
  0
LINE
  8
0
 62
0
 10
177.00000000000003
 20
12.192000000000002
 30
0.0
 11
177.00000000000003
 21
8.128000000000002
 31
0.0
  0
ARC
  8
0
 62
0
 10
177.25400000000002
 20
12.192000000000004
 30
0.0
 40
0.254
 50
90.0
 51
180.0
  0
ARC
  8
0
 62
0
 10
177.25400000000002
 20
8.128000000000004
 30
0.0
 40
0.254
 50
-180.0
 51
-90.0
  0
LINE
  8
0
 62
0
 10
177.25400000000002
 20
12.446000000000003
 30
0.0
 11
177.60960000000003
 21
12.446000000000003
 31
0.0
  0
LINE
  8
0
 62
0
 10
177.25400000000002
 20
7.874000000000004
 30
0.0
 11
177.60960000000003
 21
7.874000000000004
 31
0.0
  0
ARC
  8
0
 62
0
 10
177.60960000000003
 20
12.700000000000003
 30
0.0
 40
0.254
 50
-90.0
 51
-0.0
  0
ARC
  8
0
 62
0
 10
177.60960000000003
 20
7.6200000000000045
 30
0.0
 40
0.254
 50
-0.0
 51
90.0
  0
LINE
  8
0
 62
0
 10
177.86360000000002
 20
12.700000000000001
 30
0.0
 11
177.86360000000002
 21
16.764000000000003
 31
0.0
  0
LINE
  8
0
 62
0
 10
177.86360000000002
 20
7.620000000000006
 30
0.0
 11
177.86360000000002
 21
4.470400000000003
 31
0.0
  0
LINE
  8
0
 62
0
 10
177.86360000000002
 20
16.764000000000003
 30
0.0
 11
179.66700000000003
 21
16.764000000000003
 31
0.0
  0
LINE
  8
0
 62
0
 10
177.86360000000002
 20
4.470400000000003
 30
0.0
 11
185.02640000000002
 21
4.470400000000003
 31
0.0
  0
ARC
  8
0
 62
0
 10
179.66700000000003
 20
17.018000000000004
 30
0.0
 40
0.254
 50
-90.0
 51
-0.0
  0
LINE
  8
0
 62
0
 10
185.02640000000002
 20
7.620000000000006
 30
0.0
 11
185.02640000000002
 21
4.470400000000003
 31
0.0
  0
LINE
  8
0
 62
0
 10
179.92100000000002
 20
17.018000000000004
 30
0.0
 11
179.92100000000002
 21
17.678400000000003
 31
0.0
  0
ARC
  8
0
 62
0
 10
185.28040000000001
 20
7.6200000000000045
 30
0.0
 40
0.254
 50
90.0
 51
-180.0
  0
ARC
  8
0
 62
0
 10
180.175
 20
17.678400000000003
 30
0.0
 40
0.254
 50
90.0
 51
-180.0
  0
LINE
  8
0
 62
0
 10
185.63600000000002
 20
7.874000000000004
 30
0.0
 11
185.28040000000001
 21
7.874000000000004
 31
0.0
  0
LINE
  8
0
 62
0
 10
180.175
 20
17.932400000000005
 30
0.0
 11
182.71500000000003
 21
17.932400000000005
 31
0.0
  0
ARC
  8
0
 62
0
 10
185.63600000000002
 20
8.128000000000004
 30
0.0
 40
0.254
 50
-90.0
 51
-0.0
  0
ARC
  8
0
 62
0
 10
182.71500000000003
 20
17.678400000000003
 30
0.0
 40
0.254
 50
-0.0
 51
90.0
  0
LINE
  8
0
 62
0
 10
185.89000000000001
 20
10.414
 30
0.0
 11
185.89000000000001
 21
8.128
 31
0.0
  0
LINE
  8
0
 62
0
 10
182.96900000000002
 20
17.018000000000004
 30
0.0
 11
182.96900000000002
 21
17.678400000000003
 31
0.0
  0
ARC
  8
0
 62
0
 10
185.63600000000002
 20
10.414000000000003
 30
0.0
 40
0.254
 50
-0.0
 51
90.0
  0
ARC
  8
0
 62
0
 10
183.223
 20
17.018000000000004
 30
0.0
 40
0.254
 50
-180.0
 51
-90.0
  0
LINE
  8
0
 62
0
 10
185.63600000000002
 20
10.668000000000003
 30
0.0
 11
185.28040000000001
 21
10.668000000000003
 31
0.0
  0
LINE
  8
0
 62
0
 10
185.02640000000002
 20
16.764000000000003
 30
0.0
 11
183.223
 21
16.764000000000003
 31
0.0
  0
ARC
  8
0
 62
0
 10
185.28040000000001
 20
10.922000000000002
 30
0.0
 40
0.254
 50
180.0
 51
-90.0
  0
LINE
  8
0
 62
0
 10
185.02640000000002
 20
10.921999999999999
 30
0.0
 11
185.02640000000002
 21
16.764000000000003
 31
0.0
  0
LINE
  8
0
 62
0
 10
253.35000000000002
 20
35.956
 30
0.0
 11
253.35000000000002
 21
34.3408
 31
0.0
  0
ARC
  8
0
 62
0
 10
253.09600000000003
 20
34.3408
 30
0.0
 40
0.254
 50
-90.0
 51
-0.0
  0
ARC
  8
0
 62
0
 10
253.604
 20
35.956
 30
0.0
 40
0.254
 50
90.0
 51
-180.0
  0
LINE
  8
0
 62
0
 10
252.2474
 20
34.086800000000004
 30
0.0
 11
253.09600000000003
 21
34.086800000000004
 31
0.0
  0
LINE
  8
0
 62
0
 10
267.096
 20
36.21
 30
0.0
 11
253.604
 21
36.21
 31
0.0
  0
ARC
  8
0
 62
0
 10
252.2474
 20
34.3408
 30
0.0
 40
0.254
 50
-180.0
 51
-90.0
  0
ARC
  8
0
 62
0
 10
267.096
 20
35.956
 30
0.0
 40
0.254
 50
-0.0
 51
90.0
  0
LINE
  8
0
 62
0
 10
251.9934
 20
34.8996
 30
0.0
 11
251.9934
 21
34.3408
 31
0.0
  0
LINE
  8
0
 62
0
 10
267.35
 20
34.3408
 30
0.0
 11
267.35
 21
35.956
 31
0.0
  0
LINE
  8
0
 62
0
 10
244.83060000000003
 20
34.8996
 30
0.0
 11
251.9934
 21
34.8996
 31
0.0
  0
ARC
  8
0
 62
0
 10
267.60400000000004
 20
34.3408
 30
0.0
 40
0.254
 50
-180.0
 51
-90.0
  0
LINE
  8
0
 62
0
 10
244.83060000000003
 20
31.750000000000004
 30
0.0
 11
244.83060000000003
 21
34.8996
 31
0.0
  0
LINE
  8
0
 62
0
 10
267.60400000000004
 20
34.086800000000004
 30
0.0
 11
268.4526
 21
34.086800000000004
 31
0.0
  0
ARC
  8
0
 62
0
 10
244.57660000000004
 20
31.750000000000004
 30
0.0
 40
0.254
 50
-90.0
 51
-0.0
  0
ARC
  8
0
 62
0
 10
268.4526
 20
34.3408
 30
0.0
 40
0.254
 50
-90.0
 51
-0.0
  0
LINE
  8
0
 62
0
 10
244.221
 20
31.496000000000002
 30
0.0
 11
244.57660000000004
 21
31.496000000000002
 31
0.0
  0
LINE
  8
0
 62
0
 10
268.70660000000004
 20
34.3408
 30
0.0
 11
268.70660000000004
 21
34.8996
 31
0.0
  0
ARC
  8
0
 62
0
 10
244.221
 20
31.242
 30
0.0
 40
0.254
 50
90.0
 51
180.0
  0
LINE
  8
0
 62
0
 10
268.70660000000004
 20
34.8996
 30
0.0
 11
275.86940000000004
 21
34.8996
 31
0.0
  0
LINE
  8
0
 62
0
 10
243.967
 20
28.956000000000007
 30
0.0
 11
243.967
 21
31.242000000000004
 31
0.0
  0
LINE
  8
0
 62
0
 10
275.86940000000004
 20
34.8996
 30
0.0
 11
275.86940000000004
 21
31.750000000000004
 31
0.0
  0
ARC
  8
0
 62
0
 10
244.221
 20
28.956000000000003
 30
0.0
 40
0.254
 50
-180.0
 51
-90.0
  0
ARC
  8
0
 62
0
 10
276.12340000000006
 20
31.750000000000004
 30
0.0
 40
0.254
 50
-180.0
 51
-90.0
  0
LINE
  8
0
 62
0
 10
244.57660000000004
 20
28.702
 30
0.0
 11
244.221
 21
28.702
 31
0.0
  0
LINE
  8
0
 62
0
 10
276.12340000000006
 20
31.496000000000002
 30
0.0
 11
276.479
 21
31.496000000000002
 31
0.0
  0
ARC
  8
0
 62
0
 10
244.57660000000004
 20
28.448
 30
0.0
 40
0.254
 50
-0.0
 51
90.0
  0
ARC
  8
0
 62
0
 10
276.479
 20
31.242
 30
0.0
 40
0.254
 50
0.0
 51
90.0
  0
LINE
  8
0
 62
0
 10
244.83060000000003
 20
22.606
 30
0.0
 11
244.83060000000003
 21
28.448
 31
0.0
  0
LINE
  8
0
 62
0
 10
276.733
 20
31.242
 30
0.0
 11
276.733
 21
28.956000000000003
 31
0.0
  0
LINE
  8
0
 62
0
 10
246.63400000000004
 20
22.606
 30
0.0
 11
244.83060000000003
 21
22.606
 31
0.0
  0
ARC
  8
0
 62
0
 10
276.479
 20
28.956000000000003
 30
0.0
 40
0.254
 50
-90.0
 51
-0.0
  0
ARC
  8
0
 62
0
 10
246.63400000000004
 20
22.352
 30
0.0
 40
0.254
 50
0.0
 51
90.0
  0
LINE
  8
0
 62
0
 10
276.479
 20
28.702
 30
0.0
 11
276.12340000000006
 21
28.702
 31
0.0
  0
LINE
  8
0
 62
0
 10
246.88800000000003
 20
21.691599999999998
 30
0.0
 11
246.88800000000003
 21
22.351999999999997
 31
0.0
  0
ARC
  8
0
 62
0
 10
276.12340000000006
 20
28.448
 30
0.0
 40
0.254
 50
90.0
 51
-180.0
  0
ARC
  8
0
 62
0
 10
247.14200000000002
 20
21.6916
 30
0.0
 40
0.254
 50
-180.0
 51
-90.0
  0
LINE
  8
0
 62
0
 10
275.86940000000004
 20
28.448000000000004
 30
0.0
 11
275.86940000000004
 21
22.606
 31
0.0
  0
LINE
  8
0
 62
0
 10
247.14200000000002
 20
21.4376
 30
0.0
 11
249.68200000000004
 21
21.4376
 31
0.0
  0
LINE
  8
0
 62
0
 10
275.86940000000004
 20
22.606
 30
0.0
 11
274.06600000000003
 21
22.606
 31
0.0
  0
ARC
  8
0
 62
0
 10
249.68200000000004
 20
21.6916
 30
0.0
 40
0.254
 50
-90.0
 51
-0.0
  0
ARC
  8
0
 62
0
 10
274.06600000000003
 20
22.352
 30
0.0
 40
0.254
 50
90.0
 51
180.0
  0
LINE
  8
0
 62
0
 10
249.93600000000004
 20
21.691599999999998
 30
0.0
 11
249.93600000000004
 21
22.351999999999997
 31
0.0
  0
LINE
  8
0
 62
0
 10
273.812
 20
22.352
 30
0.0
 11
273.812
 21
21.6916
 31
0.0
  0
ARC
  8
0
 62
0
 10
250.19000000000003
 20
22.352
 30
0.0
 40
0.254
 50
90.0
 51
180.0
  0
ARC
  8
0
 62
0
 10
273.558
 20
21.6916
 30
0.0
 40
0.254
 50
-90.0
 51
-0.0
  0
LINE
  8
0
 62
0
 10
250.19000000000003
 20
22.606
 30
0.0
 11
251.9934
 21
22.606
 31
0.0
  0
LINE
  8
0
 62
0
 10
273.558
 20
21.4376
 30
0.0
 11
271.01800000000003
 21
21.4376
 31
0.0
  0
LINE
  8
0
 62
0
 10
251.9934
 20
22.606
 30
0.0
 11
251.9934
 21
23.1394
 31
0.0
  0
ARC
  8
0
 62
0
 10
271.01800000000003
 20
21.6916
 30
0.0
 40
0.254
 50
-180.0
 51
-90.0
  0
ARC
  8
0
 62
0
 10
252.2474
 20
23.1394
 30
0.0
 40
0.254
 50
90.0
 51
-180.0
  0
LINE
  8
0
 62
0
 10
270.764
 20
21.691599999999998
 30
0.0
 11
270.764
 21
22.351999999999997
 31
0.0
  0
LINE
  8
0
 62
0
 10
252.2474
 20
23.3934
 30
0.0
 11
253.09600000000003
 21
23.3934
 31
0.0
  0
ARC
  8
0
 62
0
 10
270.51
 20
22.352
 30
0.0
 40
0.254
 50
0.0
 51
90.0
  0
ARC
  8
0
 62
0
 10
253.09600000000003
 20
23.1394
 30
0.0
 40
0.254
 50
-0.0
 51
90.0
  0
LINE
  8
0
 62
0
 10
268.70660000000004
 20
22.606
 30
0.0
 11
270.51
 21
22.606
 31
0.0
  0
LINE
  8
0
 62
0
 10
253.35000000000002
 20
23.1394
 30
0.0
 11
253.35000000000002
 21
22.464000000000002
 31
0.0
  0
LINE
  8
0
 62
0
 10
268.70660000000004
 20
23.1394
 30
0.0
 11
268.70660000000004
 21
22.606
 31
0.0
  0
ARC
  8
0
 62
0
 10
253.604
 20
22.464000000000002
 30
0.0
 40
0.254
 50
-180.0
 51
-90.0
  0
ARC
  8
0
 62
0
 10
268.4526
 20
23.1394
 30
0.0
 40
0.254
 50
-0.0
 51
90.0
  0
LINE
  8
0
 62
0
 10
253.604
 20
22.21
 30
0.0
 11
267.096
 21
22.21
 31
0.0
  0
LINE
  8
0
 62
0
 10
267.60400000000004
 20
23.3934
 30
0.0
 11
268.4526
 21
23.3934
 31
0.0
  0
ARC
  8
0
 62
0
 10
267.096
 20
22.464000000000002
 30
0.0
 40
0.254
 50
-90.0
 51
-0.0
  0
ARC
  8
0
 62
0
 10
267.60400000000004
 20
23.1394
 30
0.0
 40
0.254
 50
90.0
 51
-180.0
  0
LINE
  8
0
 62
0
 10
267.35
 20
22.464000000000002
 30
0.0
 11
267.35
 21
23.1394
 31
0.0
  0
LINE
  8
0
 62
0
 10
368.285
 20
16.90599999999998
 30
0.0
 11
368.285
 21
16.205199999999984
 31
0.0
  0
ARC
  8
0
 62
0
 10
368.031
 20
16.205199999999984
 30
0.0
 40
0.254
 50
-90.0
 51
-0.0
  0
ARC
  8
0
 62
0
 10
368.53900000000004
 20
16.90599999999998
 30
0.0
 40
0.254
 50
90.0
 51
-180.0
  0
LINE
  8
0
 62
0
 10
368.031
 20
15.951199999999982
 30
0.0
 11
367.18240000000003
 21
15.951199999999982
 31
0.0
  0
LINE
  8
0
 62
0
 10
382.031
 20
17.159999999999982
 30
0.0
 11
368.53900000000004
 21
17.159999999999982
 31
0.0
  0
ARC
  8
0
 62
0
 10
367.18240000000003
 20
16.205199999999984
 30
0.0
 40
0.254
 50
-180.0
 51
-90.0
  0
ARC
  8
0
 62
0
 10
382.031
 20
16.90599999999998
 30
0.0
 40
0.254
 50
-0.0
 51
90.0
  0
LINE
  8
0
 62
0
 10
366.9284
 20
16.20519999999998
 30
0.0
 11
366.9284
 21
16.76399999999998
 31
0.0
  0
LINE
  8
0
 62
0
 10
382.285
 20
16.205199999999984
 30
0.0
 11
382.285
 21
16.90599999999998
 31
0.0
  0
LINE
  8
0
 62
0
 10
366.9284
 20
16.76399999999998
 30
0.0
 11
365.12500000000006
 21
16.76399999999998
 31
0.0
  0
ARC
  8
0
 62
0
 10
382.53900000000004
 20
16.205199999999984
 30
0.0
 40
0.254
 50
-180.0
 51
-90.0
  0
ARC
  8
0
 62
0
 10
365.12500000000006
 20
17.017999999999983
 30
0.0
 40
0.254
 50
180.0
 51
-90.0
  0
LINE
  8
0
 62
0
 10
383.3876
 20
15.951199999999982
 30
0.0
 11
382.53900000000004
 21
15.951199999999982
 31
0.0
  0
LINE
  8
0
 62
0
 10
364.87100000000004
 20
17.017999999999983
 30
0.0
 11
364.87100000000004
 21
17.678399999999982
 31
0.0
  0
ARC
  8
0
 62
0
 10
383.3876
 20
16.205199999999984
 30
0.0
 40
0.254
 50
-90.0
 51
-0.0
  0
ARC
  8
0
 62
0
 10
364.617
 20
17.678399999999982
 30
0.0
 40
0.254
 50
-0.0
 51
90.0
  0
LINE
  8
0
 62
0
 10
383.64160000000004
 20
16.76399999999998
 30
0.0
 11
383.64160000000004
 21
16.205199999999984
 31
0.0
  0
LINE
  8
0
 62
0
 10
364.617
 20
17.932399999999983
 30
0.0
 11
362.07700000000006
 21
17.932399999999983
 31
0.0
  0
LINE
  8
0
 62
0
 10
383.64160000000004
 20
16.76399999999998
 30
0.0
 11
385.445
 21
16.76399999999998
 31
0.0
  0
ARC
  8
0
 62
0
 10
362.07700000000006
 20
17.678399999999982
 30
0.0
 40
0.254
 50
90.0
 51
-180.0
  0
ARC
  8
0
 62
0
 10
385.445
 20
17.017999999999983
 30
0.0
 40
0.254
 50
-90.0
 51
0.0
  0
LINE
  8
0
 62
0
 10
361.82300000000004
 20
17.67839999999998
 30
0.0
 11
361.82300000000004
 21
17.01799999999998
 31
0.0
  0
LINE
  8
0
 62
0
 10
385.699
 20
17.017999999999983
 30
0.0
 11
385.699
 21
17.678399999999982
 31
0.0
  0
ARC
  8
0
 62
0
 10
361.569
 20
17.017999999999983
 30
0.0
 40
0.254
 50
-90.0
 51
0.0
  0
ARC
  8
0
 62
0
 10
385.95300000000003
 20
17.678399999999982
 30
0.0
 40
0.254
 50
90.0
 51
-180.0
  0
LINE
  8
0
 62
0
 10
359.7656
 20
16.76399999999998
 30
0.0
 11
361.569
 21
16.76399999999998
 31
0.0
  0
LINE
  8
0
 62
0
 10
388.493
 20
17.932399999999983
 30
0.0
 11
385.95300000000003
 21
17.932399999999983
 31
0.0
  0
LINE
  8
0
 62
0
 10
359.7656
 20
10.921999999999985
 30
0.0
 11
359.7656
 21
16.76399999999998
 31
0.0
  0
ARC
  8
0
 62
0
 10
388.493
 20
17.678399999999982
 30
0.0
 40
0.254
 50
-0.0
 51
90.0
  0
ARC
  8
0
 62
0
 10
359.5116
 20
10.921999999999981
 30
0.0
 40
0.254
 50
-90.0
 51
0.0
  0
LINE
  8
0
 62
0
 10
388.747
 20
17.017999999999983
 30
0.0
 11
388.747
 21
17.678399999999982
 31
0.0
  0
LINE
  8
0
 62
0
 10
359.15599999999995
 20
10.667999999999981
 30
0.0
 11
359.5116
 21
10.667999999999981
 31
0.0
  0
ARC
  8
0
 62
0
 10
389.00100000000003
 20
17.017999999999983
 30
0.0
 40
0.254
 50
180.0
 51
-90.0
  0
ARC
  8
0
 62
0
 10
359.15599999999995
 20
10.413999999999982
 30
0.0
 40
0.254
 50
90.0
 51
-180.0
  0
LINE
  8
0
 62
0
 10
390.80440000000004
 20
16.76399999999998
 30
0.0
 11
389.00100000000003
 21
16.76399999999998
 31
0.0
  0
LINE
  8
0
 62
0
 10
358.90199999999993
 20
8.127999999999982
 30
0.0
 11
358.90199999999993
 21
10.413999999999982
 31
0.0
  0
LINE
  8
0
 62
0
 10
390.80440000000004
 20
10.921999999999985
 30
0.0
 11
390.80440000000004
 21
16.76399999999998
 31
0.0
  0
ARC
  8
0
 62
0
 10
359.15599999999995
 20
8.127999999999982
 30
0.0
 40
0.254
 50
-180.0
 51
-90.0
  0
ARC
  8
0
 62
0
 10
391.05840000000006
 20
10.921999999999981
 30
0.0
 40
0.254
 50
180.0
 51
-90.0
  0
LINE
  8
0
 62
0
 10
359.5116
 20
7.873999999999982
 30
0.0
 11
359.15599999999995
 21
7.873999999999982
 31
0.0
  0
LINE
  8
0
 62
0
 10
391.41399999999993
 20
10.667999999999981
 30
0.0
 11
391.05840000000006
 21
10.667999999999981
 31
0.0
  0
ARC
  8
0
 62
0
 10
359.5116
 20
7.6199999999999815
 30
0.0
 40
0.254
 50
0.0
 51
90.0
  0
ARC
  8
0
 62
0
 10
391.41399999999993
 20
10.413999999999982
 30
0.0
 40
0.254
 50
-0.0
 51
90.0
  0
LINE
  8
0
 62
0
 10
359.7656
 20
4.470399999999983
 30
0.0
 11
359.7656
 21
7.619999999999981
 31
0.0
  0
LINE
  8
0
 62
0
 10
391.66799999999995
 20
8.127999999999982
 30
0.0
 11
391.66799999999995
 21
10.413999999999982
 31
0.0
  0
LINE
  8
0
 62
0
 10
359.7656
 20
4.470399999999983
 30
0.0
 11
366.9284
 21
4.470399999999983
 31
0.0
  0
ARC
  8
0
 62
0
 10
391.41399999999993
 20
8.127999999999982
 30
0.0
 40
0.254
 50
-90.0
 51
-0.0
  0
LINE
  8
0
 62
0
 10
366.9284
 20
5.003799999999982
 30
0.0
 11
366.9284
 21
4.470399999999983
 31
0.0
  0
LINE
  8
0
 62
0
 10
391.05840000000006
 20
7.873999999999982
 30
0.0
 11
391.41399999999993
 21
7.873999999999982
 31
0.0
  0
ARC
  8
0
 62
0
 10
367.18240000000003
 20
5.003799999999982
 30
0.0
 40
0.254
 50
90.0
 51
180.0
  0
ARC
  8
0
 62
0
 10
391.05840000000006
 20
7.6199999999999815
 30
0.0
 40
0.254
 50
90.0
 51
180.0
  0
LINE
  8
0
 62
0
 10
368.031
 20
5.257799999999982
 30
0.0
 11
367.18240000000003
 21
5.257799999999982
 31
0.0
  0
LINE
  8
0
 62
0
 10
390.80440000000004
 20
4.470399999999983
 30
0.0
 11
390.80440000000004
 21
7.619999999999981
 31
0.0
  0
ARC
  8
0
 62
0
 10
368.031
 20
5.003799999999982
 30
0.0
 40
0.254
 50
0.0
 51
90.0
  0
LINE
  8
0
 62
0
 10
383.64160000000004
 20
4.470399999999983
 30
0.0
 11
390.80440000000004
 21
4.470399999999983
 31
0.0
  0
LINE
  8
0
 62
0
 10
368.285
 20
5.003799999999982
 30
0.0
 11
368.285
 21
3.413999999999982
 31
0.0
  0
LINE
  8
0
 62
0
 10
383.64160000000004
 20
5.003799999999982
 30
0.0
 11
383.64160000000004
 21
4.470399999999983
 31
0.0
  0
ARC
  8
0
 62
0
 10
368.53900000000004
 20
3.4139999999999824
 30
0.0
 40
0.254
 50
-180.0
 51
-90.0
  0
ARC
  8
0
 62
0
 10
383.3876
 20
5.003799999999982
 30
0.0
 40
0.254
 50
0.0
 51
90.0
  0
LINE
  8
0
 62
0
 10
368.53900000000004
 20
3.1599999999999824
 30
0.0
 11
382.031
 21
3.1599999999999824
 31
0.0
  0
LINE
  8
0
 62
0
 10
382.53900000000004
 20
5.257799999999982
 30
0.0
 11
383.3876
 21
5.257799999999982
 31
0.0
  0
ARC
  8
0
 62
0
 10
382.031
 20
3.4139999999999824
 30
0.0
 40
0.254
 50
-90.0
 51
-0.0
  0
ARC
  8
0
 62
0
 10
382.53900000000004
 20
5.003799999999982
 30
0.0
 40
0.254
 50
90.0
 51
180.0
  0
LINE
  8
0
 62
0
 10
382.285
 20
3.4139999999999824
 30
0.0
 11
382.285
 21
5.003799999999982
 31
0.0
  0
LINE
  8
0
 62
0
 10
416.1640000000001
 20
12.68500000000004
 30
0.0
 11
416.83940000000007
 21
12.68500000000004
 31
0.0
  0
ARC
  8
0
 62
0
 10
416.83940000000007
 20
12.43100000000004
 30
0.0
 40
0.254
 50
-0.0
 51
90.0
  0
ARC
  8
0
 62
0
 10
416.1640000000001
 20
12.93900000000004
 30
0.0
 40
0.254
 50
-180.0
 51
-90.0
  0
LINE
  8
0
 62
0
 10
417.0934000000001
 20
12.431000000000036
 30
0.0
 11
417.0934000000001
 21
11.582400000000035
 31
0.0
  0
LINE
  8
0
 62
0
 10
415.9100000000001
 20
26.431000000000036
 30
0.0
 11
415.9100000000001
 21
12.939000000000036
 31
0.0
  0
ARC
  8
0
 62
0
 10
416.83940000000007
 20
11.582400000000039
 30
0.0
 40
0.254
 50
-90.0
 51
-0.0
  0
ARC
  8
0
 62
0
 10
416.1640000000001
 20
26.43100000000004
 30
0.0
 40
0.254
 50
90.0
 51
-180.0
  0
LINE
  8
0
 62
0
 10
416.83940000000007
 20
11.32840000000004
 30
0.0
 11
416.3060000000001
 21
11.32840000000004
 31
0.0
  0
LINE
  8
0
 62
0
 10
416.83940000000007
 20
26.68500000000004
 30
0.0
 11
416.1640000000001
 21
26.68500000000004
 31
0.0
  0
LINE
  8
0
 62
0
 10
416.3060000000001
 20
11.32840000000004
 30
0.0
 11
416.3060000000001
 21
9.525000000000041
 31
0.0
  0
ARC
  8
0
 62
0
 10
416.83940000000007
 20
26.939000000000043
 30
0.0
 40
0.254
 50
-90.0
 51
-0.0
  0
ARC
  8
0
 62
0
 10
416.0520000000001
 20
9.52500000000004
 30
0.0
 40
0.254
 50
-90.0
 51
0.0
  0
LINE
  8
0
 62
0
 10
417.0934000000001
 20
26.939000000000046
 30
0.0
 11
417.0934000000001
 21
27.787600000000044
 31
0.0
  0
LINE
  8
0
 62
0
 10
416.0520000000001
 20
9.27100000000004
 30
0.0
 11
415.3916000000001
 21
9.27100000000004
 31
0.0
  0
ARC
  8
0
 62
0
 10
416.83940000000007
 20
27.78760000000004
 30
0.0
 40
0.254
 50
-0.0
 51
90.0
  0
ARC
  8
0
 62
0
 10
415.3916000000001
 20
9.01700000000004
 30
0.0
 40
0.254
 50
90.0
 51
-180.0
  0
LINE
  8
0
 62
0
 10
416.83940000000007
 20
28.04160000000004
 30
0.0
 11
416.3060000000001
 21
28.04160000000004
 31
0.0
  0
LINE
  8
0
 62
0
 10
415.1376000000001
 20
9.017000000000037
 30
0.0
 11
415.1376000000001
 21
6.477000000000036
 31
0.0
  0
LINE
  8
0
 62
0
 10
416.3060000000001
 20
28.04160000000004
 30
0.0
 11
416.3060000000001
 21
29.845000000000034
 31
0.0
  0
ARC
  8
0
 62
0
 10
415.3916000000001
 20
6.477000000000039
 30
0.0
 40
0.254
 50
-180.0
 51
-90.0
  0
ARC
  8
0
 62
0
 10
416.0520000000001
 20
29.845000000000038
 30
0.0
 40
0.254
 50
0.0
 51
90.0
  0
LINE
  8
0
 62
0
 10
415.3916000000001
 20
6.22300000000004
 30
0.0
 11
416.0520000000001
 21
6.22300000000004
 31
0.0
  0
LINE
  8
0
 62
0
 10
416.0520000000001
 20
30.09900000000004
 30
0.0
 11
415.3916000000001
 21
30.09900000000004
 31
0.0
  0
ARC
  8
0
 62
0
 10
416.0520000000001
 20
5.96900000000004
 30
0.0
 40
0.254
 50
-0.0
 51
90.0
  0
ARC
  8
0
 62
0
 10
415.3916000000001
 20
30.35300000000004
 30
0.0
 40
0.254
 50
-180.0
 51
-90.0
  0
LINE
  8
0
 62
0
 10
416.3060000000001
 20
5.9690000000000385
 30
0.0
 11
416.3060000000001
 21
4.16560000000004
 31
0.0
  0
LINE
  8
0
 62
0
 10
415.1376000000001
 20
30.35300000000004
 30
0.0
 11
415.1376000000001
 21
32.89300000000004
 31
0.0
  0
LINE
  8
0
 62
0
 10
416.3060000000001
 20
4.16560000000004
 30
0.0
 11
423.16400000000004
 21
4.16560000000004
 31
0.0
  0
ARC
  8
0
 62
0
 10
415.3916000000001
 20
32.89300000000004
 30
0.0
 40
0.254
 50
90.0
 51
-180.0
  0
ARC
  8
0
 62
0
 10
423.16400000000004
 20
3.9116000000000404
 30
0.0
 40
0.254
 50
0.0
 51
90.0
  0
LINE
  8
0
 62
0
 10
415.3916000000001
 20
33.14700000000004
 30
0.0
 11
416.0520000000001
 21
33.14700000000004
 31
0.0
  0
LINE
  8
0
 62
0
 10
423.41800000000006
 20
3.9116000000000404
 30
0.0
 11
423.41800000000006
 21
3.556000000000028
 31
0.0
  0
ARC
  8
0
 62
0
 10
416.0520000000001
 20
33.40100000000004
 30
0.0
 40
0.254
 50
-90.0
 51
-0.0
  0
ARC
  8
0
 62
0
 10
423.6720000000001
 20
3.556000000000028
 30
0.0
 40
0.254
 50
-180.0
 51
-90.0
  0
LINE
  8
0
 62
0
 10
416.3060000000001
 20
33.40100000000004
 30
0.0
 11
416.3060000000001
 21
35.20440000000004
 31
0.0
  0
LINE
  8
0
 62
0
 10
423.6720000000001
 20
3.302000000000028
 30
0.0
 11
425.9580000000001
 21
3.302000000000028
 31
0.0
  0
LINE
  8
0
 62
0
 10
416.3060000000001
 20
35.20440000000004
 30
0.0
 11
423.16400000000004
 21
35.20440000000004
 31
0.0
  0
ARC
  8
0
 62
0
 10
425.9580000000001
 20
3.556000000000028
 30
0.0
 40
0.254
 50
-90.0
 51
-0.0
  0
ARC
  8
0
 62
0
 10
423.16400000000004
 20
35.45840000000004
 30
0.0
 40
0.254
 50
-90.0
 51
-0.0
  0
LINE
  8
0
 62
0
 10
426.2120000000001
 20
3.556000000000028
 30
0.0
 11
426.2120000000001
 21
3.9116000000000404
 31
0.0
  0
LINE
  8
0
 62
0
 10
423.41800000000006
 20
35.45840000000004
 30
0.0
 11
423.41800000000006
 21
35.81400000000006
 31
0.0
  0
ARC
  8
0
 62
0
 10
426.4660000000001
 20
3.9116000000000404
 30
0.0
 40
0.254
 50
90.0
 51
180.0
  0
ARC
  8
0
 62
0
 10
423.6720000000001
 20
35.81400000000006
 30
0.0
 40
0.254
 50
90.0
 51
-180.0
  0
LINE
  8
0
 62
0
 10
428.59960000000007
 20
4.16560000000004
 30
0.0
 11
426.4660000000001
 21
4.16560000000004
 31
0.0
  0
LINE
  8
0
 62
0
 10
423.6720000000001
 20
36.068000000000055
 30
0.0
 11
425.9580000000001
 21
36.068000000000055
 31
0.0
  0
LINE
  8
0
 62
0
 10
428.59960000000007
 20
11.32840000000004
 30
0.0
 11
428.59960000000007
 21
4.16560000000004
 31
0.0
  0
ARC
  8
0
 62
0
 10
425.9580000000001
 20
35.81400000000006
 30
0.0
 40
0.254
 50
-0.0
 51
90.0
  0
LINE
  8
0
 62
0
 10
428.59960000000007
 20
11.32840000000004
 30
0.0
 11
428.0408000000001
 21
11.32840000000004
 31
0.0
  0
LINE
  8
0
 62
0
 10
426.2120000000001
 20
35.81400000000006
 30
0.0
 11
426.2120000000001
 21
35.45840000000004
 31
0.0
  0
ARC
  8
0
 62
0
 10
428.0408000000001
 20
11.582400000000039
 30
0.0
 40
0.254
 50
-180.0
 51
-90.0
  0
ARC
  8
0
 62
0
 10
426.4660000000001
 20
35.45840000000004
 30
0.0
 40
0.254
 50
-180.0
 51
-90.0
  0
LINE
  8
0
 62
0
 10
427.7868000000001
 20
12.43100000000004
 30
0.0
 11
427.7868000000001
 21
11.582400000000039
 31
0.0
  0
LINE
  8
0
 62
0
 10
426.4660000000001
 20
35.20440000000004
 30
0.0
 11
428.59960000000007
 21
35.20440000000004
 31
0.0
  0
ARC
  8
0
 62
0
 10
428.0408000000001
 20
12.43100000000004
 30
0.0
 40
0.254
 50
90.0
 51
-180.0
  0
LINE
  8
0
 62
0
 10
428.59960000000007
 20
35.20440000000004
 30
0.0
 11
428.59960000000007
 21
28.04160000000004
 31
0.0
  0
LINE
  8
0
 62
0
 10
428.0408000000001
 20
12.68500000000004
 30
0.0
 11
429.65600000000006
 21
12.68500000000004
 31
0.0
  0
LINE
  8
0
 62
0
 10
428.59960000000007
 20
28.04160000000004
 30
0.0
 11
428.0408000000001
 21
28.04160000000004
 31
0.0
  0
ARC
  8
0
 62
0
 10
429.65600000000006
 20
12.93900000000004
 30
0.0
 40
0.254
 50
-90.0
 51
-0.0
  0
ARC
  8
0
 62
0
 10
428.0408000000001
 20
27.78760000000004
 30
0.0
 40
0.254
 50
90.0
 51
-180.0
  0
LINE
  8
0
 62
0
 10
429.9100000000001
 20
12.939000000000041
 30
0.0
 11
429.9100000000001
 21
26.43100000000004
 31
0.0
  0
LINE
  8
0
 62
0
 10
427.7868000000001
 20
27.787600000000037
 30
0.0
 11
427.7868000000001
 21
26.93900000000004
 31
0.0
  0
ARC
  8
0
 62
0
 10
429.65600000000006
 20
26.43100000000004
 30
0.0
 40
0.254
 50
-0.0
 51
90.0
  0
ARC
  8
0
 62
0
 10
428.0408000000001
 20
26.939000000000043
 30
0.0
 40
0.254
 50
-180.0
 51
-90.0
  0
LINE
  8
0
 62
0
 10
429.65600000000006
 20
26.68500000000004
 30
0.0
 11
428.0408000000001
 21
26.68500000000004
 31
0.0
  0
LINE
  8
0
 62
0
 10
268.20899999999995
 20
50.78499999999993
 30
0.0
 11
268.8843999999999
 21
50.78499999999993
 31
0.0
  0
ARC
  8
0
 62
0
 10
268.8843999999999
 20
50.530999999999935
 30
0.0
 40
0.254
 50
-0.0
 51
90.0
  0
ARC
  8
0
 62
0
 10
268.20899999999995
 20
51.03899999999993
 30
0.0
 40
0.254
 50
-180.0
 51
-90.0
  0
LINE
  8
0
 62
0
 10
269.13839999999993
 20
50.530999999999935
 30
0.0
 11
269.13839999999993
 21
49.68239999999994
 31
0.0
  0
LINE
  8
0
 62
0
 10
267.9549999999999
 20
64.53099999999993
 30
0.0
 11
267.9549999999999
 21
51.03899999999993
 31
0.0
  0
ARC
  8
0
 62
0
 10
268.8843999999999
 20
49.68239999999994
 30
0.0
 40
0.254
 50
-90.0
 51
-0.0
  0
ARC
  8
0
 62
0
 10
268.20899999999995
 20
64.53099999999993
 30
0.0
 40
0.254
 50
90.0
 51
-180.0
  0
LINE
  8
0
 62
0
 10
268.8843999999999
 20
49.42839999999994
 30
0.0
 11
268.35099999999994
 21
49.42839999999994
 31
0.0
  0
LINE
  8
0
 62
0
 10
268.8843999999999
 20
64.78499999999994
 30
0.0
 11
268.20899999999995
 21
64.78499999999994
 31
0.0
  0
LINE
  8
0
 62
0
 10
268.35099999999994
 20
49.42839999999994
 30
0.0
 11
268.35099999999994
 21
47.624999999999936
 31
0.0
  0
ARC
  8
0
 62
0
 10
268.8843999999999
 20
65.03899999999994
 30
0.0
 40
0.254
 50
-90.0
 51
-0.0
  0
ARC
  8
0
 62
0
 10
268.0969999999999
 20
47.624999999999936
 30
0.0
 40
0.254
 50
-90.0
 51
-0.0
  0
LINE
  8
0
 62
0
 10
269.13839999999993
 20
65.03899999999994
 30
0.0
 11
269.13839999999993
 21
65.88759999999994
 31
0.0
  0
LINE
  8
0
 62
0
 10
268.0969999999999
 20
47.37099999999994
 30
0.0
 11
267.43659999999994
 21
47.37099999999994
 31
0.0
  0
ARC
  8
0
 62
0
 10
268.8843999999999
 20
65.88759999999994
 30
0.0
 40
0.254
 50
-0.0
 51
90.0
  0
ARC
  8
0
 62
0
 10
267.43659999999994
 20
47.11699999999994
 30
0.0
 40
0.254
 50
90.0
 51
-180.0
  0
LINE
  8
0
 62
0
 10
268.8843999999999
 20
66.14159999999994
 30
0.0
 11
268.35099999999994
 21
66.14159999999994
 31
0.0
  0
LINE
  8
0
 62
0
 10
267.1825999999999
 20
47.11699999999994
 30
0.0
 11
267.1825999999999
 21
44.576999999999934
 31
0.0
  0
LINE
  8
0
 62
0
 10
268.35099999999994
 20
66.14159999999994
 30
0.0
 11
268.35099999999994
 21
67.94499999999994
 31
0.0
  0
ARC
  8
0
 62
0
 10
267.43659999999994
 20
44.576999999999934
 30
0.0
 40
0.254
 50
-180.0
 51
-90.0
  0
ARC
  8
0
 62
0
 10
268.0969999999999
 20
67.94499999999994
 30
0.0
 40
0.254
 50
-0.0
 51
90.0
  0
LINE
  8
0
 62
0
 10
267.43659999999994
 20
44.32299999999994
 30
0.0
 11
268.0969999999999
 21
44.32299999999994
 31
0.0
  0
LINE
  8
0
 62
0
 10
268.0969999999999
 20
68.19899999999994
 30
0.0
 11
267.43659999999994
 21
68.19899999999994
 31
0.0
  0
ARC
  8
0
 62
0
 10
268.0969999999999
 20
44.06899999999994
 30
0.0
 40
0.254
 50
-0.0
 51
90.0
  0
ARC
  8
0
 62
0
 10
267.43659999999994
 20
68.45299999999995
 30
0.0
 40
0.254
 50
-180.0
 51
-90.0
  0
LINE
  8
0
 62
0
 10
268.35099999999994
 20
44.06899999999994
 30
0.0
 11
268.35099999999994
 21
42.26559999999994
 31
0.0
  0
LINE
  8
0
 62
0
 10
267.1825999999999
 20
68.45299999999995
 30
0.0
 11
267.1825999999999
 21
70.99299999999994
 31
0.0
  0
LINE
  8
0
 62
0
 10
268.35099999999994
 20
42.26559999999994
 30
0.0
 11
275.2089999999999
 21
42.26559999999994
 31
0.0
  0
ARC
  8
0
 62
0
 10
267.43659999999994
 20
70.99299999999994
 30
0.0
 40
0.254
 50
90.0
 51
-180.0
  0
ARC
  8
0
 62
0
 10
275.2089999999999
 20
42.011599999999945
 30
0.0
 40
0.254
 50
-0.0
 51
90.0
  0
LINE
  8
0
 62
0
 10
267.43659999999994
 20
71.24699999999994
 30
0.0
 11
268.0969999999999
 21
71.24699999999994
 31
0.0
  0
LINE
  8
0
 62
0
 10
275.4629999999999
 20
42.011599999999945
 30
0.0
 11
275.4629999999999
 21
41.65599999999993
 31
0.0
  0
ARC
  8
0
 62
0
 10
268.0969999999999
 20
71.50099999999995
 30
0.0
 40
0.254
 50
-90.0
 51
-0.0
  0
ARC
  8
0
 62
0
 10
275.7169999999999
 20
41.65599999999993
 30
0.0
 40
0.254
 50
-180.0
 51
-90.0
  0
LINE
  8
0
 62
0
 10
268.35099999999994
 20
71.50099999999995
 30
0.0
 11
268.35099999999994
 21
73.30439999999994
 31
0.0
  0
LINE
  8
0
 62
0
 10
275.7169999999999
 20
41.40199999999993
 30
0.0
 11
278.00299999999993
 21
41.40199999999993
 31
0.0
  0
LINE
  8
0
 62
0
 10
268.35099999999994
 20
73.30439999999994
 30
0.0
 11
275.2089999999999
 21
73.30439999999994
 31
0.0
  0
ARC
  8
0
 62
0
 10
278.00299999999993
 20
41.65599999999993
 30
0.0
 40
0.254
 50
-90.0
 51
-0.0
  0
ARC
  8
0
 62
0
 10
275.2089999999999
 20
73.55839999999995
 30
0.0
 40
0.254
 50
-90.0
 51
-0.0
  0
LINE
  8
0
 62
0
 10
278.25699999999995
 20
42.011599999999945
 30
0.0
 11
278.25699999999995
 21
41.65599999999993
 31
0.0
  0
LINE
  8
0
 62
0
 10
275.4629999999999
 20
73.55839999999995
 30
0.0
 11
275.4629999999999
 21
73.91400000000002
 31
0.0
  0
ARC
  8
0
 62
0
 10
278.51099999999997
 20
42.011599999999945
 30
0.0
 40
0.254
 50
90.0
 51
-180.0
  0
ARC
  8
0
 62
0
 10
275.7169999999999
 20
73.91400000000002
 30
0.0
 40
0.254
 50
90.0
 51
-180.0
  0
LINE
  8
0
 62
0
 10
280.6445999999999
 20
42.26559999999994
 30
0.0
 11
278.51099999999997
 21
42.26559999999994
 31
0.0
  0
LINE
  8
0
 62
0
 10
275.7169999999999
 20
74.16800000000002
 30
0.0
 11
278.00299999999993
 21
74.16800000000002
 31
0.0
  0
LINE
  8
0
 62
0
 10
280.6445999999999
 20
49.42839999999994
 30
0.0
 11
280.6445999999999
 21
42.26559999999994
 31
0.0
  0
ARC
  8
0
 62
0
 10
278.00299999999993
 20
73.91400000000002
 30
0.0
 40
0.254
 50
-0.0
 51
90.0
  0
LINE
  8
0
 62
0
 10
280.08579999999995
 20
49.42839999999994
 30
0.0
 11
280.6445999999999
 21
49.42839999999994
 31
0.0
  0
LINE
  8
0
 62
0
 10
278.25699999999995
 20
73.91400000000002
 30
0.0
 11
278.25699999999995
 21
73.55839999999995
 31
0.0
  0
ARC
  8
0
 62
0
 10
280.08579999999995
 20
49.68239999999994
 30
0.0
 40
0.254
 50
-180.0
 51
-90.0
  0
ARC
  8
0
 62
0
 10
278.51099999999997
 20
73.55839999999995
 30
0.0
 40
0.254
 50
-180.0
 51
-90.0
  0
LINE
  8
0
 62
0
 10
279.83179999999993
 20
50.530999999999935
 30
0.0
 11
279.83179999999993
 21
49.68239999999994
 31
0.0
  0
LINE
  8
0
 62
0
 10
278.51099999999997
 20
73.30439999999994
 30
0.0
 11
280.6445999999999
 21
73.30439999999994
 31
0.0
  0
ARC
  8
0
 62
0
 10
280.08579999999995
 20
50.530999999999935
 30
0.0
 40
0.254
 50
90.0
 51
-180.0
  0
LINE
  8
0
 62
0
 10
280.6445999999999
 20
73.30439999999994
 30
0.0
 11
280.6445999999999
 21
66.14159999999994
 31
0.0
  0
LINE
  8
0
 62
0
 10
280.08579999999995
 20
50.78499999999993
 30
0.0
 11
281.7009999999999
 21
50.78499999999993
 31
0.0
  0
LINE
  8
0
 62
0
 10
280.6445999999999
 20
66.14159999999994
 30
0.0
 11
280.08579999999995
 21
66.14159999999994
 31
0.0
  0
ARC
  8
0
 62
0
 10
281.7009999999999
 20
51.03899999999993
 30
0.0
 40
0.254
 50
-90.0
 51
-0.0
  0
ARC
  8
0
 62
0
 10
280.08579999999995
 20
65.88759999999994
 30
0.0
 40
0.254
 50
90.0
 51
-180.0
  0
LINE
  8
0
 62
0
 10
281.9549999999999
 20
51.03899999999993
 30
0.0
 11
281.9549999999999
 21
64.53099999999993
 31
0.0
  0
LINE
  8
0
 62
0
 10
279.83179999999993
 20
65.88759999999994
 30
0.0
 11
279.83179999999993
 21
65.03899999999994
 31
0.0
  0
ARC
  8
0
 62
0
 10
281.7009999999999
 20
64.53099999999993
 30
0.0
 40
0.254
 50
-0.0
 51
90.0
  0
ARC
  8
0
 62
0
 10
280.08579999999995
 20
65.03899999999994
 30
0.0
 40
0.254
 50
-180.0
 51
-90.0
  0
LINE
  8
0
 62
0
 10
281.7009999999999
 20
64.78499999999994
 30
0.0
 11
280.08579999999995
 21
64.78499999999994
 31
0.0
  0
LINE
  8
0
 62
0
 10
416.16400000000004
 20
50.78500000000012
 30
0.0
 11
416.83940000000007
 21
50.78500000000012
 31
0.0
  0
ARC
  8
0
 62
0
 10
416.83940000000007
 20
50.53100000000012
 30
0.0
 40
0.254
 50
-0.0
 51
90.0
  0
ARC
  8
0
 62
0
 10
416.16400000000004
 20
51.039000000000115
 30
0.0
 40
0.254
 50
-180.0
 51
-90.0
  0
LINE
  8
0
 62
0
 10
417.0934000000001
 20
50.53100000000012
 30
0.0
 11
417.0934000000001
 21
49.682400000000115
 31
0.0
  0
LINE
  8
0
 62
0
 10
415.91
 20
64.5310000000001
 30
0.0
 11
415.91
 21
51.039000000000115
 31
0.0
  0
ARC
  8
0
 62
0
 10
416.83940000000007
 20
49.682400000000115
 30
0.0
 40
0.254
 50
-90.0
 51
-0.0
  0
ARC
  8
0
 62
0
 10
416.16400000000004
 20
64.5310000000001
 30
0.0
 40
0.254
 50
90.0
 51
-180.0
  0
LINE
  8
0
 62
0
 10
416.83940000000007
 20
49.42840000000012
 30
0.0
 11
416.3060000000001
 21
49.42840000000012
 31
0.0
  0
LINE
  8
0
 62
0
 10
416.83940000000007
 20
64.78500000000011
 30
0.0
 11
416.16400000000004
 21
64.78500000000011
 31
0.0
  0
LINE
  8
0
 62
0
 10
416.3060000000001
 20
49.42840000000012
 30
0.0
 11
416.3060000000001
 21
47.625000000000114
 31
0.0
  0
ARC
  8
0
 62
0
 10
416.83940000000007
 20
65.03900000000012
 30
0.0
 40
0.254
 50
-90.0
 51
-0.0
  0
ARC
  8
0
 62
0
 10
416.0520000000001
 20
47.625000000000114
 30
0.0
 40
0.254
 50
-90.0
 51
-0.0
  0
LINE
  8
0
 62
0
 10
417.0934000000001
 20
65.03900000000012
 30
0.0
 11
417.0934000000001
 21
65.88760000000012
 31
0.0
  0
LINE
  8
0
 62
0
 10
416.0520000000001
 20
47.371000000000116
 30
0.0
 11
415.3916000000001
 21
47.371000000000116
 31
0.0
  0
ARC
  8
0
 62
0
 10
416.83940000000007
 20
65.88760000000012
 30
0.0
 40
0.254
 50
-0.0
 51
90.0
  0
ARC
  8
0
 62
0
 10
415.3916000000001
 20
47.11700000000012
 30
0.0
 40
0.254
 50
90.0
 51
-180.0
  0
LINE
  8
0
 62
0
 10
416.83940000000007
 20
66.14160000000012
 30
0.0
 11
416.3060000000001
 21
66.14160000000012
 31
0.0
  0
LINE
  8
0
 62
0
 10
415.1376000000001
 20
47.11700000000012
 30
0.0
 11
415.1376000000001
 21
44.57700000000011
 31
0.0
  0
LINE
  8
0
 62
0
 10
416.3060000000001
 20
66.14160000000012
 30
0.0
 11
416.3060000000001
 21
67.9450000000001
 31
0.0
  0
ARC
  8
0
 62
0
 10
415.3916000000001
 20
44.57700000000011
 30
0.0
 40
0.254
 50
-180.0
 51
-90.0
  0
ARC
  8
0
 62
0
 10
416.0520000000001
 20
67.9450000000001
 30
0.0
 40
0.254
 50
-0.0
 51
90.0
  0
LINE
  8
0
 62
0
 10
415.3916000000001
 20
44.323000000000114
 30
0.0
 11
416.0520000000001
 21
44.323000000000114
 31
0.0
  0
LINE
  8
0
 62
0
 10
416.0520000000001
 20
68.19900000000011
 30
0.0
 11
415.3916000000001
 21
68.19900000000011
 31
0.0
  0
ARC
  8
0
 62
0
 10
416.0520000000001
 20
44.069000000000116
 30
0.0
 40
0.254
 50
-0.0
 51
90.0
  0
ARC
  8
0
 62
0
 10
415.3916000000001
 20
68.45300000000012
 30
0.0
 40
0.254
 50
-180.0
 51
-90.0
  0
LINE
  8
0
 62
0
 10
416.3060000000001
 20
44.069000000000116
 30
0.0
 11
416.3060000000001
 21
42.26560000000012
 31
0.0
  0
LINE
  8
0
 62
0
 10
415.1376000000001
 20
70.99300000000011
 30
0.0
 11
415.1376000000001
 21
68.45300000000012
 31
0.0
  0
LINE
  8
0
 62
0
 10
416.3060000000001
 20
42.26560000000012
 30
0.0
 11
423.16400000000004
 21
42.26560000000012
 31
0.0
  0
ARC
  8
0
 62
0
 10
415.3916000000001
 20
70.99300000000011
 30
0.0
 40
0.254
 50
90.0
 51
-180.0
  0
ARC
  8
0
 62
0
 10
423.16400000000004
 20
42.01160000000012
 30
0.0
 40
0.254
 50
-0.0
 51
90.0
  0
LINE
  8
0
 62
0
 10
416.0520000000001
 20
71.24700000000011
 30
0.0
 11
415.3916000000001
 21
71.24700000000011
 31
0.0
  0
LINE
  8
0
 62
0
 10
423.41800000000006
 20
42.01160000000012
 30
0.0
 11
423.41800000000006
 21
41.65600000000037
 31
0.0
  0
ARC
  8
0
 62
0
 10
416.0520000000001
 20
71.50100000000012
 30
0.0
 40
0.254
 50
-90.0
 51
-0.0
  0
ARC
  8
0
 62
0
 10
423.6720000000001
 20
41.65600000000037
 30
0.0
 40
0.254
 50
-180.0
 51
-90.0
  0
LINE
  8
0
 62
0
 10
416.3060000000001
 20
73.30440000000011
 30
0.0
 11
416.3060000000001
 21
71.50100000000012
 31
0.0
  0
LINE
  8
0
 62
0
 10
423.6720000000001
 20
41.40200000000037
 30
0.0
 11
425.9580000000001
 21
41.40200000000037
 31
0.0
  0
LINE
  8
0
 62
0
 10
423.16400000000004
 20
73.30440000000011
 30
0.0
 11
416.3060000000001
 21
73.30440000000011
 31
0.0
  0
ARC
  8
0
 62
0
 10
425.9580000000001
 20
41.65600000000037
 30
0.0
 40
0.254
 50
-90.0
 51
-0.0
  0
ARC
  8
0
 62
0
 10
423.16400000000004
 20
73.55840000000012
 30
0.0
 40
0.254
 50
-90.0
 51
-0.0
  0
LINE
  8
0
 62
0
 10
426.2120000000001
 20
41.65600000000037
 30
0.0
 11
426.2120000000001
 21
42.01160000000012
 31
0.0
  0
LINE
  8
0
 62
0
 10
423.41800000000006
 20
73.91400000000026
 30
0.0
 11
423.41800000000006
 21
73.55840000000012
 31
0.0
  0
ARC
  8
0
 62
0
 10
426.4660000000001
 20
42.01160000000012
 30
0.0
 40
0.254
 50
90.0
 51
-180.0
  0
ARC
  8
0
 62
0
 10
423.6720000000001
 20
73.91400000000026
 30
0.0
 40
0.254
 50
90.0
 51
-180.0
  0
LINE
  8
0
 62
0
 10
426.4660000000001
 20
42.26560000000012
 30
0.0
 11
428.59960000000007
 21
42.26560000000012
 31
0.0
  0
LINE
  8
0
 62
0
 10
425.9580000000001
 20
74.16800000000026
 30
0.0
 11
423.6720000000001
 21
74.16800000000026
 31
0.0
  0
LINE
  8
0
 62
0
 10
428.59960000000007
 20
42.26560000000012
 30
0.0
 11
428.59960000000007
 21
49.42840000000012
 31
0.0
  0
ARC
  8
0
 62
0
 10
425.9580000000001
 20
73.91400000000026
 30
0.0
 40
0.254
 50
-0.0
 51
90.0
  0
LINE
  8
0
 62
0
 10
428.0408000000001
 20
49.42840000000012
 30
0.0
 11
428.59960000000007
 21
49.42840000000012
 31
0.0
  0
LINE
  8
0
 62
0
 10
426.2120000000001
 20
73.55840000000012
 30
0.0
 11
426.2120000000001
 21
73.91400000000026
 31
0.0
  0
ARC
  8
0
 62
0
 10
428.0408000000001
 20
49.682400000000115
 30
0.0
 40
0.254
 50
-180.0
 51
-90.0
  0
ARC
  8
0
 62
0
 10
426.4660000000001
 20
73.55840000000012
 30
0.0
 40
0.254
 50
-180.0
 51
-90.0
  0
LINE
  8
0
 62
0
 10
427.7868000000001
 20
50.53100000000012
 30
0.0
 11
427.7868000000001
 21
49.682400000000115
 31
0.0
  0
LINE
  8
0
 62
0
 10
428.59960000000007
 20
73.30440000000011
 30
0.0
 11
426.4660000000001
 21
73.30440000000011
 31
0.0
  0
ARC
  8
0
 62
0
 10
428.0408000000001
 20
50.53100000000012
 30
0.0
 40
0.254
 50
90.0
 51
-180.0
  0
LINE
  8
0
 62
0
 10
428.59960000000007
 20
66.14160000000012
 30
0.0
 11
428.59960000000007
 21
73.30440000000011
 31
0.0
  0
LINE
  8
0
 62
0
 10
428.0408000000001
 20
50.78500000000012
 30
0.0
 11
429.656
 21
50.78500000000012
 31
0.0
  0
LINE
  8
0
 62
0
 10
428.0408000000001
 20
66.14160000000012
 30
0.0
 11
428.59960000000007
 21
66.14160000000012
 31
0.0
  0
ARC
  8
0
 62
0
 10
429.656
 20
51.039000000000115
 30
0.0
 40
0.254
 50
-90.0
 51
-0.0
  0
ARC
  8
0
 62
0
 10
428.0408000000001
 20
65.88760000000012
 30
0.0
 40
0.254
 50
90.0
 51
-180.0
  0
LINE
  8
0
 62
0
 10
429.91
 20
51.039000000000115
 30
0.0
 11
429.91
 21
64.5310000000001
 31
0.0
  0
LINE
  8
0
 62
0
 10
427.7868000000001
 20
65.03900000000012
 30
0.0
 11
427.7868000000001
 21
65.88760000000012
 31
0.0
  0
ARC
  8
0
 62
0
 10
429.656
 20
64.5310000000001
 30
0.0
 40
0.254
 50
-0.0
 51
90.0
  0
ARC
  8
0
 62
0
 10
428.0408000000001
 20
65.03900000000012
 30
0.0
 40
0.254
 50
-180.0
 51
-90.0
  0
LINE
  8
0
 62
0
 10
429.656
 20
64.78500000000011
 30
0.0
 11
428.0408000000001
 21
64.78500000000011
 31
0.0
  0
LINE
  8
0
 62
0
 10
260.33500000000004
 20
93.10599999999974
 30
0.0
 11
260.33500000000004
 21
91.49079999999975
 31
0.0
  0
ARC
  8
0
 62
0
 10
260.081
 20
91.49079999999975
 30
0.0
 40
0.254
 50
-90.0
 51
-0.0
  0
ARC
  8
0
 62
0
 10
260.58900000000006
 20
93.10599999999974
 30
0.0
 40
0.254
 50
90.0
 51
-180.0
  0
LINE
  8
0
 62
0
 10
260.081
 20
91.23679999999975
 30
0.0
 11
259.23240000000004
 21
91.23679999999975
 31
0.0
  0
LINE
  8
0
 62
0
 10
274.081
 20
93.35999999999974
 30
0.0
 11
260.58900000000006
 21
93.35999999999974
 31
0.0
  0
ARC
  8
0
 62
0
 10
259.23240000000004
 20
91.49079999999975
 30
0.0
 40
0.254
 50
-180.0
 51
-90.0
  0
ARC
  8
0
 62
0
 10
274.081
 20
93.10599999999974
 30
0.0
 40
0.254
 50
-0.0
 51
90.0
  0
LINE
  8
0
 62
0
 10
258.9784
 20
91.49079999999975
 30
0.0
 11
258.9784
 21
92.04959999999974
 31
0.0
  0
LINE
  8
0
 62
0
 10
274.33500000000004
 20
91.49079999999975
 30
0.0
 11
274.33500000000004
 21
93.10599999999974
 31
0.0
  0
LINE
  8
0
 62
0
 10
258.9784
 20
92.04959999999974
 30
0.0
 11
251.81560000000005
 21
92.04959999999974
 31
0.0
  0
ARC
  8
0
 62
0
 10
274.58900000000006
 20
91.49079999999975
 30
0.0
 40
0.254
 50
-180.0
 51
-90.0
  0
LINE
  8
0
 62
0
 10
251.81560000000005
 20
88.89999999999975
 30
0.0
 11
251.81560000000005
 21
92.04959999999974
 31
0.0
  0
LINE
  8
0
 62
0
 10
275.43760000000003
 20
91.23679999999975
 30
0.0
 11
274.58900000000006
 21
91.23679999999975
 31
0.0
  0
ARC
  8
0
 62
0
 10
251.56160000000006
 20
88.89999999999975
 30
0.0
 40
0.254
 50
-90.0
 51
-0.0
  0
ARC
  8
0
 62
0
 10
275.43760000000003
 20
91.49079999999975
 30
0.0
 40
0.254
 50
-90.0
 51
-0.0
  0
LINE
  8
0
 62
0
 10
251.20600000000024
 20
88.64599999999975
 30
0.0
 11
251.56160000000006
 21
88.64599999999975
 31
0.0
  0
LINE
  8
0
 62
0
 10
275.69160000000005
 20
92.04959999999974
 30
0.0
 11
275.69160000000005
 21
91.49079999999975
 31
0.0
  0
ARC
  8
0
 62
0
 10
251.20600000000024
 20
88.39199999999974
 30
0.0
 40
0.254
 50
90.0
 51
-180.0
  0
LINE
  8
0
 62
0
 10
282.85440000000006
 20
92.04959999999974
 30
0.0
 11
275.69160000000005
 21
92.04959999999974
 31
0.0
  0
LINE
  8
0
 62
0
 10
250.95200000000025
 20
86.10599999999975
 30
0.0
 11
250.95200000000025
 21
88.39199999999974
 31
0.0
  0
LINE
  8
0
 62
0
 10
282.85440000000006
 20
88.89999999999975
 30
0.0
 11
282.85440000000006
 21
92.04959999999974
 31
0.0
  0
ARC
  8
0
 62
0
 10
251.20600000000024
 20
86.10599999999975
 30
0.0
 40
0.254
 50
-180.0
 51
-90.0
  0
ARC
  8
0
 62
0
 10
283.1084000000001
 20
88.89999999999975
 30
0.0
 40
0.254
 50
-180.0
 51
-90.0
  0
LINE
  8
0
 62
0
 10
251.56160000000006
 20
85.85199999999975
 30
0.0
 11
251.20600000000024
 21
85.85199999999975
 31
0.0
  0
LINE
  8
0
 62
0
 10
283.46400000000006
 20
88.64599999999975
 30
0.0
 11
283.1084000000001
 21
88.64599999999975
 31
0.0
  0
ARC
  8
0
 62
0
 10
251.56160000000006
 20
85.59799999999974
 30
0.0
 40
0.254
 50
-0.0
 51
90.0
  0
ARC
  8
0
 62
0
 10
283.46400000000006
 20
88.39199999999974
 30
0.0
 40
0.254
 50
-0.0
 51
90.0
  0
LINE
  8
0
 62
0
 10
251.81560000000005
 20
79.75599999999974
 30
0.0
 11
251.81560000000005
 21
85.59799999999974
 31
0.0
  0
LINE
  8
0
 62
0
 10
283.7180000000001
 20
86.10599999999975
 30
0.0
 11
283.7180000000001
 21
88.39199999999974
 31
0.0
  0
LINE
  8
0
 62
0
 10
253.61900000000006
 20
79.75599999999974
 30
0.0
 11
251.81560000000005
 21
79.75599999999974
 31
0.0
  0
ARC
  8
0
 62
0
 10
283.46400000000006
 20
86.10599999999975
 30
0.0
 40
0.254
 50
-90.0
 51
-0.0
  0
ARC
  8
0
 62
0
 10
253.61900000000006
 20
79.50199999999974
 30
0.0
 40
0.254
 50
-0.0
 51
90.0
  0
LINE
  8
0
 62
0
 10
283.1084000000001
 20
85.85199999999975
 30
0.0
 11
283.46400000000006
 21
85.85199999999975
 31
0.0
  0
LINE
  8
0
 62
0
 10
253.87300000000005
 20
78.84159999999974
 30
0.0
 11
253.87300000000005
 21
79.50199999999974
 31
0.0
  0
ARC
  8
0
 62
0
 10
283.1084000000001
 20
85.59799999999974
 30
0.0
 40
0.254
 50
90.0
 51
-180.0
  0
ARC
  8
0
 62
0
 10
254.12700000000004
 20
78.84159999999974
 30
0.0
 40
0.254
 50
-180.0
 51
-90.0
  0
LINE
  8
0
 62
0
 10
282.85440000000006
 20
79.75599999999974
 30
0.0
 11
282.85440000000006
 21
85.59799999999974
 31
0.0
  0
LINE
  8
0
 62
0
 10
256.66700000000003
 20
78.58759999999974
 30
0.0
 11
254.12700000000004
 21
78.58759999999974
 31
0.0
  0
LINE
  8
0
 62
0
 10
281.05100000000004
 20
79.75599999999974
 30
0.0
 11
282.85440000000006
 21
79.75599999999974
 31
0.0
  0
ARC
  8
0
 62
0
 10
256.66700000000003
 20
78.84159999999974
 30
0.0
 40
0.254
 50
-90.0
 51
-0.0
  0
ARC
  8
0
 62
0
 10
281.05100000000004
 20
79.50199999999974
 30
0.0
 40
0.254
 50
90.0
 51
-180.0
  0
LINE
  8
0
 62
0
 10
256.92100000000005
 20
79.50199999999974
 30
0.0
 11
256.92100000000005
 21
78.84159999999974
 31
0.0
  0
LINE
  8
0
 62
0
 10
280.797
 20
78.84159999999974
 30
0.0
 11
280.797
 21
79.50199999999974
 31
0.0
  0
ARC
  8
0
 62
0
 10
257.17500000000007
 20
79.50199999999974
 30
0.0
 40
0.254
 50
90.0
 51
-180.0
  0
ARC
  8
0
 62
0
 10
280.543
 20
78.84159999999974
 30
0.0
 40
0.254
 50
-90.0
 51
-0.0
  0
LINE
  8
0
 62
0
 10
258.9784
 20
79.75599999999974
 30
0.0
 11
257.17500000000007
 21
79.75599999999974
 31
0.0
  0
LINE
  8
0
 62
0
 10
278.00300000000004
 20
78.58759999999974
 30
0.0
 11
280.543
 21
78.58759999999974
 31
0.0
  0
LINE
  8
0
 62
0
 10
258.9784
 20
80.28939999999974
 30
0.0
 11
258.9784
 21
79.75599999999974
 31
0.0
  0
ARC
  8
0
 62
0
 10
278.00300000000004
 20
78.84159999999974
 30
0.0
 40
0.254
 50
-180.0
 51
-90.0
  0
ARC
  8
0
 62
0
 10
259.23240000000004
 20
80.28939999999974
 30
0.0
 40
0.254
 50
90.0
 51
-180.0
  0
LINE
  8
0
 62
0
 10
277.749
 20
79.50199999999974
 30
0.0
 11
277.749
 21
78.84159999999974
 31
0.0
  0
LINE
  8
0
 62
0
 10
260.081
 20
80.54339999999975
 30
0.0
 11
259.23240000000004
 21
80.54339999999975
 31
0.0
  0
ARC
  8
0
 62
0
 10
277.495
 20
79.50199999999974
 30
0.0
 40
0.254
 50
-0.0
 51
90.0
  0
ARC
  8
0
 62
0
 10
260.081
 20
80.28939999999974
 30
0.0
 40
0.254
 50
-0.0
 51
90.0
  0
LINE
  8
0
 62
0
 10
275.69160000000005
 20
79.75599999999974
 30
0.0
 11
277.495
 21
79.75599999999974
 31
0.0
  0
LINE
  8
0
 62
0
 10
260.33500000000004
 20
80.28939999999974
 30
0.0
 11
260.33500000000004
 21
79.61399999999975
 31
0.0
  0
LINE
  8
0
 62
0
 10
275.69160000000005
 20
80.28939999999974
 30
0.0
 11
275.69160000000005
 21
79.75599999999974
 31
0.0
  0
ARC
  8
0
 62
0
 10
260.58900000000006
 20
79.61399999999975
 30
0.0
 40
0.254
 50
-180.0
 51
-90.0
  0
ARC
  8
0
 62
0
 10
275.43760000000003
 20
80.28939999999974
 30
0.0
 40
0.254
 50
-0.0
 51
90.0
  0
LINE
  8
0
 62
0
 10
260.58900000000006
 20
79.35999999999974
 30
0.0
 11
274.081
 21
79.35999999999974
 31
0.0
  0
LINE
  8
0
 62
0
 10
274.58900000000006
 20
80.54339999999975
 30
0.0
 11
275.43760000000003
 21
80.54339999999975
 31
0.0
  0
ARC
  8
0
 62
0
 10
274.081
 20
79.61399999999975
 30
0.0
 40
0.254
 50
-90.0
 51
-0.0
  0
ARC
  8
0
 62
0
 10
274.58900000000006
 20
80.28939999999974
 30
0.0
 40
0.254
 50
90.0
 51
-180.0
  0
LINE
  8
0
 62
0
 10
274.33500000000004
 20
79.61399999999975
 30
0.0
 11
274.33500000000004
 21
80.28939999999974
 31
0.0
  0
ENDBLK
  0
ENDSEC
  0
SECTION
  2
ENTITIES
  0
INSERT
  2
BODY
  8
0
 62
0
 10
0.0
 20
0.0
 30
0.0
  0
ENDSEC
  0
EOF
