  0
SECTION
  2
HEADER
  9
$ACADVER
  1
AC1009
  9
$INSBASE
 10
0.0
 20
0.0
 30
0.0
  9
$EXTMIN
 10
0.0
 20
0.0
 30
0.0
  9
$EXTMAX
 10
0.0
 20
0.0
 30
0.0
  0
ENDSEC
  0
SECTION
  2
TABLES
  0
TABLE
  2
VPORT
 70
0
  0
ENDTAB
  0
TABLE
  2
LTYPE
 70
1
  0
LTYPE
  2
CONTINUOUS
 70
0
  3
Solid line
 72
65
 73
0
 40
0.0
  0
ENDTAB
  0
TABLE
  2
LAYER
 70
1
  0
LAYER
  2
0
 70
64
 62
7
  6
continuous
  0
ENDTAB
  0
TABLE
  2
STYLE
 70
1
  0
STYLE
  2
STANDARD
 70
0
 40
0
 41
1.0
 50
0.0
 71
0
 42
1
 3
ARIAL.TTF
 4

  0
ENDTAB
  0
TABLE
  2
VIEW
 70
0
  0
ENDTAB
  0
ENDSEC
  0
SECTION
  2
BLOCKS
  0
BLOCK
  8
0
  2
BODY
 70
0
 10
0.0
 20
0.0
 30
0.0
  3
BODY
  0
LINE
  8
0
 62
0
 10
5.9540000000000095
 20
3.16
 30
0.0
 11
19.44600000000001
 21
3.16
 31
0.0
  0
ARC
  8
0
 62
0
 10
5.953999999999999
 20
3.414
 30
0.0
 40
0.254
 50
180.0
 51
-89.999999999999
  0
ARC
  8
0
 62
0
 10
19.445999999999998
 20
3.414
 30
0.0
 40
0.254
 50
-90.0
 51
0.0
  0
LINE
  8
0
 62
0
 10
5.699999999999999
 20
4.6437974047828305
 30
0.0
 11
5.699999999999999
 21
3.4140000000000033
 31
0.0
  0
LINE
  8
0
 62
0
 10
19.7
 20
3.4140000000000037
 30
0.0
 11
19.7
 21
16.906000000000002
 31
0.0
  0
ARC
  8
0
 62
0
 10
4.445
 20
5.715
 30
0.0
 40
1.65
 50
40.48234397937185
 51
-40.48234397937178
  0
ARC
  8
0
 62
0
 10
19.445999999999998
 20
16.906
 30
0.0
 40
0.254
 50
-0.0
 51
90.0
  0
LINE
  8
0
 62
0
 10
5.699999999999999
 20
16.906000000000002
 30
0.0
 11
5.699999999999999
 21
6.786202595217169
 31
0.0
  0
LINE
  8
0
 62
0
 10
19.44600000000001
 20
17.16
 30
0.0
 11
5.9540000000000095
 21
17.16
 31
0.0
  0
ARC
  8
0
 62
0
 10
5.953999999999999
 20
16.906
 30
0.0
 40
0.254
 50
89.999999999999
 51
-180.0
  0
LINE
  8
0
 62
0
 10
433.07
 20
126.365
 30
0.0
 11
433.07
 21
133.35
 31
0.0
  0
ARC
  8
0
 62
0
 10
431.8
 20
126.365
 30
0.0
 40
1.27
 50
-90.0
 51
-0.0
  0
ARC
  8
0
 62
0
 10
430.53
 20
133.35
 30
0.0
 40
2.54
 50
-0.0
 51
90.0
  0
LINE
  8
0
 62
0
 10
423.164
 20
125.095
 30
0.0
 11
431.8
 21
125.095
 31
0.0
  0
LINE
  8
0
 62
0
 10
430.53
 20
135.89
 30
0.0
 11
384.429
 21
135.89
 31
0.0
  0
ARC
  8
0
 62
0
 10
423.164
 20
123.825
 30
0.0
 40
1.27
 50
90.0
 51
-180.0
  0
ARC
  8
0
 62
0
 10
384.429
 20
134.61999999999998
 30
0.0
 40
1.27
 50
90.0
 51
-180.0
  0
LINE
  8
0
 62
0
 10
421.894
 20
113.66499999999999
 30
0.0
 11
421.894
 21
123.825
 31
0.0
  0
LINE
  8
0
 62
0
 10
383.159
 20
134.61999999999998
 30
0.0
 11
383.159
 21
125.09499999999998
 31
0.0
  0
ARC
  8
0
 62
0
 10
423.164
 20
113.66499999999999
 30
0.0
 40
1.27
 50
-180.0
 51
-90.0
  0
ARC
  8
0
 62
0
 10
381.889
 20
125.09499999999998
 30
0.0
 40
1.27
 50
-90.0
 51
-0.0
  0
LINE
  8
0
 62
0
 10
431.8
 20
112.395
 30
0.0
 11
423.164
 21
112.395
 31
0.0
  0
LINE
  8
0
 62
0
 10
381.889
 20
123.82499999999999
 30
0.0
 11
368.681
 21
123.82499999999999
 31
0.0
  0
ARC
  8
0
 62
0
 10
431.8
 20
111.125
 30
0.0
 40
1.27
 50
-0.0
 51
90.0
  0
ARC
  8
0
 62
0
 10
368.681
 20
125.09499999999998
 30
0.0
 40
1.27
 50
-180.0
 51
-90.0
  0
LINE
  8
0
 62
0
 10
433.07
 20
2.54
 30
0.0
 11
433.07
 21
111.125
 31
0.0
  0
LINE
  8
0
 62
0
 10
367.411
 20
125.09499999999998
 30
0.0
 11
367.411
 21
134.61999999999998
 31
0.0
  0
ARC
  8
0
 62
0
 10
430.53
 20
2.5399999999999996
 30
0.0
 40
2.54
 50
-90.0
 51
-0.0
  0
ARC
  8
0
 62
0
 10
366.141
 20
134.61999999999998
 30
0.0
 40
1.27
 50
-0.0
 51
90.0
  0
LINE
  8
0
 62
0
 10
2.54
 20
0.0
 30
0.0
 11
430.53
 21
0.0
 31
0.0
  0
LINE
  8
0
 62
0
 10
366.141
 20
135.89
 30
0.0
 11
360.2516819588037
 21
135.89
 31
0.0
  0
ARC
  8
0
 62
0
 10
2.5399999999999996
 20
2.5399999999999996
 30
0.0
 40
2.54
 50
180.0
 51
-90.00000000000018
  0
ARC
  8
0
 62
0
 10
360.2516819588037
 20
133.85799999999998
 30
0.0
 40
2.032
 50
90.0
 51
135.00000000296768
  0
LINE
  8
0
 62
0
 10
0.0
 20
124.46
 30
0.0
 11
0.0
 21
2.5400000000000063
 31
0.0
  0
LINE
  8
0
 62
0
 10
351.11515902156253
 20
127.59515902070336
 30
0.0
 11
358.8148409793582
 21
135.29484097929662
 31
0.0
  0
ARC
  8
0
 62
0
 10
2.5399999999999996
 20
124.46
 30
0.0
 40
2.54
 50
89.99999999999979
 51
-180.0
  0
ARC
  8
0
 62
0
 10
349.67831804211704
 20
129.032
 30
0.0
 40
2.032
 50
-90.0
 51
-44.999999997034024
  0
LINE
  8
0
 62
0
 10
349.67831804211704
 20
127.0
 30
0.0
 11
2.5400000000000205
 21
127.0
 31
0.0
  0
CIRCLE
  8
0
 62
0
 10
102.87
 20
6.984999999999999
 30
0.0
 40
1.65
  0
CIRCLE
  8
0
 62
0
 10
160.02
 20
6.984999999999999
 30
0.0
 40
1.65
  0
CIRCLE
  8
0
 62
0
 10
111.125
 20
57.15
 30
0.0
 40
1.65
  0
CIRCLE
  8
0
 62
0
 10
289.56
 20
6.35
 30
0.0
 40
1.65
  0
CIRCLE
  8
0
 62
0
 10
353.06
 20
6.35
 30
0.0
 40
1.65
  0
CIRCLE
  8
0
 62
0
 10
422.90999999999997
 20
6.35
 30
0.0
 40
1.65
  0
CIRCLE
  8
0
 62
0
 10
302.26
 20
38.735
 30
0.0
 40
1.65
  0
CIRCLE
  8
0
 62
0
 10
340.36
 20
38.735
 30
0.0
 40
1.65
  0
CIRCLE
  8
0
 62
0
 10
172.085
 20
99.695
 30
0.0
 40
1.65
  0
CIRCLE
  8
0
 62
0
 10
5.715
 20
101.60000000000001
 30
0.0
 40
1.65
  0
CIRCLE
  8
0
 62
0
 10
289.56
 20
99.695
 30
0.0
 40
1.65
  0
CIRCLE
  8
0
 62
0
 10
364.49
 20
122.555
 30
0.0
 40
1.65
  0
CIRCLE
  8
0
 62
0
 10
429.26
 20
132.08
 30
0.0
 40
1.65
  0
LINE
  8
0
 62
0
 10
30.083999999999985
 20
3.16
 30
0.0
 11
43.575999999999986
 21
3.16
 31
0.0
  0
ARC
  8
0
 62
0
 10
30.084
 20
3.414
 30
0.0
 40
0.254
 50
180.0
 51
-89.9999999999992
  0
ARC
  8
0
 62
0
 10
43.576
 20
3.414
 30
0.0
 40
0.254
 50
-90.0000000000016
 51
0.0
  0
LINE
  8
0
 62
0
 10
29.83
 20
16.906000000000002
 30
0.0
 11
29.83
 21
3.4140000000000033
 31
0.0
  0
LINE
  8
0
 62
0
 10
43.83
 20
3.4140000000000037
 30
0.0
 11
43.83
 21
16.906000000000002
 31
0.0
  0
ARC
  8
0
 62
0
 10
30.084
 20
16.906
 30
0.0
 40
0.254
 50
89.9999999999992
 51
-180.0
  0
ARC
  8
0
 62
0
 10
43.576
 20
16.906
 30
0.0
 40
0.254
 50
-0.0
 51
90.0000000000016
  0
LINE
  8
0
 62
0
 10
43.575999999999986
 20
17.16
 30
0.0
 11
30.083999999999985
 21
17.16
 31
0.0
  0
LINE
  8
0
 62
0
 10
54.21399999999998
 20
3.1599999999999984
 30
0.0
 11
67.70599999999997
 21
3.1599999999999984
 31
0.0
  0
ARC
  8
0
 62
0
 10
54.21399999999999
 20
3.4139999999999984
 30
0.0
 40
0.254
 50
180.0
 51
-89.9999999999984
  0
ARC
  8
0
 62
0
 10
67.70599999999999
 20
3.4139999999999984
 30
0.0
 40
0.254
 50
-90.0
 51
0.0
  0
LINE
  8
0
 62
0
 10
53.959999999999994
 20
16.905999999999995
 30
0.0
 11
53.959999999999994
 21
3.413999999999998
 31
0.0
  0
LINE
  8
0
 62
0
 10
67.96
 20
3.414
 30
0.0
 11
67.96
 21
16.905999999999995
 31
0.0
  0
ARC
  8
0
 62
0
 10
54.21399999999999
 20
16.905999999999995
 30
0.0
 40
0.254
 50
89.9999999999984
 51
-180.0
  0
ARC
  8
0
 62
0
 10
67.70599999999999
 20
16.905999999999995
 30
0.0
 40
0.254
 50
-0.0
 51
90.0
  0
LINE
  8
0
 62
0
 10
67.70599999999997
 20
17.159999999999997
 30
0.0
 11
54.21399999999998
 21
17.159999999999997
 31
0.0
  0
LINE
  8
0
 62
0
 10
5.954000000000006
 20
22.209999999999994
 30
0.0
 11
19.446000000000005
 21
22.209999999999994
 31
0.0
  0
ARC
  8
0
 62
0
 10
5.953999999999997
 20
22.463999999999995
 30
0.0
 40
0.254
 50
180.0
 51
-89.9999999999988
  0
ARC
  8
0
 62
0
 10
19.445999999999994
 20
22.463999999999995
 30
0.0
 40
0.254
 50
-89.9999999999992
 51
0.0
  0
LINE
  8
0
 62
0
 10
5.6999999999999975
 20
35.955999999999996
 30
0.0
 11
5.6999999999999975
 21
22.463999999999995
 31
0.0
  0
LINE
  8
0
 62
0
 10
19.699999999999996
 20
22.463999999999995
 30
0.0
 11
19.699999999999996
 21
35.955999999999996
 31
0.0
  0
ARC
  8
0
 62
0
 10
5.953999999999997
 20
35.955999999999996
 30
0.0
 40
0.254
 50
89.9999999999988
 51
-180.0
  0
ARC
  8
0
 62
0
 10
19.445999999999994
 20
35.955999999999996
 30
0.0
 40
0.254
 50
-0.0
 51
89.9999999999992
  0
LINE
  8
0
 62
0
 10
19.446
 20
36.209999999999994
 30
0.0
 11
5.954000000000004
 21
36.209999999999994
 31
0.0
  0
LINE
  8
0
 62
0
 10
27.544000000000015
 20
22.209999999999997
 30
0.0
 11
41.03600000000001
 21
22.209999999999997
 31
0.0
  0
ARC
  8
0
 62
0
 10
27.544000000000004
 20
22.464
 30
0.0
 40
0.254
 50
-180.0
 51
-89.9999999999992
  0
ARC
  8
0
 62
0
 10
41.03600000000001
 20
22.464
 30
0.0
 40
0.254
 50
-90.0000000000016
 51
-0.0
  0
LINE
  8
0
 62
0
 10
27.290000000000003
 20
35.956
 30
0.0
 11
27.290000000000003
 21
22.464
 31
0.0
  0
LINE
  8
0
 62
0
 10
41.290000000000006
 20
22.464000000000002
 30
0.0
 11
41.290000000000006
 21
35.956
 31
0.0
  0
ARC
  8
0
 62
0
 10
27.544000000000004
 20
35.956
 30
0.0
 40
0.254
 50
89.9999999999992
 51
-180.0
  0
ARC
  8
0
 62
0
 10
41.03600000000001
 20
35.956
 30
0.0
 40
0.254
 50
-0.0
 51
90.0000000000016
  0
LINE
  8
0
 62
0
 10
41.03600000000002
 20
36.21
 30
0.0
 11
27.54400000000002
 21
36.21
 31
0.0
  0
LINE
  8
0
 62
0
 10
46.59399999999997
 20
22.21
 30
0.0
 11
60.08599999999998
 21
22.21
 31
0.0
  0
ARC
  8
0
 62
0
 10
46.59399999999999
 20
22.464000000000002
 30
0.0
 40
0.254
 50
-180.0
 51
-89.9999999999984
  0
ARC
  8
0
 62
0
 10
60.08599999999999
 20
22.464000000000002
 30
0.0
 40
0.254
 50
-90.0000000000016
 51
-0.0
  0
LINE
  8
0
 62
0
 10
46.33999999999999
 20
35.956
 30
0.0
 11
46.33999999999999
 21
22.464000000000002
 31
0.0
  0
LINE
  8
0
 62
0
 10
60.33999999999999
 20
22.464000000000002
 30
0.0
 11
60.33999999999999
 21
35.956
 31
0.0
  0
ARC
  8
0
 62
0
 10
46.59399999999999
 20
35.956
 30
0.0
 40
0.254
 50
89.9999999999984
 51
-180.0
  0
ARC
  8
0
 62
0
 10
60.08599999999999
 20
35.956
 30
0.0
 40
0.254
 50
-0.0
 51
90.0000000000016
  0
LINE
  8
0
 62
0
 10
60.08599999999998
 20
36.21
 30
0.0
 11
46.59399999999997
 21
36.21
 31
0.0
  0
LINE
  8
0
 62
0
 10
65.64399999999999
 20
22.210000000000008
 30
0.0
 11
79.13599999999998
 21
22.210000000000008
 31
0.0
  0
ARC
  8
0
 62
0
 10
65.644
 20
22.46400000000001
 30
0.0
 40
0.254
 50
180.0
 51
-90.0
  0
ARC
  8
0
 62
0
 10
79.136
 20
22.46400000000001
 30
0.0
 40
0.254
 50
-90.0
 51
0.0
  0
LINE
  8
0
 62
0
 10
65.39
 20
35.95600000000001
 30
0.0
 11
65.39
 21
22.46400000000001
 31
0.0
  0
LINE
  8
0
 62
0
 10
79.39
 20
22.46400000000001
 30
0.0
 11
79.39
 21
35.95600000000001
 31
0.0
  0
ARC
  8
0
 62
0
 10
65.644
 20
35.95600000000001
 30
0.0
 40
0.254
 50
90.0
 51
-180.0
  0
ARC
  8
0
 62
0
 10
79.136
 20
35.95600000000001
 30
0.0
 40
0.254
 50
-0.0
 51
90.0
  0
LINE
  8
0
 62
0
 10
79.13599999999998
 20
36.21000000000001
 30
0.0
 11
65.64399999999999
 21
36.21000000000001
 31
0.0
  0
LINE
  8
0
 62
0
 10
84.694
 20
22.209999999999972
 30
0.0
 11
98.18599999999999
 21
22.209999999999972
 31
0.0
  0
ARC
  8
0
 62
0
 10
84.694
 20
22.463999999999974
 30
0.0
 40
0.254
 50
-180.0
 51
-90.00000000000321
  0
ARC
  8
0
 62
0
 10
98.18599999999999
 20
22.463999999999974
 30
0.0
 40
0.254
 50
-90.0
 51
-0.0
  0
LINE
  8
0
 62
0
 10
84.44
 20
35.955999999999975
 30
0.0
 11
84.44
 21
22.463999999999974
 31
0.0
  0
LINE
  8
0
 62
0
 10
98.44
 20
22.463999999999974
 30
0.0
 11
98.44
 21
35.955999999999975
 31
0.0
  0
ARC
  8
0
 62
0
 10
84.694
 20
35.955999999999975
 30
0.0
 40
0.254
 50
90.00000000000321
 51
-180.0
  0
ARC
  8
0
 62
0
 10
98.18599999999999
 20
35.955999999999975
 30
0.0
 40
0.254
 50
-0.0
 51
90.0
  0
LINE
  8
0
 62
0
 10
98.18599999999999
 20
36.20999999999997
 30
0.0
 11
84.694
 21
36.20999999999997
 31
0.0
  0
LINE
  8
0
 62
0
 10
124.69900000000001
 20
3.1600000000000037
 30
0.0
 11
138.19100000000003
 21
3.1600000000000037
 31
0.0
  0
ARC
  8
0
 62
0
 10
124.69900000000001
 20
3.4140000000000037
 30
0.0
 40
0.254
 50
-180.0
 51
-90.0
  0
ARC
  8
0
 62
0
 10
138.19100000000003
 20
3.4140000000000037
 30
0.0
 40
0.254
 50
-90.0
 51
-0.0
  0
LINE
  8
0
 62
0
 10
124.44500000000001
 20
16.906000000000002
 30
0.0
 11
124.44500000000001
 21
3.4140000000000033
 31
0.0
  0
LINE
  8
0
 62
0
 10
138.44500000000002
 20
3.4140000000000037
 30
0.0
 11
138.44500000000002
 21
16.906000000000002
 31
0.0
  0
ARC
  8
0
 62
0
 10
124.69900000000001
 20
16.906000000000002
 30
0.0
 40
0.254
 50
90.0
 51
180.0
  0
ARC
  8
0
 62
0
 10
138.19100000000003
 20
16.906000000000002
 30
0.0
 40
0.254
 50
0.0
 51
90.0
  0
LINE
  8
0
 62
0
 10
138.19100000000003
 20
17.160000000000004
 30
0.0
 11
124.69900000000001
 21
17.160000000000004
 31
0.0
  0
LINE
  8
0
 62
0
 10
195.184
 20
3.1600000000000006
 30
0.0
 11
208.67600000000002
 21
3.1600000000000006
 31
0.0
  0
ARC
  8
0
 62
0
 10
195.184
 20
3.414
 30
0.0
 40
0.254
 50
180.0
 51
-90.0
  0
ARC
  8
0
 62
0
 10
208.67600000000002
 20
3.4140000000000006
 30
0.0
 40
0.254
 50
-90.0
 51
0.0
  0
LINE
  8
0
 62
0
 10
194.93
 20
16.906000000000002
 30
0.0
 11
194.93
 21
3.4140000000000033
 31
0.0
  0
LINE
  8
0
 62
0
 10
208.93
 20
3.4139999999999975
 30
0.0
 11
208.93
 21
16.905999999999995
 31
0.0
  0
ARC
  8
0
 62
0
 10
195.184
 20
16.906
 30
0.0
 40
0.254
 50
90.0
 51
-180.0
  0
ARC
  8
0
 62
0
 10
208.67600000000002
 20
16.906
 30
0.0
 40
0.254
 50
-0.0
 51
90.0
  0
LINE
  8
0
 62
0
 10
208.67600000000002
 20
17.16
 30
0.0
 11
195.184
 21
17.16
 31
0.0
  0
LINE
  8
0
 62
0
 10
103.74399999999999
 20
22.20999999999998
 30
0.0
 11
117.23599999999998
 21
22.20999999999998
 31
0.0
  0
ARC
  8
0
 62
0
 10
103.74399999999999
 20
22.46399999999998
 30
0.0
 40
0.254
 50
180.0
 51
-90.0
  0
ARC
  8
0
 62
0
 10
117.23599999999998
 20
22.46399999999998
 30
0.0
 40
0.254
 50
-90.0
 51
0.0
  0
LINE
  8
0
 62
0
 10
103.48999999999998
 20
35.95599999999998
 30
0.0
 11
103.48999999999998
 21
22.46399999999998
 31
0.0
  0
LINE
  8
0
 62
0
 10
117.48999999999998
 20
22.46399999999998
 30
0.0
 11
117.48999999999998
 21
35.95599999999998
 31
0.0
  0
ARC
  8
0
 62
0
 10
103.74399999999999
 20
35.95599999999998
 30
0.0
 40
0.254
 50
90.0
 51
-180.0
  0
ARC
  8
0
 62
0
 10
117.23599999999998
 20
35.95599999999998
 30
0.0
 40
0.254
 50
-0.0
 51
90.0
  0
LINE
  8
0
 62
0
 10
117.23599999999998
 20
36.20999999999998
 30
0.0
 11
103.74399999999999
 21
36.20999999999998
 31
0.0
  0
LINE
  8
0
 62
0
 10
122.79400000000001
 20
22.20999999999998
 30
0.0
 11
136.28600000000003
 21
22.20999999999998
 31
0.0
  0
ARC
  8
0
 62
0
 10
122.79400000000001
 20
22.46399999999998
 30
0.0
 40
0.254
 50
180.0
 51
-90.0
  0
ARC
  8
0
 62
0
 10
136.28600000000003
 20
22.46399999999998
 30
0.0
 40
0.254
 50
-90.0
 51
0.0
  0
LINE
  8
0
 62
0
 10
122.54
 20
35.95599999999998
 30
0.0
 11
122.54
 21
22.46399999999998
 31
0.0
  0
LINE
  8
0
 62
0
 10
136.54000000000002
 20
22.46399999999998
 30
0.0
 11
136.54000000000002
 21
35.95599999999998
 31
0.0
  0
ARC
  8
0
 62
0
 10
122.79400000000001
 20
35.95599999999998
 30
0.0
 40
0.254
 50
90.0
 51
-180.0
  0
ARC
  8
0
 62
0
 10
136.28600000000003
 20
35.95599999999998
 30
0.0
 40
0.254
 50
-0.0
 51
90.0
  0
LINE
  8
0
 62
0
 10
136.28600000000003
 20
36.20999999999998
 30
0.0
 11
122.79400000000001
 21
36.20999999999998
 31
0.0
  0
LINE
  8
0
 62
0
 10
141.844
 20
22.21
 30
0.0
 11
155.336
 21
22.21
 31
0.0
  0
ARC
  8
0
 62
0
 10
141.844
 20
22.464000000000002
 30
0.0
 40
0.254
 50
-180.0
 51
-90.0
  0
ARC
  8
0
 62
0
 10
155.336
 20
22.464000000000002
 30
0.0
 40
0.254
 50
-90.0
 51
-0.0
  0
LINE
  8
0
 62
0
 10
141.59
 20
35.956
 30
0.0
 11
141.59
 21
22.464000000000002
 31
0.0
  0
LINE
  8
0
 62
0
 10
155.59
 20
22.464000000000002
 30
0.0
 11
155.59
 21
35.956
 31
0.0
  0
ARC
  8
0
 62
0
 10
141.844
 20
35.956
 30
0.0
 40
0.254
 50
90.0
 51
-180.0
  0
ARC
  8
0
 62
0
 10
155.336
 20
35.956
 30
0.0
 40
0.254
 50
-0.0
 51
90.0
  0
LINE
  8
0
 62
0
 10
155.336
 20
36.21
 30
0.0
 11
141.844
 21
36.21
 31
0.0
  0
LINE
  8
0
 62
0
 10
160.894
 20
22.21
 30
0.0
 11
174.38600000000002
 21
22.21
 31
0.0
  0
ARC
  8
0
 62
0
 10
160.894
 20
22.464000000000002
 30
0.0
 40
0.254
 50
-180.0
 51
-90.0
  0
ARC
  8
0
 62
0
 10
174.38600000000002
 20
22.464000000000002
 30
0.0
 40
0.254
 50
-90.0
 51
-0.0
  0
LINE
  8
0
 62
0
 10
160.64000000000001
 20
35.956
 30
0.0
 11
160.64000000000001
 21
22.464000000000002
 31
0.0
  0
LINE
  8
0
 62
0
 10
174.64000000000001
 20
22.464000000000002
 30
0.0
 11
174.64000000000001
 21
35.956
 31
0.0
  0
ARC
  8
0
 62
0
 10
160.894
 20
35.956
 30
0.0
 40
0.254
 50
90.0
 51
-180.0
  0
ARC
  8
0
 62
0
 10
174.38600000000002
 20
35.956
 30
0.0
 40
0.254
 50
-0.0
 51
90.0
  0
LINE
  8
0
 62
0
 10
174.38600000000002
 20
36.21
 30
0.0
 11
160.894
 21
36.21
 31
0.0
  0
LINE
  8
0
 62
0
 10
179.944
 20
22.21
 30
0.0
 11
193.436
 21
22.21
 31
0.0
  0
ARC
  8
0
 62
0
 10
179.944
 20
22.464000000000002
 30
0.0
 40
0.254
 50
-180.0
 51
-90.0
  0
ARC
  8
0
 62
0
 10
193.436
 20
22.464000000000002
 30
0.0
 40
0.254
 50
-90.0
 51
-0.0
  0
LINE
  8
0
 62
0
 10
179.69
 20
35.956
 30
0.0
 11
179.69
 21
22.464000000000002
 31
0.0
  0
LINE
  8
0
 62
0
 10
193.69
 20
22.464000000000002
 30
0.0
 11
193.69
 21
35.956
 31
0.0
  0
ARC
  8
0
 62
0
 10
179.944
 20
35.956
 30
0.0
 40
0.254
 50
90.0
 51
-180.0
  0
ARC
  8
0
 62
0
 10
193.436
 20
35.956
 30
0.0
 40
0.254
 50
-0.0
 51
90.0
  0
LINE
  8
0
 62
0
 10
193.436
 20
36.21
 30
0.0
 11
179.944
 21
36.21
 31
0.0
  0
LINE
  8
0
 62
0
 10
198.994
 20
22.21
 30
0.0
 11
212.48600000000002
 21
22.21
 31
0.0
  0
ARC
  8
0
 62
0
 10
198.994
 20
22.464000000000002
 30
0.0
 40
0.254
 50
-180.0
 51
-90.0
  0
ARC
  8
0
 62
0
 10
212.48600000000002
 20
22.464000000000002
 30
0.0
 40
0.254
 50
-90.0
 51
-0.0
  0
LINE
  8
0
 62
0
 10
198.74
 20
35.956
 30
0.0
 11
198.74
 21
22.464000000000002
 31
0.0
  0
LINE
  8
0
 62
0
 10
212.74
 20
22.464000000000002
 30
0.0
 11
212.74
 21
35.956
 31
0.0
  0
ARC
  8
0
 62
0
 10
198.994
 20
35.956
 30
0.0
 40
0.254
 50
90.0
 51
-180.0
  0
ARC
  8
0
 62
0
 10
212.48600000000002
 20
35.956
 30
0.0
 40
0.254
 50
-0.0
 51
90.0
  0
LINE
  8
0
 62
0
 10
212.48600000000002
 20
36.21
 30
0.0
 11
198.994
 21
36.21
 31
0.0
  0
LINE
  8
0
 62
0
 10
11.034
 20
41.25999999999999
 30
0.0
 11
24.526
 21
41.25999999999999
 31
0.0
  0
ARC
  8
0
 62
0
 10
11.034
 20
41.51399999999999
 30
0.0
 40
0.254
 50
-180.0
 51
-90.00000000000121
  0
ARC
  8
0
 62
0
 10
24.526
 20
41.51399999999999
 30
0.0
 40
0.254
 50
-89.9999999999992
 51
-0.0
  0
LINE
  8
0
 62
0
 10
10.780000000000001
 20
55.00599999999999
 30
0.0
 11
10.780000000000001
 21
41.51399999999999
 31
0.0
  0
LINE
  8
0
 62
0
 10
24.78
 20
41.51399999999999
 30
0.0
 11
24.78
 21
55.00599999999999
 31
0.0
  0
ARC
  8
0
 62
0
 10
11.034
 20
55.00599999999999
 30
0.0
 40
0.254
 50
90.00000000000121
 51
-180.0
  0
ARC
  8
0
 62
0
 10
24.526
 20
55.00599999999999
 30
0.0
 40
0.254
 50
-0.0
 51
89.9999999999992
  0
LINE
  8
0
 62
0
 10
24.526
 20
55.25999999999999
 30
0.0
 11
11.034
 21
55.25999999999999
 31
0.0
  0
LINE
  8
0
 62
0
 10
37.703999999999986
 20
41.260000000000005
 30
0.0
 11
51.19599999999999
 21
41.260000000000005
 31
0.0
  0
ARC
  8
0
 62
0
 10
37.704
 20
41.514
 30
0.0
 40
0.254
 50
-180.0
 51
-89.9999999999984
  0
ARC
  8
0
 62
0
 10
51.196000000000005
 20
41.514
 30
0.0
 40
0.254
 50
-90.0000000000016
 51
-0.0
  0
LINE
  8
0
 62
0
 10
37.45
 20
55.00600000000001
 30
0.0
 11
37.45
 21
41.514
 31
0.0
  0
LINE
  8
0
 62
0
 10
51.45
 20
41.514
 30
0.0
 11
51.45
 21
55.00600000000001
 31
0.0
  0
ARC
  8
0
 62
0
 10
37.704
 20
55.00600000000001
 30
0.0
 40
0.254
 50
89.9999999999984
 51
-180.0
  0
ARC
  8
0
 62
0
 10
51.196000000000005
 20
55.00600000000001
 30
0.0
 40
0.254
 50
-0.0
 51
90.0000000000016
  0
LINE
  8
0
 62
0
 10
51.19599999999999
 20
55.260000000000005
 30
0.0
 11
37.703999999999986
 21
55.260000000000005
 31
0.0
  0
LINE
  8
0
 62
0
 10
56.753999999999984
 20
41.26
 30
0.0
 11
70.24599999999997
 21
41.26
 31
0.0
  0
ARC
  8
0
 62
0
 10
56.75399999999998
 20
41.513999999999996
 30
0.0
 40
0.254
 50
-180.0
 51
-89.9999999999984
  0
ARC
  8
0
 62
0
 10
70.24599999999997
 20
41.513999999999996
 30
0.0
 40
0.254
 50
-90.00000000000321
 51
-0.0
  0
LINE
  8
0
 62
0
 10
56.49999999999998
 20
55.006
 30
0.0
 11
56.49999999999998
 21
41.513999999999996
 31
0.0
  0
LINE
  8
0
 62
0
 10
70.49999999999997
 20
41.513999999999996
 30
0.0
 11
70.49999999999997
 21
55.006
 31
0.0
  0
ARC
  8
0
 62
0
 10
56.75399999999998
 20
55.006
 30
0.0
 40
0.254
 50
89.9999999999984
 51
-180.0
  0
ARC
  8
0
 62
0
 10
70.24599999999997
 20
55.006
 30
0.0
 40
0.254
 50
-0.0
 51
90.00000000000321
  0
LINE
  8
0
 62
0
 10
70.24599999999997
 20
55.26
 30
0.0
 11
56.75399999999998
 21
55.26
 31
0.0
  0
LINE
  8
0
 62
0
 10
75.80399999999999
 20
41.260000000000005
 30
0.0
 11
89.29599999999998
 21
41.260000000000005
 31
0.0
  0
ARC
  8
0
 62
0
 10
75.80399999999999
 20
41.514
 30
0.0
 40
0.254
 50
-180.0
 51
-89.99999999999679
  0
ARC
  8
0
 62
0
 10
89.29599999999998
 20
41.514
 30
0.0
 40
0.254
 50
-90.00000000000321
 51
-0.0
  0
LINE
  8
0
 62
0
 10
75.54999999999998
 20
55.00600000000001
 30
0.0
 11
75.54999999999998
 21
41.514
 31
0.0
  0
LINE
  8
0
 62
0
 10
89.54999999999998
 20
41.514
 30
0.0
 11
89.54999999999998
 21
55.00600000000001
 31
0.0
  0
ARC
  8
0
 62
0
 10
75.80399999999999
 20
55.00600000000001
 30
0.0
 40
0.254
 50
89.99999999999679
 51
-180.0
  0
ARC
  8
0
 62
0
 10
89.29599999999998
 20
55.00600000000001
 30
0.0
 40
0.254
 50
-0.0
 51
90.00000000000321
  0
LINE
  8
0
 62
0
 10
89.29599999999998
 20
55.260000000000005
 30
0.0
 11
75.80399999999999
 21
55.260000000000005
 31
0.0
  0
LINE
  8
0
 62
0
 10
94.85400000000006
 20
41.25999999999997
 30
0.0
 11
108.34600000000005
 21
41.25999999999997
 31
0.0
  0
ARC
  8
0
 62
0
 10
94.85400000000006
 20
41.51399999999997
 30
0.0
 40
0.254
 50
-180.0
 51
-90.0
  0
ARC
  8
0
 62
0
 10
108.34600000000005
 20
41.51399999999997
 30
0.0
 40
0.254
 50
-90.0
 51
-0.0
  0
LINE
  8
0
 62
0
 10
94.60000000000005
 20
55.00599999999997
 30
0.0
 11
94.60000000000005
 21
41.51399999999997
 31
0.0
  0
LINE
  8
0
 62
0
 10
108.60000000000005
 20
41.51399999999997
 30
0.0
 11
108.60000000000005
 21
55.00599999999997
 31
0.0
  0
ARC
  8
0
 62
0
 10
94.85400000000006
 20
55.00599999999997
 30
0.0
 40
0.254
 50
90.0
 51
-180.0
  0
ARC
  8
0
 62
0
 10
108.34600000000005
 20
55.00599999999997
 30
0.0
 40
0.254
 50
-0.0
 51
90.0
  0
LINE
  8
0
 62
0
 10
108.34600000000005
 20
55.25999999999997
 30
0.0
 11
94.85400000000006
 21
55.25999999999997
 31
0.0
  0
LINE
  8
0
 62
0
 10
8.494000000000009
 20
60.31
 30
0.0
 11
21.986000000000008
 21
60.31
 31
0.0
  0
ARC
  8
0
 62
0
 10
8.493999999999994
 20
60.564
 30
0.0
 40
0.254
 50
-180.0
 51
-89.9999999999996
  0
ARC
  8
0
 62
0
 10
21.985999999999994
 20
60.564
 30
0.0
 40
0.254
 50
-90.0000000000008
 51
-0.0
  0
LINE
  8
0
 62
0
 10
8.239999999999995
 20
74.056
 30
0.0
 11
8.239999999999995
 21
60.564
 31
0.0
  0
LINE
  8
0
 62
0
 10
22.239999999999995
 20
60.564
 30
0.0
 11
22.239999999999995
 21
74.056
 31
0.0
  0
ARC
  8
0
 62
0
 10
8.493999999999994
 20
74.056
 30
0.0
 40
0.254
 50
89.9999999999996
 51
-180.0
  0
ARC
  8
0
 62
0
 10
21.985999999999994
 20
74.056
 30
0.0
 40
0.254
 50
-0.0
 51
90.0000000000008
  0
LINE
  8
0
 62
0
 10
21.986000000000008
 20
74.31
 30
0.0
 11
8.494000000000009
 21
74.31
 31
0.0
  0
LINE
  8
0
 62
0
 10
32.624
 20
60.30999999999999
 30
0.0
 11
46.11600000000001
 21
60.30999999999999
 31
0.0
  0
ARC
  8
0
 62
0
 10
32.624
 20
60.563999999999986
 30
0.0
 40
0.254
 50
-180.0
 51
-90.0000000000016
  0
ARC
  8
0
 62
0
 10
46.11600000000001
 20
60.563999999999986
 30
0.0
 40
0.254
 50
-89.9999999999984
 51
-0.0
  0
LINE
  8
0
 62
0
 10
32.370000000000005
 20
74.05599999999998
 30
0.0
 11
32.370000000000005
 21
60.563999999999986
 31
0.0
  0
LINE
  8
0
 62
0
 10
46.370000000000005
 20
60.563999999999986
 30
0.0
 11
46.370000000000005
 21
74.05599999999998
 31
0.0
  0
ARC
  8
0
 62
0
 10
32.624
 20
74.05599999999998
 30
0.0
 40
0.254
 50
90.0000000000016
 51
-180.0
  0
ARC
  8
0
 62
0
 10
46.11600000000001
 20
74.05599999999998
 30
0.0
 40
0.254
 50
-0.0
 51
89.9999999999984
  0
LINE
  8
0
 62
0
 10
46.11600000000001
 20
74.30999999999999
 30
0.0
 11
32.624
 21
74.30999999999999
 31
0.0
  0
LINE
  8
0
 62
0
 10
51.673999999999985
 20
60.309999999999995
 30
0.0
 11
65.16599999999998
 21
60.309999999999995
 31
0.0
  0
ARC
  8
0
 62
0
 10
51.673999999999985
 20
60.56399999999999
 30
0.0
 40
0.254
 50
-180.0
 51
-90.0000000000016
  0
ARC
  8
0
 62
0
 10
65.16599999999998
 20
60.56399999999999
 30
0.0
 40
0.254
 50
-90.00000000000321
 51
-0.0
  0
LINE
  8
0
 62
0
 10
51.41999999999999
 20
74.056
 30
0.0
 11
51.41999999999999
 21
60.56399999999999
 31
0.0
  0
LINE
  8
0
 62
0
 10
65.41999999999999
 20
60.56399999999999
 30
0.0
 11
65.41999999999999
 21
74.056
 31
0.0
  0
ARC
  8
0
 62
0
 10
51.673999999999985
 20
74.056
 30
0.0
 40
0.254
 50
90.0000000000016
 51
-180.0
  0
ARC
  8
0
 62
0
 10
65.16599999999998
 20
74.056
 30
0.0
 40
0.254
 50
-0.0
 51
90.00000000000321
  0
LINE
  8
0
 62
0
 10
65.16599999999998
 20
74.31
 30
0.0
 11
51.673999999999985
 21
74.31
 31
0.0
  0
LINE
  8
0
 62
0
 10
70.724
 20
60.31000000000005
 30
0.0
 11
84.216
 21
60.31000000000005
 31
0.0
  0
ARC
  8
0
 62
0
 10
70.724
 20
60.56400000000005
 30
0.0
 40
0.254
 50
-180.0
 51
-89.99999999999679
  0
ARC
  8
0
 62
0
 10
84.216
 20
60.56400000000005
 30
0.0
 40
0.254
 50
-90.00000000000321
 51
-0.0
  0
LINE
  8
0
 62
0
 10
70.47
 20
74.05600000000004
 30
0.0
 11
70.47
 21
60.56400000000005
 31
0.0
  0
LINE
  8
0
 62
0
 10
84.47
 20
60.56400000000005
 30
0.0
 11
84.47
 21
74.05600000000004
 31
0.0
  0
ARC
  8
0
 62
0
 10
70.724
 20
74.05600000000004
 30
0.0
 40
0.254
 50
89.99999999999679
 51
-180.0
  0
ARC
  8
0
 62
0
 10
84.216
 20
74.05600000000004
 30
0.0
 40
0.254
 50
-0.0
 51
90.00000000000321
  0
LINE
  8
0
 62
0
 10
84.216
 20
74.31000000000004
 30
0.0
 11
70.724
 21
74.31000000000004
 31
0.0
  0
LINE
  8
0
 62
0
 10
89.77400000000002
 20
60.30999999999998
 30
0.0
 11
103.266
 21
60.30999999999998
 31
0.0
  0
ARC
  8
0
 62
0
 10
89.77400000000002
 20
60.56399999999998
 30
0.0
 40
0.254
 50
-180.0
 51
-89.99999999999679
  0
ARC
  8
0
 62
0
 10
103.266
 20
60.56399999999998
 30
0.0
 40
0.254
 50
-90.0
 51
-0.0
  0
LINE
  8
0
 62
0
 10
89.52000000000001
 20
74.05599999999997
 30
0.0
 11
89.52000000000001
 21
60.56399999999998
 31
0.0
  0
LINE
  8
0
 62
0
 10
103.52000000000001
 20
60.56399999999998
 30
0.0
 11
103.52000000000001
 21
74.05599999999997
 31
0.0
  0
ARC
  8
0
 62
0
 10
89.77400000000002
 20
74.05599999999997
 30
0.0
 40
0.254
 50
89.99999999999679
 51
-180.0
  0
ARC
  8
0
 62
0
 10
103.266
 20
74.05599999999997
 30
0.0
 40
0.254
 50
-0.0
 51
90.0
  0
LINE
  8
0
 62
0
 10
103.266
 20
74.30999999999997
 30
0.0
 11
89.77400000000002
 21
74.30999999999997
 31
0.0
  0
LINE
  8
0
 62
0
 10
113.90400000000002
 20
41.25999999999996
 30
0.0
 11
127.39600000000002
 21
41.25999999999996
 31
0.0
  0
ARC
  8
0
 62
0
 10
113.90400000000002
 20
41.51399999999996
 30
0.0
 40
0.254
 50
-180.0
 51
-90.0
  0
ARC
  8
0
 62
0
 10
127.39600000000002
 20
41.51399999999996
 30
0.0
 40
0.254
 50
-90.0
 51
-0.0
  0
LINE
  8
0
 62
0
 10
113.65000000000002
 20
55.005999999999965
 30
0.0
 11
113.65000000000002
 21
41.51399999999996
 31
0.0
  0
LINE
  8
0
 62
0
 10
127.65000000000002
 20
41.51399999999996
 30
0.0
 11
127.65000000000002
 21
55.005999999999965
 31
0.0
  0
ARC
  8
0
 62
0
 10
113.90400000000002
 20
55.005999999999965
 30
0.0
 40
0.254
 50
90.0
 51
-180.0
  0
ARC
  8
0
 62
0
 10
127.39600000000002
 20
55.005999999999965
 30
0.0
 40
0.254
 50
-0.0
 51
90.0
  0
LINE
  8
0
 62
0
 10
127.39600000000002
 20
55.25999999999996
 30
0.0
 11
113.90400000000002
 21
55.25999999999996
 31
0.0
  0
LINE
  8
0
 62
0
 10
132.95399999999998
 20
41.26000000000005
 30
0.0
 11
146.446
 21
41.26000000000005
 31
0.0
  0
ARC
  8
0
 62
0
 10
132.95399999999998
 20
41.514000000000046
 30
0.0
 40
0.254
 50
-180.0
 51
-90.0
  0
ARC
  8
0
 62
0
 10
146.446
 20
41.514000000000046
 30
0.0
 40
0.254
 50
-90.0
 51
-0.0
  0
LINE
  8
0
 62
0
 10
132.7
 20
55.00600000000005
 30
0.0
 11
132.7
 21
41.514000000000046
 31
0.0
  0
LINE
  8
0
 62
0
 10
146.7
 20
41.514000000000046
 30
0.0
 11
146.7
 21
55.00600000000005
 31
0.0
  0
ARC
  8
0
 62
0
 10
132.95399999999998
 20
55.00600000000005
 30
0.0
 40
0.254
 50
90.0
 51
-180.0
  0
ARC
  8
0
 62
0
 10
146.446
 20
55.00600000000005
 30
0.0
 40
0.254
 50
-0.0
 51
90.0
  0
LINE
  8
0
 62
0
 10
146.446
 20
55.26000000000005
 30
0.0
 11
132.95399999999998
 21
55.26000000000005
 31
0.0
  0
LINE
  8
0
 62
0
 10
152.00399999999996
 20
41.25999999999997
 30
0.0
 11
165.49599999999998
 21
41.25999999999997
 31
0.0
  0
ARC
  8
0
 62
0
 10
152.00399999999996
 20
41.51399999999997
 30
0.0
 40
0.254
 50
-180.0
 51
-90.0
  0
ARC
  8
0
 62
0
 10
165.49599999999998
 20
41.51399999999997
 30
0.0
 40
0.254
 50
-90.0
 51
-0.0
  0
LINE
  8
0
 62
0
 10
151.74999999999997
 20
55.00599999999997
 30
0.0
 11
151.74999999999997
 21
41.51399999999997
 31
0.0
  0
LINE
  8
0
 62
0
 10
165.74999999999997
 20
41.51399999999997
 30
0.0
 11
165.74999999999997
 21
55.00599999999997
 31
0.0
  0
ARC
  8
0
 62
0
 10
152.00399999999996
 20
55.00599999999997
 30
0.0
 40
0.254
 50
90.0
 51
-180.0
  0
ARC
  8
0
 62
0
 10
165.49599999999998
 20
55.00599999999997
 30
0.0
 40
0.254
 50
-0.0
 51
90.0
  0
LINE
  8
0
 62
0
 10
165.49599999999998
 20
55.25999999999997
 30
0.0
 11
152.00399999999996
 21
55.25999999999997
 31
0.0
  0
LINE
  8
0
 62
0
 10
171.05400000000003
 20
41.26000000000006
 30
0.0
 11
184.54600000000005
 21
41.26000000000006
 31
0.0
  0
ARC
  8
0
 62
0
 10
171.05400000000003
 20
41.51400000000006
 30
0.0
 40
0.254
 50
-180.0
 51
-90.0
  0
ARC
  8
0
 62
0
 10
184.54600000000005
 20
41.51400000000006
 30
0.0
 40
0.254
 50
-90.0
 51
-0.0
  0
LINE
  8
0
 62
0
 10
170.80000000000004
 20
55.006000000000064
 30
0.0
 11
170.80000000000004
 21
41.51400000000006
 31
0.0
  0
LINE
  8
0
 62
0
 10
184.80000000000004
 20
41.51400000000006
 30
0.0
 11
184.80000000000004
 21
55.006000000000064
 31
0.0
  0
ARC
  8
0
 62
0
 10
171.05400000000003
 20
55.006000000000064
 30
0.0
 40
0.254
 50
90.0
 51
-180.0
  0
ARC
  8
0
 62
0
 10
184.54600000000005
 20
55.006000000000064
 30
0.0
 40
0.254
 50
-0.0
 51
90.0
  0
LINE
  8
0
 62
0
 10
184.54600000000005
 20
55.26000000000006
 30
0.0
 11
171.05400000000003
 21
55.26000000000006
 31
0.0
  0
LINE
  8
0
 62
0
 10
190.10399999999993
 20
41.259999999999884
 30
0.0
 11
203.59599999999995
 21
41.259999999999884
 31
0.0
  0
ARC
  8
0
 62
0
 10
190.10399999999993
 20
41.51399999999988
 30
0.0
 40
0.254
 50
-180.0
 51
-90.0
  0
ARC
  8
0
 62
0
 10
203.59599999999995
 20
41.51399999999988
 30
0.0
 40
0.254
 50
-90.0
 51
-0.0
  0
LINE
  8
0
 62
0
 10
189.84999999999994
 20
55.00599999999989
 30
0.0
 11
189.84999999999994
 21
41.51399999999988
 31
0.0
  0
LINE
  8
0
 62
0
 10
203.84999999999994
 20
41.51399999999988
 30
0.0
 11
203.84999999999994
 21
55.00599999999989
 31
0.0
  0
ARC
  8
0
 62
0
 10
190.10399999999993
 20
55.00599999999989
 30
0.0
 40
0.254
 50
90.0
 51
-180.0
  0
ARC
  8
0
 62
0
 10
203.59599999999995
 20
55.00599999999989
 30
0.0
 40
0.254
 50
-0.0
 51
90.0
  0
LINE
  8
0
 62
0
 10
203.59599999999995
 20
55.259999999999884
 30
0.0
 11
190.10399999999993
 21
55.259999999999884
 31
0.0
  0
LINE
  8
0
 62
0
 10
209.15399999999997
 20
41.260000000000005
 30
0.0
 11
222.646
 21
41.260000000000005
 31
0.0
  0
ARC
  8
0
 62
0
 10
209.15399999999997
 20
41.514
 30
0.0
 40
0.254
 50
-180.0
 51
-90.0
  0
ARC
  8
0
 62
0
 10
222.646
 20
41.514
 30
0.0
 40
0.254
 50
-90.0
 51
-0.0
  0
LINE
  8
0
 62
0
 10
208.89999999999998
 20
55.00600000000001
 30
0.0
 11
208.89999999999998
 21
41.514
 31
0.0
  0
LINE
  8
0
 62
0
 10
222.89999999999998
 20
41.514
 30
0.0
 11
222.89999999999998
 21
55.00600000000001
 31
0.0
  0
ARC
  8
0
 62
0
 10
209.15399999999997
 20
55.00600000000001
 30
0.0
 40
0.254
 50
90.0
 51
-180.0
  0
ARC
  8
0
 62
0
 10
222.646
 20
55.00600000000001
 30
0.0
 40
0.254
 50
-0.0
 51
90.0
  0
LINE
  8
0
 62
0
 10
222.646
 20
55.260000000000005
 30
0.0
 11
209.15399999999997
 21
55.260000000000005
 31
0.0
  0
LINE
  8
0
 62
0
 10
108.82399999999998
 20
60.31000000000001
 30
0.0
 11
122.31599999999997
 21
60.31000000000001
 31
0.0
  0
ARC
  8
0
 62
0
 10
108.82399999999998
 20
60.56400000000001
 30
0.0
 40
0.254
 50
-180.0
 51
-90.0
  0
ARC
  8
0
 62
0
 10
122.31599999999997
 20
60.56400000000001
 30
0.0
 40
0.254
 50
-90.0
 51
-0.0
  0
LINE
  8
0
 62
0
 10
108.56999999999998
 20
74.056
 30
0.0
 11
108.56999999999998
 21
60.56400000000001
 31
0.0
  0
LINE
  8
0
 62
0
 10
122.56999999999998
 20
60.56400000000001
 30
0.0
 11
122.56999999999998
 21
74.056
 31
0.0
  0
ARC
  8
0
 62
0
 10
108.82399999999998
 20
74.056
 30
0.0
 40
0.254
 50
90.0
 51
-180.0
  0
ARC
  8
0
 62
0
 10
122.31599999999997
 20
74.056
 30
0.0
 40
0.254
 50
-0.0
 51
90.0
  0
LINE
  8
0
 62
0
 10
122.31599999999997
 20
74.31
 30
0.0
 11
108.82399999999998
 21
74.31
 31
0.0
  0
LINE
  8
0
 62
0
 10
127.87400000000014
 20
60.309999999999945
 30
0.0
 11
141.36600000000013
 21
60.309999999999945
 31
0.0
  0
ARC
  8
0
 62
0
 10
127.87400000000014
 20
60.56399999999994
 30
0.0
 40
0.254
 50
-180.0
 51
-90.0
  0
ARC
  8
0
 62
0
 10
141.36600000000013
 20
60.56399999999994
 30
0.0
 40
0.254
 50
-90.0
 51
-0.0
  0
LINE
  8
0
 62
0
 10
127.62000000000013
 20
74.05599999999994
 30
0.0
 11
127.62000000000013
 21
60.56399999999994
 31
0.0
  0
LINE
  8
0
 62
0
 10
141.62000000000012
 20
60.56399999999994
 30
0.0
 11
141.62000000000012
 21
74.05599999999994
 31
0.0
  0
ARC
  8
0
 62
0
 10
127.87400000000014
 20
74.05599999999994
 30
0.0
 40
0.254
 50
90.0
 51
-180.0
  0
ARC
  8
0
 62
0
 10
141.36600000000013
 20
74.05599999999994
 30
0.0
 40
0.254
 50
-0.0
 51
90.0
  0
LINE
  8
0
 62
0
 10
141.36600000000013
 20
74.30999999999995
 30
0.0
 11
127.87400000000014
 21
74.30999999999995
 31
0.0
  0
LINE
  8
0
 62
0
 10
146.924
 20
60.309999999999924
 30
0.0
 11
160.41600000000003
 21
60.309999999999924
 31
0.0
  0
ARC
  8
0
 62
0
 10
146.924
 20
60.56399999999992
 30
0.0
 40
0.254
 50
-180.0
 51
-90.0
  0
ARC
  8
0
 62
0
 10
160.41600000000003
 20
60.56399999999992
 30
0.0
 40
0.254
 50
-90.0
 51
-0.0
  0
LINE
  8
0
 62
0
 10
146.67000000000002
 20
74.05599999999991
 30
0.0
 11
146.67000000000002
 21
60.56399999999992
 31
0.0
  0
LINE
  8
0
 62
0
 10
160.67000000000002
 20
60.56399999999992
 30
0.0
 11
160.67000000000002
 21
74.05599999999991
 31
0.0
  0
ARC
  8
0
 62
0
 10
146.924
 20
74.05599999999991
 30
0.0
 40
0.254
 50
90.0
 51
-180.0
  0
ARC
  8
0
 62
0
 10
160.41600000000003
 20
74.05599999999991
 30
0.0
 40
0.254
 50
-0.0
 51
90.0
  0
LINE
  8
0
 62
0
 10
160.41600000000003
 20
74.30999999999992
 30
0.0
 11
146.924
 21
74.30999999999992
 31
0.0
  0
LINE
  8
0
 62
0
 10
165.974
 20
60.31000000000004
 30
0.0
 11
179.466
 21
60.31000000000004
 31
0.0
  0
ARC
  8
0
 62
0
 10
165.974
 20
60.564000000000036
 30
0.0
 40
0.254
 50
-180.0
 51
-90.0
  0
ARC
  8
0
 62
0
 10
179.466
 20
60.564000000000036
 30
0.0
 40
0.254
 50
-90.0
 51
-0.0
  0
LINE
  8
0
 62
0
 10
165.72
 20
74.05600000000003
 30
0.0
 11
165.72
 21
60.564000000000036
 31
0.0
  0
LINE
  8
0
 62
0
 10
179.72
 20
60.564000000000036
 30
0.0
 11
179.72
 21
74.05600000000003
 31
0.0
  0
ARC
  8
0
 62
0
 10
165.974
 20
74.05600000000003
 30
0.0
 40
0.254
 50
90.0
 51
-180.0
  0
ARC
  8
0
 62
0
 10
179.466
 20
74.05600000000003
 30
0.0
 40
0.254
 50
-0.0
 51
90.0
  0
LINE
  8
0
 62
0
 10
179.466
 20
74.31000000000003
 30
0.0
 11
165.974
 21
74.31000000000003
 31
0.0
  0
LINE
  8
0
 62
0
 10
185.02399999999992
 20
60.309999999999896
 30
0.0
 11
198.51599999999993
 21
60.309999999999896
 31
0.0
  0
ARC
  8
0
 62
0
 10
185.02399999999992
 20
60.56399999999989
 30
0.0
 40
0.254
 50
-180.0
 51
-90.0
  0
ARC
  8
0
 62
0
 10
198.51599999999993
 20
60.56399999999989
 30
0.0
 40
0.254
 50
-90.0
 51
-0.0
  0
LINE
  8
0
 62
0
 10
184.76999999999992
 20
74.05599999999988
 30
0.0
 11
184.76999999999992
 21
60.56399999999989
 31
0.0
  0
LINE
  8
0
 62
0
 10
198.76999999999992
 20
60.56399999999989
 30
0.0
 11
198.76999999999992
 21
74.05599999999988
 31
0.0
  0
ARC
  8
0
 62
0
 10
185.02399999999992
 20
74.05599999999988
 30
0.0
 40
0.254
 50
90.0
 51
-180.0
  0
ARC
  8
0
 62
0
 10
198.51599999999993
 20
74.05599999999988
 30
0.0
 40
0.254
 50
-0.0
 51
90.0
  0
LINE
  8
0
 62
0
 10
198.51599999999993
 20
74.30999999999989
 30
0.0
 11
185.02399999999992
 21
74.30999999999989
 31
0.0
  0
LINE
  8
0
 62
0
 10
204.074
 20
60.30999999999996
 30
0.0
 11
217.56600000000003
 21
60.30999999999996
 31
0.0
  0
ARC
  8
0
 62
0
 10
204.074
 20
60.56399999999996
 30
0.0
 40
0.254
 50
-180.0
 51
-90.0
  0
ARC
  8
0
 62
0
 10
217.56600000000003
 20
60.56399999999996
 30
0.0
 40
0.254
 50
-90.0
 51
-0.0
  0
LINE
  8
0
 62
0
 10
203.82000000000002
 20
74.05599999999995
 30
0.0
 11
203.82000000000002
 21
60.56399999999996
 31
0.0
  0
LINE
  8
0
 62
0
 10
217.82000000000002
 20
60.56399999999996
 30
0.0
 11
217.82000000000002
 21
74.05599999999995
 31
0.0
  0
ARC
  8
0
 62
0
 10
204.074
 20
74.05599999999995
 30
0.0
 40
0.254
 50
90.0
 51
-180.0
  0
ARC
  8
0
 62
0
 10
217.56600000000003
 20
74.05599999999995
 30
0.0
 40
0.254
 50
-0.0
 51
90.0
  0
LINE
  8
0
 62
0
 10
217.56600000000003
 20
74.30999999999996
 30
0.0
 11
204.074
 21
74.30999999999996
 31
0.0
  0
LINE
  8
0
 62
0
 10
219.314
 20
3.1600000000000006
 30
0.0
 11
232.806
 21
3.1600000000000006
 31
0.0
  0
ARC
  8
0
 62
0
 10
219.314
 20
3.414
 30
0.0
 40
0.254
 50
180.0
 51
-90.0
  0
ARC
  8
0
 62
0
 10
232.806
 20
3.4140000000000006
 30
0.0
 40
0.254
 50
-90.0
 51
0.0
  0
LINE
  8
0
 62
0
 10
219.06
 20
16.906000000000002
 30
0.0
 11
219.06
 21
3.4140000000000033
 31
0.0
  0
LINE
  8
0
 62
0
 10
233.06
 20
3.4139999999999975
 30
0.0
 11
233.06
 21
16.905999999999995
 31
0.0
  0
ARC
  8
0
 62
0
 10
219.314
 20
16.906
 30
0.0
 40
0.254
 50
90.0
 51
-180.0
  0
ARC
  8
0
 62
0
 10
232.806
 20
16.906
 30
0.0
 40
0.254
 50
-0.0
 51
90.0
  0
LINE
  8
0
 62
0
 10
232.806
 20
17.16
 30
0.0
 11
219.314
 21
17.16
 31
0.0
  0
LINE
  8
0
 62
0
 10
243.44400000000002
 20
3.16
 30
0.0
 11
256.936
 21
3.16
 31
0.0
  0
ARC
  8
0
 62
0
 10
243.44400000000002
 20
3.414
 30
0.0
 40
0.254
 50
180.0
 51
-90.0
  0
ARC
  8
0
 62
0
 10
256.936
 20
3.414
 30
0.0
 40
0.254
 50
-90.0
 51
0.0
  0
LINE
  8
0
 62
0
 10
243.19000000000003
 20
16.906000000000002
 30
0.0
 11
243.19000000000003
 21
3.4140000000000033
 31
0.0
  0
LINE
  8
0
 62
0
 10
257.19
 20
3.4140000000000037
 30
0.0
 11
257.19
 21
16.906000000000002
 31
0.0
  0
ARC
  8
0
 62
0
 10
243.44400000000002
 20
16.906
 30
0.0
 40
0.254
 50
90.0
 51
-180.0
  0
ARC
  8
0
 62
0
 10
256.936
 20
16.906
 30
0.0
 40
0.254
 50
-0.0
 51
90.0
  0
LINE
  8
0
 62
0
 10
256.936
 20
17.16
 30
0.0
 11
243.44400000000002
 21
17.16
 31
0.0
  0
LINE
  8
0
 62
0
 10
267.57400000000007
 20
3.16
 30
0.0
 11
281.06600000000003
 21
3.16
 31
0.0
  0
ARC
  8
0
 62
0
 10
267.57400000000007
 20
3.414
 30
0.0
 40
0.254
 50
180.0
 51
-90.0
  0
ARC
  8
0
 62
0
 10
281.06600000000003
 20
3.414
 30
0.0
 40
0.254
 50
-90.0
 51
0.0
  0
LINE
  8
0
 62
0
 10
267.32000000000005
 20
16.906000000000002
 30
0.0
 11
267.32000000000005
 21
3.4140000000000033
 31
0.0
  0
LINE
  8
0
 62
0
 10
281.32000000000005
 20
3.4140000000000037
 30
0.0
 11
281.32000000000005
 21
16.906000000000002
 31
0.0
  0
ARC
  8
0
 62
0
 10
267.57400000000007
 20
16.906
 30
0.0
 40
0.254
 50
90.0
 51
-180.0
  0
ARC
  8
0
 62
0
 10
281.06600000000003
 20
16.906
 30
0.0
 40
0.254
 50
-0.0
 51
90.0
  0
LINE
  8
0
 62
0
 10
281.06600000000003
 20
17.16
 30
0.0
 11
267.57400000000007
 21
17.16
 31
0.0
  0
LINE
  8
0
 62
0
 10
295.514
 20
3.1599999999999895
 30
0.0
 11
309.006
 21
3.1599999999999895
 31
0.0
  0
ARC
  8
0
 62
0
 10
295.514
 20
3.4139999999999895
 30
0.0
 40
0.254
 50
-180.0
 51
-90.0
  0
ARC
  8
0
 62
0
 10
309.006
 20
3.4139999999999895
 30
0.0
 40
0.254
 50
-90.0
 51
-0.0
  0
LINE
  8
0
 62
0
 10
295.26
 20
16.905999999999988
 30
0.0
 11
295.26
 21
3.413999999999989
 31
0.0
  0
LINE
  8
0
 62
0
 10
309.26
 20
3.4139999999999895
 30
0.0
 11
309.26
 21
16.905999999999988
 31
0.0
  0
ARC
  8
0
 62
0
 10
295.514
 20
16.905999999999988
 30
0.0
 40
0.254
 50
90.0
 51
180.0
  0
ARC
  8
0
 62
0
 10
309.006
 20
16.905999999999988
 30
0.0
 40
0.254
 50
0.0
 51
90.0
  0
LINE
  8
0
 62
0
 10
309.006
 20
17.15999999999999
 30
0.0
 11
295.514
 21
17.15999999999999
 31
0.0
  0
LINE
  8
0
 62
0
 10
314.5640000000001
 20
3.1599999999999904
 30
0.0
 11
328.05600000000004
 21
3.1599999999999904
 31
0.0
  0
ARC
  8
0
 62
0
 10
314.5640000000001
 20
3.41399999999999
 30
0.0
 40
0.254
 50
-180.0
 51
-90.0
  0
ARC
  8
0
 62
0
 10
328.05600000000004
 20
3.4139999999999904
 30
0.0
 40
0.254
 50
-90.0
 51
-0.0
  0
LINE
  8
0
 62
0
 10
314.31000000000006
 20
16.905999999999988
 30
0.0
 11
314.31000000000006
 21
3.413999999999991
 31
0.0
  0
LINE
  8
0
 62
0
 10
328.31000000000006
 20
3.4139999999999913
 30
0.0
 11
328.31000000000006
 21
16.905999999999988
 31
0.0
  0
ARC
  8
0
 62
0
 10
314.5640000000001
 20
16.905999999999988
 30
0.0
 40
0.254
 50
90.0
 51
180.0
  0
ARC
  8
0
 62
0
 10
328.05600000000004
 20
16.905999999999988
 30
0.0
 40
0.254
 50
0.0
 51
90.0
  0
LINE
  8
0
 62
0
 10
328.05600000000004
 20
17.15999999999999
 30
0.0
 11
314.5640000000001
 21
17.15999999999999
 31
0.0
  0
LINE
  8
0
 62
0
 10
218.044
 20
22.21
 30
0.0
 11
231.53600000000003
 21
22.21
 31
0.0
  0
ARC
  8
0
 62
0
 10
218.044
 20
22.464000000000002
 30
0.0
 40
0.254
 50
-180.0
 51
-90.0
  0
ARC
  8
0
 62
0
 10
231.53600000000003
 20
22.464000000000002
 30
0.0
 40
0.254
 50
-90.0
 51
-0.0
  0
LINE
  8
0
 62
0
 10
217.79000000000002
 20
35.956
 30
0.0
 11
217.79000000000002
 21
22.464000000000002
 31
0.0
  0
LINE
  8
0
 62
0
 10
231.79000000000002
 20
22.464000000000002
 30
0.0
 11
231.79000000000002
 21
35.956
 31
0.0
  0
ARC
  8
0
 62
0
 10
218.044
 20
35.956
 30
0.0
 40
0.254
 50
90.0
 51
-180.0
  0
ARC
  8
0
 62
0
 10
231.53600000000003
 20
35.956
 30
0.0
 40
0.254
 50
-0.0
 51
90.0
  0
LINE
  8
0
 62
0
 10
231.53600000000003
 20
36.21
 30
0.0
 11
218.044
 21
36.21
 31
0.0
  0
LINE
  8
0
 62
0
 10
253.604
 20
22.21
 30
0.0
 11
267.096
 21
22.21
 31
0.0
  0
ARC
  8
0
 62
0
 10
253.604
 20
22.464000000000002
 30
0.0
 40
0.254
 50
-180.0
 51
-90.0
  0
ARC
  8
0
 62
0
 10
267.096
 20
22.464000000000002
 30
0.0
 40
0.254
 50
-90.0
 51
-0.0
  0
LINE
  8
0
 62
0
 10
253.35000000000002
 20
35.956
 30
0.0
 11
253.35000000000002
 21
22.464000000000002
 31
0.0
  0
LINE
  8
0
 62
0
 10
267.35
 20
22.464000000000002
 30
0.0
 11
267.35
 21
35.956
 31
0.0
  0
ARC
  8
0
 62
0
 10
253.604
 20
35.956
 30
0.0
 40
0.254
 50
90.0
 51
-180.0
  0
ARC
  8
0
 62
0
 10
267.096
 20
35.956
 30
0.0
 40
0.254
 50
-0.0
 51
90.0
  0
LINE
  8
0
 62
0
 10
267.096
 20
36.21
 30
0.0
 11
253.604
 21
36.21
 31
0.0
  0
LINE
  8
0
 62
0
 10
314.564
 20
22.210000000000008
 30
0.0
 11
328.056
 21
22.210000000000008
 31
0.0
  0
ARC
  8
0
 62
0
 10
314.564
 20
22.46400000000001
 30
0.0
 40
0.254
 50
180.0
 51
-90.0
  0
ARC
  8
0
 62
0
 10
328.056
 20
22.46400000000001
 30
0.0
 40
0.254
 50
-90.0
 51
0.0
  0
LINE
  8
0
 62
0
 10
314.31
 20
35.95600000000001
 30
0.0
 11
314.31
 21
22.46400000000001
 31
0.0
  0
LINE
  8
0
 62
0
 10
328.31
 20
22.46400000000001
 30
0.0
 11
328.31
 21
35.95600000000001
 31
0.0
  0
ARC
  8
0
 62
0
 10
314.564
 20
35.95600000000001
 30
0.0
 40
0.254
 50
90.0
 51
-180.0
  0
ARC
  8
0
 62
0
 10
328.056
 20
35.95600000000001
 30
0.0
 40
0.254
 50
-0.0
 51
90.0
  0
LINE
  8
0
 62
0
 10
328.056
 20
36.21000000000001
 30
0.0
 11
314.564
 21
36.21000000000001
 31
0.0
  0
LINE
  8
0
 62
0
 10
333.614
 20
3.159999999999992
 30
0.0
 11
347.10599999999994
 21
3.159999999999992
 31
0.0
  0
ARC
  8
0
 62
0
 10
333.614
 20
3.4139999999999926
 30
0.0
 40
0.254
 50
180.0
 51
-90.0
  0
ARC
  8
0
 62
0
 10
347.10599999999994
 20
3.413999999999992
 30
0.0
 40
0.254
 50
-90.0
 51
0.0
  0
LINE
  8
0
 62
0
 10
333.35999999999996
 20
16.905999999999988
 30
0.0
 11
333.35999999999996
 21
3.413999999999989
 31
0.0
  0
LINE
  8
0
 62
0
 10
347.35999999999996
 20
3.413999999999995
 30
0.0
 11
347.35999999999996
 21
16.905999999999995
 31
0.0
  0
ARC
  8
0
 62
0
 10
333.614
 20
16.90599999999999
 30
0.0
 40
0.254
 50
90.0
 51
-180.0
  0
ARC
  8
0
 62
0
 10
347.10599999999994
 20
16.90599999999999
 30
0.0
 40
0.254
 50
-0.0
 51
90.0
  0
LINE
  8
0
 62
0
 10
347.10599999999994
 20
17.159999999999993
 30
0.0
 11
333.614
 21
17.159999999999993
 31
0.0
  0
LINE
  8
0
 62
0
 10
368.53900000000004
 20
3.159999999999982
 30
0.0
 11
382.031
 21
3.159999999999982
 31
0.0
  0
ARC
  8
0
 62
0
 10
368.53900000000004
 20
3.4139999999999824
 30
0.0
 40
0.254
 50
-180.0
 51
-90.0
  0
ARC
  8
0
 62
0
 10
382.031
 20
3.413999999999982
 30
0.0
 40
0.254
 50
-90.0
 51
-0.0
  0
LINE
  8
0
 62
0
 10
368.285
 20
16.90599999999998
 30
0.0
 11
368.285
 21
3.413999999999982
 31
0.0
  0
LINE
  8
0
 62
0
 10
382.285
 20
3.4139999999999815
 30
0.0
 11
382.285
 21
16.90599999999998
 31
0.0
  0
ARC
  8
0
 62
0
 10
368.53900000000004
 20
16.90599999999998
 30
0.0
 40
0.254
 50
90.0
 51
-180.0
  0
ARC
  8
0
 62
0
 10
382.031
 20
16.90599999999998
 30
0.0
 40
0.254
 50
-0.0
 51
90.0
  0
LINE
  8
0
 62
0
 10
382.031
 20
17.159999999999982
 30
0.0
 11
368.53900000000004
 21
17.159999999999982
 31
0.0
  0
LINE
  8
0
 62
0
 10
397.1140000000001
 20
3.160000000000003
 30
0.0
 11
410.60600000000005
 21
3.160000000000003
 31
0.0
  0
ARC
  8
0
 62
0
 10
397.1140000000001
 20
3.4140000000000033
 30
0.0
 40
0.254
 50
-180.0
 51
-90.0
  0
ARC
  8
0
 62
0
 10
410.60600000000005
 20
3.414000000000003
 30
0.0
 40
0.254
 50
-90.0
 51
-0.0
  0
LINE
  8
0
 62
0
 10
396.86000000000007
 20
16.906000000000002
 30
0.0
 11
396.86000000000007
 21
3.4140000000000033
 31
0.0
  0
LINE
  8
0
 62
0
 10
410.86000000000007
 20
3.414000000000002
 30
0.0
 11
410.86000000000007
 21
16.906000000000002
 31
0.0
  0
ARC
  8
0
 62
0
 10
397.1140000000001
 20
16.906000000000002
 30
0.0
 40
0.254
 50
90.0
 51
180.0
  0
ARC
  8
0
 62
0
 10
410.60600000000005
 20
16.906000000000002
 30
0.0
 40
0.254
 50
0.0
 51
90.0
  0
LINE
  8
0
 62
0
 10
410.60600000000005
 20
17.160000000000004
 30
0.0
 11
397.1140000000001
 21
17.160000000000004
 31
0.0
  0
LINE
  8
0
 62
0
 10
359.0139999999999
 20
22.20999999999998
 30
0.0
 11
372.50599999999986
 21
22.20999999999998
 31
0.0
  0
ARC
  8
0
 62
0
 10
359.0139999999999
 20
22.46399999999998
 30
0.0
 40
0.254
 50
180.0
 51
-90.0
  0
ARC
  8
0
 62
0
 10
372.50599999999986
 20
22.46399999999998
 30
0.0
 40
0.254
 50
-90.0
 51
0.0
  0
LINE
  8
0
 62
0
 10
358.7599999999999
 20
35.95599999999998
 30
0.0
 11
358.7599999999999
 21
22.46399999999998
 31
0.0
  0
LINE
  8
0
 62
0
 10
372.7599999999999
 20
22.46399999999998
 30
0.0
 11
372.7599999999999
 21
35.95599999999998
 31
0.0
  0
ARC
  8
0
 62
0
 10
359.0139999999999
 20
35.95599999999998
 30
0.0
 40
0.254
 50
90.0
 51
-180.0
  0
ARC
  8
0
 62
0
 10
372.50599999999986
 20
35.95599999999998
 30
0.0
 40
0.254
 50
-0.0
 51
90.0
  0
LINE
  8
0
 62
0
 10
372.50599999999986
 20
36.20999999999998
 30
0.0
 11
359.0139999999999
 21
36.20999999999998
 31
0.0
  0
LINE
  8
0
 62
0
 10
416.1640000000001
 20
12.68500000000004
 30
0.0
 11
429.65600000000006
 21
12.68500000000004
 31
0.0
  0
ARC
  8
0
 62
0
 10
416.1640000000001
 20
12.93900000000004
 30
0.0
 40
0.254
 50
-180.0
 51
-90.0
  0
ARC
  8
0
 62
0
 10
429.65600000000006
 20
12.93900000000004
 30
0.0
 40
0.254
 50
-90.0
 51
-0.0
  0
LINE
  8
0
 62
0
 10
415.9100000000001
 20
26.431000000000036
 30
0.0
 11
415.9100000000001
 21
12.939000000000036
 31
0.0
  0
LINE
  8
0
 62
0
 10
429.9100000000001
 20
12.939000000000041
 30
0.0
 11
429.9100000000001
 21
26.43100000000004
 31
0.0
  0
ARC
  8
0
 62
0
 10
416.1640000000001
 20
26.43100000000004
 30
0.0
 40
0.254
 50
90.0
 51
-180.0
  0
ARC
  8
0
 62
0
 10
429.65600000000006
 20
26.43100000000004
 30
0.0
 40
0.254
 50
-0.0
 51
90.0
  0
LINE
  8
0
 62
0
 10
429.65600000000006
 20
26.68500000000004
 30
0.0
 11
416.1640000000001
 21
26.68500000000004
 31
0.0
  0
LINE
  8
0
 62
0
 10
378.064
 20
22.210000000000075
 30
0.0
 11
391.556
 21
22.210000000000075
 31
0.0
  0
ARC
  8
0
 62
0
 10
378.064
 20
22.464000000000077
 30
0.0
 40
0.254
 50
-180.0
 51
-90.0
  0
ARC
  8
0
 62
0
 10
391.556
 20
22.464000000000077
 30
0.0
 40
0.254
 50
-90.0
 51
-0.0
  0
LINE
  8
0
 62
0
 10
377.81
 20
35.95600000000008
 30
0.0
 11
377.81
 21
22.464000000000077
 31
0.0
  0
LINE
  8
0
 62
0
 10
391.81
 20
22.464000000000073
 30
0.0
 11
391.81
 21
35.95600000000008
 31
0.0
  0
ARC
  8
0
 62
0
 10
378.064
 20
35.95600000000008
 30
0.0
 40
0.254
 50
90.0
 51
-180.0
  0
ARC
  8
0
 62
0
 10
391.556
 20
35.95600000000008
 30
0.0
 40
0.254
 50
0.0
 51
90.0
  0
LINE
  8
0
 62
0
 10
391.556
 20
36.21000000000008
 30
0.0
 11
378.064
 21
36.21000000000008
 31
0.0
  0
LINE
  8
0
 62
0
 10
397.114
 20
22.210000000000058
 30
0.0
 11
410.60599999999994
 21
22.210000000000058
 31
0.0
  0
ARC
  8
0
 62
0
 10
397.114
 20
22.46400000000006
 30
0.0
 40
0.254
 50
-180.0
 51
-90.0
  0
ARC
  8
0
 62
0
 10
410.60599999999994
 20
22.46400000000006
 30
0.0
 40
0.254
 50
-90.0
 51
-0.0
  0
LINE
  8
0
 62
0
 10
396.85999999999996
 20
35.95600000000006
 30
0.0
 11
396.85999999999996
 21
22.46400000000006
 31
0.0
  0
LINE
  8
0
 62
0
 10
410.85999999999996
 20
22.46400000000006
 30
0.0
 11
410.85999999999996
 21
35.95600000000006
 31
0.0
  0
ARC
  8
0
 62
0
 10
397.114
 20
35.95600000000006
 30
0.0
 40
0.254
 50
90.0
 51
-180.0
  0
ARC
  8
0
 62
0
 10
410.60599999999994
 20
35.95600000000006
 30
0.0
 40
0.254
 50
-0.0
 51
90.0
  0
LINE
  8
0
 62
0
 10
410.60599999999994
 20
36.21000000000006
 30
0.0
 11
397.114
 21
36.21000000000006
 31
0.0
  0
LINE
  8
0
 62
0
 10
228.20399999999987
 20
41.25999999999998
 30
0.0
 11
241.69599999999988
 21
41.25999999999998
 31
0.0
  0
ARC
  8
0
 62
0
 10
228.20399999999987
 20
41.513999999999974
 30
0.0
 40
0.254
 50
-180.0
 51
-90.0
  0
ARC
  8
0
 62
0
 10
241.69599999999988
 20
41.513999999999974
 30
0.0
 40
0.254
 50
-90.0
 51
-0.0
  0
LINE
  8
0
 62
0
 10
227.94999999999987
 20
55.00599999999998
 30
0.0
 11
227.94999999999987
 21
41.513999999999974
 31
0.0
  0
LINE
  8
0
 62
0
 10
241.94999999999987
 20
41.513999999999974
 30
0.0
 11
241.94999999999987
 21
55.00599999999998
 31
0.0
  0
ARC
  8
0
 62
0
 10
228.20399999999987
 20
55.00599999999998
 30
0.0
 40
0.254
 50
90.0
 51
-180.0
  0
ARC
  8
0
 62
0
 10
241.69599999999988
 20
55.00599999999998
 30
0.0
 40
0.254
 50
-0.0
 51
90.0
  0
LINE
  8
0
 62
0
 10
241.69599999999988
 20
55.25999999999998
 30
0.0
 11
228.20399999999987
 21
55.25999999999998
 31
0.0
  0
LINE
  8
0
 62
0
 10
247.25400000000002
 20
41.26000000000009
 30
0.0
 11
260.74600000000004
 21
41.26000000000009
 31
0.0
  0
ARC
  8
0
 62
0
 10
247.25400000000002
 20
41.51400000000009
 30
0.0
 40
0.254
 50
-180.0
 51
-90.0
  0
ARC
  8
0
 62
0
 10
260.74600000000004
 20
41.51400000000009
 30
0.0
 40
0.254
 50
-90.0
 51
-0.0
  0
LINE
  8
0
 62
0
 10
247.00000000000003
 20
55.00600000000009
 30
0.0
 11
247.00000000000003
 21
41.51400000000009
 31
0.0
  0
LINE
  8
0
 62
0
 10
261.00000000000006
 20
41.51400000000009
 30
0.0
 11
261.00000000000006
 21
55.00600000000009
 31
0.0
  0
ARC
  8
0
 62
0
 10
247.25400000000002
 20
55.00600000000009
 30
0.0
 40
0.254
 50
90.0
 51
-180.0
  0
ARC
  8
0
 62
0
 10
260.74600000000004
 20
55.00600000000009
 30
0.0
 40
0.254
 50
-0.0
 51
90.0
  0
LINE
  8
0
 62
0
 10
260.74600000000004
 20
55.26000000000009
 30
0.0
 11
247.25400000000002
 21
55.26000000000009
 31
0.0
  0
LINE
  8
0
 62
0
 10
314.56399999999996
 20
41.25999999999992
 30
0.0
 11
328.0559999999999
 21
41.25999999999992
 31
0.0
  0
ARC
  8
0
 62
0
 10
314.56399999999996
 20
41.51399999999992
 30
0.0
 40
0.254
 50
-180.0
 51
-90.0
  0
ARC
  8
0
 62
0
 10
328.0559999999999
 20
41.51399999999992
 30
0.0
 40
0.254
 50
-90.0
 51
-0.0
  0
LINE
  8
0
 62
0
 10
314.30999999999995
 20
55.00599999999992
 30
0.0
 11
314.30999999999995
 21
41.51399999999992
 31
0.0
  0
LINE
  8
0
 62
0
 10
328.30999999999995
 20
41.51399999999992
 30
0.0
 11
328.30999999999995
 21
55.00599999999992
 31
0.0
  0
ARC
  8
0
 62
0
 10
314.56399999999996
 20
55.00599999999992
 30
0.0
 40
0.254
 50
90.0
 51
-180.0
  0
ARC
  8
0
 62
0
 10
328.0559999999999
 20
55.00599999999992
 30
0.0
 40
0.254
 50
-0.0
 51
90.0
  0
LINE
  8
0
 62
0
 10
328.0559999999999
 20
55.25999999999992
 30
0.0
 11
314.56399999999996
 21
55.25999999999992
 31
0.0
  0
LINE
  8
0
 62
0
 10
223.12399999999994
 20
60.309999999999924
 30
0.0
 11
236.61599999999996
 21
60.309999999999924
 31
0.0
  0
ARC
  8
0
 62
0
 10
223.12399999999994
 20
60.56399999999992
 30
0.0
 40
0.254
 50
-180.0
 51
-90.0
  0
ARC
  8
0
 62
0
 10
236.61599999999996
 20
60.56399999999992
 30
0.0
 40
0.254
 50
-90.0
 51
-0.0
  0
LINE
  8
0
 62
0
 10
222.86999999999995
 20
74.05599999999991
 30
0.0
 11
222.86999999999995
 21
60.56399999999992
 31
0.0
  0
LINE
  8
0
 62
0
 10
236.86999999999995
 20
60.56399999999992
 30
0.0
 11
236.86999999999995
 21
74.05599999999991
 31
0.0
  0
ARC
  8
0
 62
0
 10
223.12399999999994
 20
74.05599999999991
 30
0.0
 40
0.254
 50
90.0
 51
-180.0
  0
ARC
  8
0
 62
0
 10
236.61599999999996
 20
74.05599999999991
 30
0.0
 40
0.254
 50
-0.0
 51
90.0
  0
LINE
  8
0
 62
0
 10
236.61599999999996
 20
74.30999999999992
 30
0.0
 11
223.12399999999994
 21
74.30999999999992
 31
0.0
  0
LINE
  8
0
 62
0
 10
242.17399999999998
 20
60.310000000000024
 30
0.0
 11
255.666
 21
60.310000000000024
 31
0.0
  0
ARC
  8
0
 62
0
 10
242.17399999999998
 20
60.56400000000002
 30
0.0
 40
0.254
 50
-180.0
 51
-90.0
  0
ARC
  8
0
 62
0
 10
255.666
 20
60.56400000000002
 30
0.0
 40
0.254
 50
-90.0
 51
-0.0
  0
LINE
  8
0
 62
0
 10
241.92
 20
74.05600000000001
 30
0.0
 11
241.92
 21
60.56400000000002
 31
0.0
  0
LINE
  8
0
 62
0
 10
255.92
 20
60.56400000000002
 30
0.0
 11
255.92
 21
74.05600000000001
 31
0.0
  0
ARC
  8
0
 62
0
 10
242.17399999999998
 20
74.05600000000001
 30
0.0
 40
0.254
 50
90.0
 51
-180.0
  0
ARC
  8
0
 62
0
 10
255.666
 20
74.05600000000001
 30
0.0
 40
0.254
 50
-0.0
 51
90.0
  0
LINE
  8
0
 62
0
 10
255.666
 20
74.31000000000002
 30
0.0
 11
242.17399999999998
 21
74.31000000000002
 31
0.0
  0
LINE
  8
0
 62
0
 10
268.20899999999995
 20
50.78499999999993
 30
0.0
 11
281.7009999999999
 21
50.78499999999993
 31
0.0
  0
ARC
  8
0
 62
0
 10
268.20899999999995
 20
51.03899999999993
 30
0.0
 40
0.254
 50
-180.0
 51
-90.0
  0
ARC
  8
0
 62
0
 10
281.7009999999999
 20
51.03899999999993
 30
0.0
 40
0.254
 50
-90.0
 51
-0.0
  0
LINE
  8
0
 62
0
 10
267.9549999999999
 20
64.53099999999993
 30
0.0
 11
267.9549999999999
 21
51.03899999999993
 31
0.0
  0
LINE
  8
0
 62
0
 10
281.9549999999999
 20
51.03899999999993
 30
0.0
 11
281.9549999999999
 21
64.53099999999993
 31
0.0
  0
ARC
  8
0
 62
0
 10
268.20899999999995
 20
64.53099999999993
 30
0.0
 40
0.254
 50
90.0
 51
-180.0
  0
ARC
  8
0
 62
0
 10
281.7009999999999
 20
64.53099999999993
 30
0.0
 40
0.254
 50
-0.0
 51
90.0
  0
LINE
  8
0
 62
0
 10
281.7009999999999
 20
64.78499999999994
 30
0.0
 11
268.20899999999995
 21
64.78499999999994
 31
0.0
  0
LINE
  8
0
 62
0
 10
295.5140000000001
 20
60.310000000000066
 30
0.0
 11
309.0060000000001
 21
60.310000000000066
 31
0.0
  0
ARC
  8
0
 62
0
 10
295.5140000000001
 20
60.564000000000064
 30
0.0
 40
0.254
 50
-180.0
 51
-90.0
  0
ARC
  8
0
 62
0
 10
309.0060000000001
 20
60.564000000000064
 30
0.0
 40
0.254
 50
-90.0
 51
-0.0
  0
LINE
  8
0
 62
0
 10
295.2600000000001
 20
74.05600000000005
 30
0.0
 11
295.2600000000001
 21
60.564000000000064
 31
0.0
  0
LINE
  8
0
 62
0
 10
309.2600000000001
 20
60.564000000000064
 30
0.0
 11
309.2600000000001
 21
74.05600000000005
 31
0.0
  0
ARC
  8
0
 62
0
 10
295.5140000000001
 20
74.05600000000005
 30
0.0
 40
0.254
 50
90.0
 51
-180.0
  0
ARC
  8
0
 62
0
 10
309.0060000000001
 20
74.05600000000005
 30
0.0
 40
0.254
 50
-0.0
 51
90.0
  0
LINE
  8
0
 62
0
 10
309.0060000000001
 20
74.31000000000006
 30
0.0
 11
295.5140000000001
 21
74.31000000000006
 31
0.0
  0
LINE
  8
0
 62
0
 10
314.5639999999999
 20
60.30999999999996
 30
0.0
 11
328.05599999999987
 21
60.30999999999996
 31
0.0
  0
ARC
  8
0
 62
0
 10
314.5639999999999
 20
60.56399999999996
 30
0.0
 40
0.254
 50
-180.0
 51
-90.0
  0
ARC
  8
0
 62
0
 10
328.05599999999987
 20
60.56399999999996
 30
0.0
 40
0.254
 50
-90.0
 51
-0.0
  0
LINE
  8
0
 62
0
 10
314.3099999999999
 20
74.05599999999995
 30
0.0
 11
314.3099999999999
 21
60.56399999999996
 31
0.0
  0
LINE
  8
0
 62
0
 10
328.3099999999999
 20
60.56399999999996
 30
0.0
 11
328.3099999999999
 21
74.05599999999995
 31
0.0
  0
ARC
  8
0
 62
0
 10
314.5639999999999
 20
74.05599999999995
 30
0.0
 40
0.254
 50
90.0
 51
-180.0
  0
ARC
  8
0
 62
0
 10
328.05599999999987
 20
74.05599999999995
 30
0.0
 40
0.254
 50
-0.0
 51
90.0
  0
LINE
  8
0
 62
0
 10
328.05599999999987
 20
74.30999999999996
 30
0.0
 11
314.5639999999999
 21
74.30999999999996
 31
0.0
  0
LINE
  8
0
 62
0
 10
359.01400000000007
 20
41.26000000000012
 30
0.0
 11
372.50600000000003
 21
41.26000000000012
 31
0.0
  0
ARC
  8
0
 62
0
 10
359.01400000000007
 20
41.51400000000012
 30
0.0
 40
0.254
 50
-180.0
 51
-90.0
  0
ARC
  8
0
 62
0
 10
372.50600000000003
 20
41.51400000000012
 30
0.0
 40
0.254
 50
-90.0
 51
-0.0
  0
LINE
  8
0
 62
0
 10
358.76000000000005
 20
55.00600000000012
 30
0.0
 11
358.76000000000005
 21
41.51400000000012
 31
0.0
  0
LINE
  8
0
 62
0
 10
372.76000000000005
 20
41.51400000000012
 30
0.0
 11
372.76000000000005
 21
55.00600000000012
 31
0.0
  0
ARC
  8
0
 62
0
 10
359.01400000000007
 20
55.00600000000012
 30
0.0
 40
0.254
 50
90.0
 51
-180.0
  0
ARC
  8
0
 62
0
 10
372.50600000000003
 20
55.00600000000012
 30
0.0
 40
0.254
 50
-0.0
 51
90.0
  0
LINE
  8
0
 62
0
 10
372.50600000000003
 20
55.26000000000012
 30
0.0
 11
359.01400000000007
 21
55.26000000000012
 31
0.0
  0
LINE
  8
0
 62
0
 10
378.06399999999985
 20
41.26000000000002
 30
0.0
 11
391.5559999999998
 21
41.26000000000002
 31
0.0
  0
ARC
  8
0
 62
0
 10
378.06399999999985
 20
41.51400000000002
 30
0.0
 40
0.254
 50
-180.0
 51
-90.0
  0
ARC
  8
0
 62
0
 10
391.5559999999998
 20
41.51400000000002
 30
0.0
 40
0.254
 50
-90.0
 51
-0.0
  0
LINE
  8
0
 62
0
 10
377.80999999999983
 20
55.00600000000002
 30
0.0
 11
377.80999999999983
 21
41.51400000000002
 31
0.0
  0
LINE
  8
0
 62
0
 10
391.80999999999983
 20
41.51400000000002
 30
0.0
 11
391.80999999999983
 21
55.00600000000002
 31
0.0
  0
ARC
  8
0
 62
0
 10
378.06399999999985
 20
55.00600000000002
 30
0.0
 40
0.254
 50
90.0
 51
-180.0
  0
ARC
  8
0
 62
0
 10
391.5559999999998
 20
55.00600000000002
 30
0.0
 40
0.254
 50
-0.0
 51
90.0
  0
LINE
  8
0
 62
0
 10
391.5559999999998
 20
55.26000000000002
 30
0.0
 11
378.06399999999985
 21
55.26000000000002
 31
0.0
  0
LINE
  8
0
 62
0
 10
397.1140000000001
 20
41.260000000000204
 30
0.0
 11
410.60600000000005
 21
41.260000000000204
 31
0.0
  0
ARC
  8
0
 62
0
 10
397.1140000000001
 20
41.5140000000002
 30
0.0
 40
0.254
 50
-180.0
 51
-90.0
  0
ARC
  8
0
 62
0
 10
410.60600000000005
 20
41.5140000000002
 30
0.0
 40
0.254
 50
-90.0
 51
-0.0
  0
LINE
  8
0
 62
0
 10
396.86000000000007
 20
55.006000000000206
 30
0.0
 11
396.86000000000007
 21
41.5140000000002
 31
0.0
  0
LINE
  8
0
 62
0
 10
410.86000000000007
 20
41.5140000000002
 30
0.0
 11
410.86000000000007
 21
55.006000000000206
 31
0.0
  0
ARC
  8
0
 62
0
 10
397.1140000000001
 20
55.006000000000206
 30
0.0
 40
0.254
 50
90.0
 51
-180.0
  0
ARC
  8
0
 62
0
 10
410.60600000000005
 20
55.006000000000206
 30
0.0
 40
0.254
 50
-0.0
 51
90.0
  0
LINE
  8
0
 62
0
 10
410.60600000000005
 20
55.260000000000204
 30
0.0
 11
397.1140000000001
 21
55.260000000000204
 31
0.0
  0
LINE
  8
0
 62
0
 10
333.6139999999998
 20
60.31000000000002
 30
0.0
 11
347.10599999999977
 21
60.31000000000002
 31
0.0
  0
ARC
  8
0
 62
0
 10
333.6139999999998
 20
60.564000000000014
 30
0.0
 40
0.254
 50
-180.0
 51
-90.0
  0
ARC
  8
0
 62
0
 10
347.10599999999977
 20
60.564000000000014
 30
0.0
 40
0.254
 50
-90.0
 51
-0.0
  0
LINE
  8
0
 62
0
 10
333.3599999999998
 20
74.05600000000001
 30
0.0
 11
333.3599999999998
 21
60.564000000000014
 31
0.0
  0
LINE
  8
0
 62
0
 10
347.3599999999998
 20
60.564000000000014
 30
0.0
 11
347.3599999999998
 21
74.05600000000001
 31
0.0
  0
ARC
  8
0
 62
0
 10
333.6139999999998
 20
74.05600000000001
 30
0.0
 40
0.254
 50
90.0
 51
-180.0
  0
ARC
  8
0
 62
0
 10
347.10599999999977
 20
74.05600000000001
 30
0.0
 40
0.254
 50
-0.0
 51
90.0
  0
LINE
  8
0
 62
0
 10
347.10599999999977
 20
74.31000000000002
 30
0.0
 11
333.6139999999998
 21
74.31000000000002
 31
0.0
  0
LINE
  8
0
 62
0
 10
359.01399999999995
 20
60.31000000000005
 30
0.0
 11
372.5059999999999
 21
60.31000000000005
 31
0.0
  0
ARC
  8
0
 62
0
 10
359.01399999999995
 20
60.56400000000005
 30
0.0
 40
0.254
 50
-180.0
 51
-90.0
  0
ARC
  8
0
 62
0
 10
372.5059999999999
 20
60.56400000000005
 30
0.0
 40
0.254
 50
-90.0
 51
-0.0
  0
LINE
  8
0
 62
0
 10
358.75999999999993
 20
74.05600000000004
 30
0.0
 11
358.75999999999993
 21
60.56400000000005
 31
0.0
  0
LINE
  8
0
 62
0
 10
372.75999999999993
 20
60.56400000000005
 30
0.0
 11
372.75999999999993
 21
74.05600000000004
 31
0.0
  0
ARC
  8
0
 62
0
 10
359.01399999999995
 20
74.05600000000004
 30
0.0
 40
0.254
 50
90.0
 51
-180.0
  0
ARC
  8
0
 62
0
 10
372.5059999999999
 20
74.05600000000004
 30
0.0
 40
0.254
 50
-0.0
 51
90.0
  0
LINE
  8
0
 62
0
 10
372.5059999999999
 20
74.31000000000004
 30
0.0
 11
359.01399999999995
 21
74.31000000000004
 31
0.0
  0
LINE
  8
0
 62
0
 10
416.16400000000004
 20
50.78500000000012
 30
0.0
 11
429.656
 21
50.78500000000012
 31
0.0
  0
ARC
  8
0
 62
0
 10
416.16400000000004
 20
51.039000000000115
 30
0.0
 40
0.254
 50
-180.0
 51
-90.0
  0
ARC
  8
0
 62
0
 10
429.656
 20
51.039000000000115
 30
0.0
 40
0.254
 50
-90.0
 51
-0.0
  0
LINE
  8
0
 62
0
 10
415.91
 20
64.5310000000001
 30
0.0
 11
415.91
 21
51.039000000000115
 31
0.0
  0
LINE
  8
0
 62
0
 10
429.91
 20
51.039000000000115
 30
0.0
 11
429.91
 21
64.5310000000001
 31
0.0
  0
ARC
  8
0
 62
0
 10
416.16400000000004
 20
64.5310000000001
 30
0.0
 40
0.254
 50
90.0
 51
-180.0
  0
ARC
  8
0
 62
0
 10
429.656
 20
64.5310000000001
 30
0.0
 40
0.254
 50
-0.0
 51
90.0
  0
LINE
  8
0
 62
0
 10
429.656
 20
64.78500000000011
 30
0.0
 11
416.16400000000004
 21
64.78500000000011
 31
0.0
  0
LINE
  8
0
 62
0
 10
378.06399999999985
 20
60.31000000000007
 30
0.0
 11
391.5559999999998
 21
60.31000000000007
 31
0.0
  0
ARC
  8
0
 62
0
 10
378.06399999999985
 20
60.56400000000007
 30
0.0
 40
0.254
 50
-180.0
 51
-90.0
  0
ARC
  8
0
 62
0
 10
391.5559999999998
 20
60.56400000000007
 30
0.0
 40
0.254
 50
-90.0
 51
-0.0
  0
LINE
  8
0
 62
0
 10
377.80999999999983
 20
74.05600000000007
 30
0.0
 11
377.80999999999983
 21
60.56400000000007
 31
0.0
  0
LINE
  8
0
 62
0
 10
391.80999999999983
 20
60.56400000000007
 30
0.0
 11
391.80999999999983
 21
74.05600000000007
 31
0.0
  0
ARC
  8
0
 62
0
 10
378.06399999999985
 20
74.05600000000007
 30
0.0
 40
0.254
 50
90.0
 51
-180.0
  0
ARC
  8
0
 62
0
 10
391.5559999999998
 20
74.05600000000007
 30
0.0
 40
0.254
 50
-0.0
 51
90.0
  0
LINE
  8
0
 62
0
 10
391.5559999999998
 20
74.31000000000007
 30
0.0
 11
378.06399999999985
 21
74.31000000000007
 31
0.0
  0
LINE
  8
0
 62
0
 10
397.1139999999998
 20
60.309999999999945
 30
0.0
 11
410.60599999999977
 21
60.309999999999945
 31
0.0
  0
ARC
  8
0
 62
0
 10
397.1139999999998
 20
60.56399999999994
 30
0.0
 40
0.254
 50
-180.0
 51
-90.0
  0
ARC
  8
0
 62
0
 10
410.60599999999977
 20
60.56399999999994
 30
0.0
 40
0.254
 50
-90.0
 51
-0.0
  0
LINE
  8
0
 62
0
 10
396.8599999999998
 20
74.05599999999994
 30
0.0
 11
396.8599999999998
 21
60.56399999999994
 31
0.0
  0
LINE
  8
0
 62
0
 10
410.8599999999998
 20
60.56399999999994
 30
0.0
 11
410.8599999999998
 21
74.05599999999994
 31
0.0
  0
ARC
  8
0
 62
0
 10
397.1139999999998
 20
74.05599999999994
 30
0.0
 40
0.254
 50
90.0
 51
-180.0
  0
ARC
  8
0
 62
0
 10
410.60599999999977
 20
74.05599999999994
 30
0.0
 40
0.254
 50
-0.0
 51
90.0
  0
LINE
  8
0
 62
0
 10
410.60599999999977
 20
74.30999999999995
 30
0.0
 11
397.1139999999998
 21
74.30999999999995
 31
0.0
  0
LINE
  8
0
 62
0
 10
3.4140000000000064
 20
79.36
 30
0.0
 11
16.906000000000006
 21
79.36
 31
0.0
  0
ARC
  8
0
 62
0
 10
3.4140000000000015
 20
79.614
 30
0.0
 40
0.254
 50
-180.0
 51
-89.9999999999984
  0
ARC
  8
0
 62
0
 10
16.906
 20
79.614
 30
0.0
 40
0.254
 50
-89.9999999999992
 51
-0.0
  0
LINE
  8
0
 62
0
 10
3.1600000000000015
 20
93.106
 30
0.0
 11
3.1600000000000015
 21
79.614
 31
0.0
  0
LINE
  8
0
 62
0
 10
17.16
 20
79.614
 30
0.0
 11
17.16
 21
93.106
 31
0.0
  0
ARC
  8
0
 62
0
 10
3.414000000000002
 20
93.106
 30
0.0
 40
0.254
 50
89.9999999999985
 51
-180.0
  0
ARC
  8
0
 62
0
 10
16.906
 20
93.106
 30
0.0
 40
0.254
 50
-0.0
 51
89.9999999999992
  0
LINE
  8
0
 62
0
 10
16.906000000000002
 20
93.36
 30
0.0
 11
3.414000000000005
 21
93.36
 31
0.0
  0
LINE
  8
0
 62
0
 10
22.464000000000002
 20
79.36000000000001
 30
0.0
 11
35.956
 21
79.36000000000001
 31
0.0
  0
ARC
  8
0
 62
0
 10
22.464000000000006
 20
79.61400000000002
 30
0.0
 40
0.254
 50
-180.0
 51
-90.0000000000008
  0
ARC
  8
0
 62
0
 10
35.956
 20
79.61400000000002
 30
0.0
 40
0.254
 50
-89.9999999999984
 51
-0.0
  0
LINE
  8
0
 62
0
 10
22.210000000000004
 20
93.10600000000001
 30
0.0
 11
22.210000000000004
 21
79.61400000000002
 31
0.0
  0
LINE
  8
0
 62
0
 10
36.21
 20
79.61400000000002
 30
0.0
 11
36.21
 21
93.10600000000001
 31
0.0
  0
ARC
  8
0
 62
0
 10
22.464000000000006
 20
93.10600000000001
 30
0.0
 40
0.254
 50
90.0000000000008
 51
-180.0
  0
ARC
  8
0
 62
0
 10
35.956
 20
93.10600000000001
 30
0.0
 40
0.254
 50
-0.0
 51
90.0000000000016
  0
LINE
  8
0
 62
0
 10
35.955999999999996
 20
93.36000000000001
 30
0.0
 11
22.464
 21
93.36000000000001
 31
0.0
  0
LINE
  8
0
 62
0
 10
41.513999999999974
 20
79.35999999999999
 30
0.0
 11
55.00599999999998
 21
79.35999999999999
 31
0.0
  0
ARC
  8
0
 62
0
 10
41.51399999999997
 20
79.61399999999999
 30
0.0
 40
0.254
 50
-180.0
 51
-89.9999999999984
  0
ARC
  8
0
 62
0
 10
55.00599999999997
 20
79.61399999999999
 30
0.0
 40
0.254
 50
-90.0
 51
-0.0
  0
LINE
  8
0
 62
0
 10
41.25999999999997
 20
93.10599999999998
 30
0.0
 11
41.25999999999997
 21
79.61399999999999
 31
0.0
  0
LINE
  8
0
 62
0
 10
55.25999999999997
 20
79.61399999999999
 30
0.0
 11
55.25999999999997
 21
93.10599999999998
 31
0.0
  0
ARC
  8
0
 62
0
 10
41.51399999999997
 20
93.10599999999998
 30
0.0
 40
0.254
 50
89.9999999999984
 51
-180.0
  0
ARC
  8
0
 62
0
 10
55.00599999999997
 20
93.10599999999998
 30
0.0
 40
0.254
 50
-0.0
 51
90.0
  0
LINE
  8
0
 62
0
 10
55.00599999999998
 20
93.35999999999999
 30
0.0
 11
41.513999999999974
 21
93.35999999999999
 31
0.0
  0
LINE
  8
0
 62
0
 10
60.563999999999986
 20
79.35999999999996
 30
0.0
 11
74.05599999999998
 21
79.35999999999996
 31
0.0
  0
ARC
  8
0
 62
0
 10
60.56399999999998
 20
79.61399999999996
 30
0.0
 40
0.254
 50
-180.0
 51
-89.9999999999984
  0
ARC
  8
0
 62
0
 10
74.05599999999998
 20
79.61399999999996
 30
0.0
 40
0.254
 50
-90.0
 51
-0.0
  0
LINE
  8
0
 62
0
 10
60.30999999999998
 20
93.10599999999995
 30
0.0
 11
60.30999999999998
 21
79.61399999999996
 31
0.0
  0
LINE
  8
0
 62
0
 10
74.30999999999999
 20
79.61399999999996
 30
0.0
 11
74.30999999999999
 21
93.10599999999995
 31
0.0
  0
ARC
  8
0
 62
0
 10
60.56399999999998
 20
93.10599999999995
 30
0.0
 40
0.254
 50
89.9999999999984
 51
-180.0
  0
ARC
  8
0
 62
0
 10
74.05599999999998
 20
93.10599999999995
 30
0.0
 40
0.254
 50
-0.0
 51
90.0
  0
LINE
  8
0
 62
0
 10
74.056
 20
93.35999999999996
 30
0.0
 11
60.56399999999999
 21
93.35999999999996
 31
0.0
  0
LINE
  8
0
 62
0
 10
79.61400000000002
 20
79.36000000000006
 30
0.0
 11
93.10600000000001
 21
79.36000000000006
 31
0.0
  0
ARC
  8
0
 62
0
 10
79.614
 20
79.61400000000006
 30
0.0
 40
0.254
 50
-180.0
 51
-90.0
  0
ARC
  8
0
 62
0
 10
93.106
 20
79.61400000000006
 30
0.0
 40
0.254
 50
-90.0
 51
-0.0
  0
LINE
  8
0
 62
0
 10
79.36
 20
93.10600000000005
 30
0.0
 11
79.36
 21
79.61400000000006
 31
0.0
  0
LINE
  8
0
 62
0
 10
93.36
 20
79.61400000000006
 30
0.0
 11
93.36
 21
93.10600000000005
 31
0.0
  0
ARC
  8
0
 62
0
 10
79.614
 20
93.10600000000005
 30
0.0
 40
0.254
 50
90.0
 51
-180.0
  0
ARC
  8
0
 62
0
 10
93.106
 20
93.10600000000005
 30
0.0
 40
0.254
 50
-0.0
 51
90.0
  0
LINE
  8
0
 62
0
 10
93.106
 20
93.36000000000006
 30
0.0
 11
79.614
 21
93.36000000000006
 31
0.0
  0
LINE
  8
0
 62
0
 10
98.664
 20
79.35999999999999
 30
0.0
 11
112.15599999999999
 21
79.35999999999999
 31
0.0
  0
ARC
  8
0
 62
0
 10
98.664
 20
79.61399999999999
 30
0.0
 40
0.254
 50
-180.0
 51
-90.0
  0
ARC
  8
0
 62
0
 10
112.15599999999999
 20
79.61399999999999
 30
0.0
 40
0.254
 50
-90.0
 51
-0.0
  0
LINE
  8
0
 62
0
 10
98.41
 20
93.10599999999998
 30
0.0
 11
98.41
 21
79.61399999999999
 31
0.0
  0
LINE
  8
0
 62
0
 10
112.41
 20
79.61399999999999
 30
0.0
 11
112.41
 21
93.10599999999998
 31
0.0
  0
ARC
  8
0
 62
0
 10
98.664
 20
93.10599999999998
 30
0.0
 40
0.254
 50
90.0
 51
-180.0
  0
ARC
  8
0
 62
0
 10
112.15599999999999
 20
93.10599999999998
 30
0.0
 40
0.254
 50
-0.0
 51
90.0
  0
LINE
  8
0
 62
0
 10
112.15599999999999
 20
93.35999999999999
 30
0.0
 11
98.664
 21
93.35999999999999
 31
0.0
  0
LINE
  8
0
 62
0
 10
117.71400000000004
 20
79.36000000000003
 30
0.0
 11
131.20600000000005
 21
79.36000000000003
 31
0.0
  0
ARC
  8
0
 62
0
 10
117.71400000000004
 20
79.61400000000003
 30
0.0
 40
0.254
 50
-180.0
 51
-90.0
  0
ARC
  8
0
 62
0
 10
131.20600000000005
 20
79.61400000000003
 30
0.0
 40
0.254
 50
-90.0
 51
-0.0
  0
LINE
  8
0
 62
0
 10
117.46000000000004
 20
93.10600000000002
 30
0.0
 11
117.46000000000004
 21
79.61400000000003
 31
0.0
  0
LINE
  8
0
 62
0
 10
131.46000000000004
 20
79.61400000000003
 30
0.0
 11
131.46000000000004
 21
93.10600000000002
 31
0.0
  0
ARC
  8
0
 62
0
 10
117.71400000000004
 20
93.10600000000002
 30
0.0
 40
0.254
 50
90.0
 51
-180.0
  0
ARC
  8
0
 62
0
 10
131.20600000000005
 20
93.10600000000002
 30
0.0
 40
0.254
 50
-0.0
 51
90.0
  0
LINE
  8
0
 62
0
 10
131.20600000000005
 20
93.36000000000003
 30
0.0
 11
117.71400000000004
 21
93.36000000000003
 31
0.0
  0
LINE
  8
0
 62
0
 10
136.76400000000004
 20
79.36000000000003
 30
0.0
 11
150.25600000000006
 21
79.36000000000003
 31
0.0
  0
ARC
  8
0
 62
0
 10
136.76400000000004
 20
79.61400000000003
 30
0.0
 40
0.254
 50
-180.0
 51
-90.0
  0
ARC
  8
0
 62
0
 10
150.25600000000006
 20
79.61400000000003
 30
0.0
 40
0.254
 50
-90.0
 51
-0.0
  0
LINE
  8
0
 62
0
 10
136.51000000000005
 20
93.10600000000002
 30
0.0
 11
136.51000000000005
 21
79.61400000000003
 31
0.0
  0
LINE
  8
0
 62
0
 10
150.51000000000005
 20
79.61400000000003
 30
0.0
 11
150.51000000000005
 21
93.10600000000002
 31
0.0
  0
ARC
  8
0
 62
0
 10
136.76400000000004
 20
93.10600000000002
 30
0.0
 40
0.254
 50
90.0
 51
-180.0
  0
ARC
  8
0
 62
0
 10
150.25600000000006
 20
93.10600000000002
 30
0.0
 40
0.254
 50
-0.0
 51
90.0
  0
LINE
  8
0
 62
0
 10
150.25600000000006
 20
93.36000000000003
 30
0.0
 11
136.76400000000004
 21
93.36000000000003
 31
0.0
  0
LINE
  8
0
 62
0
 10
155.81399999999994
 20
79.35999999999996
 30
0.0
 11
169.30599999999995
 21
79.35999999999996
 31
0.0
  0
ARC
  8
0
 62
0
 10
155.81399999999994
 20
79.61399999999996
 30
0.0
 40
0.254
 50
-180.0
 51
-90.0
  0
ARC
  8
0
 62
0
 10
169.30599999999995
 20
79.61399999999996
 30
0.0
 40
0.254
 50
-90.0
 51
-0.0
  0
LINE
  8
0
 62
0
 10
155.55999999999995
 20
93.10599999999995
 30
0.0
 11
155.55999999999995
 21
79.61399999999996
 31
0.0
  0
LINE
  8
0
 62
0
 10
169.55999999999995
 20
79.61399999999996
 30
0.0
 11
169.55999999999995
 21
93.10599999999995
 31
0.0
  0
ARC
  8
0
 62
0
 10
155.81399999999994
 20
93.10599999999995
 30
0.0
 40
0.254
 50
90.0
 51
-180.0
  0
ARC
  8
0
 62
0
 10
169.30599999999995
 20
93.10599999999995
 30
0.0
 40
0.254
 50
-0.0
 51
90.0
  0
LINE
  8
0
 62
0
 10
169.30599999999995
 20
93.35999999999996
 30
0.0
 11
155.81399999999994
 21
93.35999999999996
 31
0.0
  0
LINE
  8
0
 62
0
 10
174.86399999999992
 20
79.35999999999999
 30
0.0
 11
188.35599999999994
 21
79.35999999999999
 31
0.0
  0
ARC
  8
0
 62
0
 10
174.86399999999992
 20
79.61399999999999
 30
0.0
 40
0.254
 50
-180.0
 51
-90.0
  0
ARC
  8
0
 62
0
 10
188.35599999999994
 20
79.61399999999999
 30
0.0
 40
0.254
 50
-90.0
 51
-0.0
  0
LINE
  8
0
 62
0
 10
174.60999999999993
 20
93.10599999999998
 30
0.0
 11
174.60999999999993
 21
79.61399999999999
 31
0.0
  0
LINE
  8
0
 62
0
 10
188.60999999999993
 20
79.61399999999999
 30
0.0
 11
188.60999999999993
 21
93.10599999999998
 31
0.0
  0
ARC
  8
0
 62
0
 10
174.86399999999992
 20
93.10599999999998
 30
0.0
 40
0.254
 50
90.0
 51
-180.0
  0
ARC
  8
0
 62
0
 10
188.35599999999994
 20
93.10599999999998
 30
0.0
 40
0.254
 50
-0.0
 51
90.0
  0
LINE
  8
0
 62
0
 10
188.35599999999994
 20
93.35999999999999
 30
0.0
 11
174.86399999999992
 21
93.35999999999999
 31
0.0
  0
LINE
  8
0
 62
0
 10
193.91400000000004
 20
79.36000000000011
 30
0.0
 11
207.40600000000006
 21
79.36000000000011
 31
0.0
  0
ARC
  8
0
 62
0
 10
193.91400000000004
 20
79.61400000000012
 30
0.0
 40
0.254
 50
-180.0
 51
-90.0
  0
ARC
  8
0
 62
0
 10
207.40600000000006
 20
79.61400000000012
 30
0.0
 40
0.254
 50
-90.0
 51
-0.0
  0
LINE
  8
0
 62
0
 10
193.66000000000005
 20
93.10600000000011
 30
0.0
 11
193.66000000000005
 21
79.61400000000012
 31
0.0
  0
LINE
  8
0
 62
0
 10
207.66000000000005
 20
79.61400000000012
 30
0.0
 11
207.66000000000005
 21
93.10600000000011
 31
0.0
  0
ARC
  8
0
 62
0
 10
193.91400000000004
 20
93.10600000000011
 30
0.0
 40
0.254
 50
90.0
 51
-180.0
  0
ARC
  8
0
 62
0
 10
207.40600000000006
 20
93.10600000000011
 30
0.0
 40
0.254
 50
-0.0
 51
90.0
  0
LINE
  8
0
 62
0
 10
207.40600000000006
 20
93.36000000000011
 30
0.0
 11
193.91400000000004
 21
93.36000000000011
 31
0.0
  0
LINE
  8
0
 62
0
 10
3.414000000000001
 20
109.84
 30
0.0
 11
16.906
 21
109.84
 31
0.0
  0
ARC
  8
0
 62
0
 10
3.413999999999999
 20
110.09400000000001
 30
0.0
 40
0.254
 50
-180.0
 51
-90.00000000000131
  0
ARC
  8
0
 62
0
 10
16.906
 20
110.09400000000001
 30
0.0
 40
0.254
 50
-89.9999999999992
 51
-0.0
  0
LINE
  8
0
 62
0
 10
3.159999999999999
 20
123.586
 30
0.0
 11
3.159999999999999
 21
110.09400000000001
 31
0.0
  0
LINE
  8
0
 62
0
 10
17.16
 20
110.09400000000001
 30
0.0
 11
17.16
 21
123.586
 31
0.0
  0
ARC
  8
0
 62
0
 10
3.4139999999999984
 20
123.586
 30
0.0
 40
0.254
 50
90.00000000000131
 51
-180.0
  0
ARC
  8
0
 62
0
 10
16.906
 20
123.586
 30
0.0
 40
0.254
 50
-0.0
 51
89.9999999999992
  0
LINE
  8
0
 62
0
 10
16.906000000000002
 20
123.84
 30
0.0
 11
3.4140000000000015
 21
123.84
 31
0.0
  0
LINE
  8
0
 62
0
 10
41.513999999999974
 20
109.84
 30
0.0
 11
55.00599999999998
 21
109.84
 31
0.0
  0
ARC
  8
0
 62
0
 10
41.51399999999998
 20
110.09400000000001
 30
0.0
 40
0.254
 50
-180.0
 51
-90.0
  0
ARC
  8
0
 62
0
 10
55.005999999999986
 20
110.09400000000001
 30
0.0
 40
0.254
 50
-89.9999999999984
 51
-0.0
  0
LINE
  8
0
 62
0
 10
41.259999999999984
 20
123.586
 30
0.0
 11
41.259999999999984
 21
110.09400000000001
 31
0.0
  0
LINE
  8
0
 62
0
 10
55.259999999999984
 20
110.09400000000001
 30
0.0
 11
55.259999999999984
 21
123.586
 31
0.0
  0
ARC
  8
0
 62
0
 10
41.51399999999998
 20
123.586
 30
0.0
 40
0.254
 50
90.0
 51
-180.0
  0
ARC
  8
0
 62
0
 10
55.005999999999986
 20
123.586
 30
0.0
 40
0.254
 50
-0.0
 51
89.9999999999984
  0
LINE
  8
0
 62
0
 10
55.00599999999998
 20
123.84
 30
0.0
 11
41.513999999999974
 21
123.84
 31
0.0
  0
LINE
  8
0
 62
0
 10
60.564000000000014
 20
109.83999999999997
 30
0.0
 11
74.05600000000001
 21
109.83999999999997
 31
0.0
  0
ARC
  8
0
 62
0
 10
60.56400000000001
 20
110.09399999999998
 30
0.0
 40
0.254
 50
-180.0
 51
-90.0000000000016
  0
ARC
  8
0
 62
0
 10
74.05600000000001
 20
110.09399999999998
 30
0.0
 40
0.254
 50
-90.0
 51
-0.0
  0
LINE
  8
0
 62
0
 10
60.31000000000001
 20
123.58599999999997
 30
0.0
 11
60.31000000000001
 21
110.09399999999998
 31
0.0
  0
LINE
  8
0
 62
0
 10
74.31000000000002
 20
110.09399999999998
 30
0.0
 11
74.31000000000002
 21
123.58599999999997
 31
0.0
  0
ARC
  8
0
 62
0
 10
60.56400000000001
 20
123.58599999999997
 30
0.0
 40
0.254
 50
90.0000000000016
 51
-180.0
  0
ARC
  8
0
 62
0
 10
74.05600000000001
 20
123.58599999999997
 30
0.0
 40
0.254
 50
-0.0
 51
90.0
  0
LINE
  8
0
 62
0
 10
74.056
 20
123.83999999999997
 30
0.0
 11
60.56399999999999
 21
123.83999999999997
 31
0.0
  0
LINE
  8
0
 62
0
 10
79.61399999999996
 20
109.84000000000003
 30
0.0
 11
93.10599999999995
 21
109.84000000000003
 31
0.0
  0
ARC
  8
0
 62
0
 10
79.61399999999996
 20
110.09400000000004
 30
0.0
 40
0.254
 50
-180.0
 51
-90.00000000000321
  0
ARC
  8
0
 62
0
 10
93.10599999999995
 20
110.09400000000004
 30
0.0
 40
0.254
 50
-90.0
 51
-0.0
  0
LINE
  8
0
 62
0
 10
79.35999999999996
 20
123.58600000000003
 30
0.0
 11
79.35999999999996
 21
110.09400000000004
 31
0.0
  0
LINE
  8
0
 62
0
 10
93.35999999999996
 20
110.09400000000004
 30
0.0
 11
93.35999999999996
 21
123.58600000000003
 31
0.0
  0
ARC
  8
0
 62
0
 10
79.61399999999996
 20
123.58600000000003
 30
0.0
 40
0.254
 50
90.00000000000321
 51
-180.0
  0
ARC
  8
0
 62
0
 10
93.10599999999995
 20
123.58600000000003
 30
0.0
 40
0.254
 50
-0.0
 51
90.0
  0
LINE
  8
0
 62
0
 10
93.10599999999995
 20
123.84000000000003
 30
0.0
 11
79.61399999999996
 21
123.84000000000003
 31
0.0
  0
LINE
  8
0
 62
0
 10
98.66400000000003
 20
109.83999999999985
 30
0.0
 11
112.15600000000002
 21
109.83999999999985
 31
0.0
  0
ARC
  8
0
 62
0
 10
98.66400000000003
 20
110.09399999999985
 30
0.0
 40
0.254
 50
-180.0
 51
-90.0
  0
ARC
  8
0
 62
0
 10
112.15600000000002
 20
110.09399999999985
 30
0.0
 40
0.254
 50
-90.0
 51
-0.0
  0
LINE
  8
0
 62
0
 10
98.41000000000003
 20
123.58599999999984
 30
0.0
 11
98.41000000000003
 21
110.09399999999985
 31
0.0
  0
LINE
  8
0
 62
0
 10
112.41000000000003
 20
110.09399999999985
 30
0.0
 11
112.41000000000003
 21
123.58599999999984
 31
0.0
  0
ARC
  8
0
 62
0
 10
98.66400000000003
 20
123.58599999999984
 30
0.0
 40
0.254
 50
90.0
 51
-180.0
  0
ARC
  8
0
 62
0
 10
112.15600000000002
 20
123.58599999999984
 30
0.0
 40
0.254
 50
-0.0
 51
90.0
  0
LINE
  8
0
 62
0
 10
112.15600000000002
 20
123.83999999999985
 30
0.0
 11
98.66400000000003
 21
123.83999999999985
 31
0.0
  0
LINE
  8
0
 62
0
 10
126.60400000000011
 20
109.84000000000006
 30
0.0
 11
140.09600000000012
 21
109.84000000000006
 31
0.0
  0
ARC
  8
0
 62
0
 10
126.60400000000011
 20
110.09400000000007
 30
0.0
 40
0.254
 50
-180.0
 51
-90.0
  0
ARC
  8
0
 62
0
 10
140.09600000000012
 20
110.09400000000007
 30
0.0
 40
0.254
 50
-90.0
 51
-0.0
  0
LINE
  8
0
 62
0
 10
126.35000000000011
 20
123.58600000000006
 30
0.0
 11
126.35000000000011
 21
110.09400000000007
 31
0.0
  0
LINE
  8
0
 62
0
 10
140.3500000000001
 20
110.09400000000007
 30
0.0
 11
140.3500000000001
 21
123.58600000000006
 31
0.0
  0
ARC
  8
0
 62
0
 10
126.60400000000011
 20
123.58600000000006
 30
0.0
 40
0.254
 50
90.0
 51
-180.0
  0
ARC
  8
0
 62
0
 10
140.09600000000012
 20
123.58600000000006
 30
0.0
 40
0.254
 50
-0.0
 51
90.0
  0
LINE
  8
0
 62
0
 10
140.09600000000012
 20
123.84000000000006
 30
0.0
 11
126.60400000000011
 21
123.84000000000006
 31
0.0
  0
LINE
  8
0
 62
0
 10
145.65399999999994
 20
109.84000000000013
 30
0.0
 11
159.14599999999996
 21
109.84000000000013
 31
0.0
  0
ARC
  8
0
 62
0
 10
145.65399999999994
 20
110.09400000000014
 30
0.0
 40
0.254
 50
-180.0
 51
-90.0
  0
ARC
  8
0
 62
0
 10
159.14599999999996
 20
110.09400000000014
 30
0.0
 40
0.254
 50
-90.0
 51
-0.0
  0
LINE
  8
0
 62
0
 10
145.39999999999995
 20
123.58600000000013
 30
0.0
 11
145.39999999999995
 21
110.09400000000014
 31
0.0
  0
LINE
  8
0
 62
0
 10
159.39999999999995
 20
110.09400000000014
 30
0.0
 11
159.39999999999995
 21
123.58600000000013
 31
0.0
  0
ARC
  8
0
 62
0
 10
145.65399999999994
 20
123.58600000000013
 30
0.0
 40
0.254
 50
90.0
 51
-180.0
  0
ARC
  8
0
 62
0
 10
159.14599999999996
 20
123.58600000000013
 30
0.0
 40
0.254
 50
-0.0
 51
90.0
  0
LINE
  8
0
 62
0
 10
159.14599999999996
 20
123.84000000000013
 30
0.0
 11
145.65399999999994
 21
123.84000000000013
 31
0.0
  0
LINE
  8
0
 62
0
 10
164.7039999999998
 20
109.83999999999996
 30
0.0
 11
178.19599999999983
 21
109.83999999999996
 31
0.0
  0
ARC
  8
0
 62
0
 10
164.7039999999998
 20
110.09399999999997
 30
0.0
 40
0.254
 50
-180.0
 51
-90.0
  0
ARC
  8
0
 62
0
 10
178.19599999999983
 20
110.09399999999997
 30
0.0
 40
0.254
 50
-90.0
 51
-0.0
  0
LINE
  8
0
 62
0
 10
164.44999999999982
 20
123.58599999999996
 30
0.0
 11
164.44999999999982
 21
110.09399999999997
 31
0.0
  0
LINE
  8
0
 62
0
 10
178.44999999999982
 20
110.09399999999997
 30
0.0
 11
178.44999999999982
 21
123.58599999999996
 31
0.0
  0
ARC
  8
0
 62
0
 10
164.7039999999998
 20
123.58599999999996
 30
0.0
 40
0.254
 50
90.0
 51
-180.0
  0
ARC
  8
0
 62
0
 10
178.19599999999983
 20
123.58599999999996
 30
0.0
 40
0.254
 50
-0.0
 51
90.0
  0
LINE
  8
0
 62
0
 10
178.19599999999983
 20
123.83999999999996
 30
0.0
 11
164.7039999999998
 21
123.83999999999996
 31
0.0
  0
LINE
  8
0
 62
0
 10
183.75399999999996
 20
109.84000000000005
 30
0.0
 11
197.24599999999998
 21
109.84000000000005
 31
0.0
  0
ARC
  8
0
 62
0
 10
183.75399999999996
 20
110.09400000000005
 30
0.0
 40
0.254
 50
-180.0
 51
-90.0
  0
ARC
  8
0
 62
0
 10
197.24599999999998
 20
110.09400000000005
 30
0.0
 40
0.254
 50
-90.0
 51
-0.0
  0
LINE
  8
0
 62
0
 10
183.49999999999997
 20
123.58600000000004
 30
0.0
 11
183.49999999999997
 21
110.09400000000005
 31
0.0
  0
LINE
  8
0
 62
0
 10
197.49999999999997
 20
110.09400000000005
 30
0.0
 11
197.49999999999997
 21
123.58600000000004
 31
0.0
  0
ARC
  8
0
 62
0
 10
183.75399999999996
 20
123.58600000000004
 30
0.0
 40
0.254
 50
90.0
 51
-180.0
  0
ARC
  8
0
 62
0
 10
197.24599999999998
 20
123.58600000000004
 30
0.0
 40
0.254
 50
-0.0
 51
90.0
  0
LINE
  8
0
 62
0
 10
197.24599999999998
 20
123.84000000000005
 30
0.0
 11
183.75399999999996
 21
123.84000000000005
 31
0.0
  0
LINE
  8
0
 62
0
 10
212.96400000000003
 20
79.36000000000011
 30
0.0
 11
226.45600000000005
 21
79.36000000000011
 31
0.0
  0
ARC
  8
0
 62
0
 10
212.96400000000003
 20
79.61400000000012
 30
0.0
 40
0.254
 50
-180.0
 51
-90.0
  0
ARC
  8
0
 62
0
 10
226.45600000000005
 20
79.61400000000012
 30
0.0
 40
0.254
 50
-90.0
 51
-0.0
  0
LINE
  8
0
 62
0
 10
212.71000000000004
 20
93.10600000000011
 30
0.0
 11
212.71000000000004
 21
79.61400000000012
 31
0.0
  0
LINE
  8
0
 62
0
 10
226.71000000000004
 20
79.61400000000012
 30
0.0
 11
226.71000000000004
 21
93.10600000000011
 31
0.0
  0
ARC
  8
0
 62
0
 10
212.96400000000003
 20
93.10600000000011
 30
0.0
 40
0.254
 50
90.0
 51
-180.0
  0
ARC
  8
0
 62
0
 10
226.45600000000005
 20
93.10600000000011
 30
0.0
 40
0.254
 50
-0.0
 51
90.0
  0
LINE
  8
0
 62
0
 10
226.45600000000005
 20
93.36000000000011
 30
0.0
 11
212.96400000000003
 21
93.36000000000011
 31
0.0
  0
LINE
  8
0
 62
0
 10
232.01399999999978
 20
79.36000000000003
 30
0.0
 11
245.5059999999998
 21
79.36000000000003
 31
0.0
  0
ARC
  8
0
 62
0
 10
232.01399999999978
 20
79.61400000000003
 30
0.0
 40
0.254
 50
-180.0
 51
-90.0
  0
ARC
  8
0
 62
0
 10
245.5059999999998
 20
79.61400000000003
 30
0.0
 40
0.254
 50
-90.0
 51
-0.0
  0
LINE
  8
0
 62
0
 10
231.7599999999998
 20
93.10600000000002
 30
0.0
 11
231.7599999999998
 21
79.61400000000003
 31
0.0
  0
LINE
  8
0
 62
0
 10
245.7599999999998
 20
79.61400000000003
 30
0.0
 11
245.7599999999998
 21
93.10600000000002
 31
0.0
  0
ARC
  8
0
 62
0
 10
232.01399999999978
 20
93.10600000000002
 30
0.0
 40
0.254
 50
90.0
 51
-180.0
  0
ARC
  8
0
 62
0
 10
245.5059999999998
 20
93.10600000000002
 30
0.0
 40
0.254
 50
-0.0
 51
90.0
  0
LINE
  8
0
 62
0
 10
245.5059999999998
 20
93.36000000000003
 30
0.0
 11
232.01399999999978
 21
93.36000000000003
 31
0.0
  0
LINE
  8
0
 62
0
 10
260.58900000000006
 20
79.35999999999974
 30
0.0
 11
274.081
 21
79.35999999999974
 31
0.0
  0
ARC
  8
0
 62
0
 10
260.58900000000006
 20
79.61399999999975
 30
0.0
 40
0.254
 50
-180.0
 51
-90.0
  0
ARC
  8
0
 62
0
 10
274.081
 20
79.61399999999975
 30
0.0
 40
0.254
 50
-90.0
 51
-0.0
  0
LINE
  8
0
 62
0
 10
260.33500000000004
 20
93.10599999999974
 30
0.0
 11
260.33500000000004
 21
79.61399999999975
 31
0.0
  0
LINE
  8
0
 62
0
 10
274.33500000000004
 20
79.61399999999975
 30
0.0
 11
274.33500000000004
 21
93.10599999999974
 31
0.0
  0
ARC
  8
0
 62
0
 10
260.58900000000006
 20
93.10599999999974
 30
0.0
 40
0.254
 50
90.0
 51
-180.0
  0
ARC
  8
0
 62
0
 10
274.081
 20
93.10599999999974
 30
0.0
 40
0.254
 50
-0.0
 51
90.0
  0
LINE
  8
0
 62
0
 10
274.081
 20
93.35999999999974
 30
0.0
 11
260.58900000000006
 21
93.35999999999974
 31
0.0
  0
LINE
  8
0
 62
0
 10
295.51400000000035
 20
79.36000000000023
 30
0.0
 11
309.0060000000003
 21
79.36000000000023
 31
0.0
  0
ARC
  8
0
 62
0
 10
295.51400000000035
 20
79.61400000000023
 30
0.0
 40
0.254
 50
-180.0
 51
-90.0
  0
ARC
  8
0
 62
0
 10
309.0060000000003
 20
79.61400000000023
 30
0.0
 40
0.254
 50
-90.0
 51
-0.0
  0
LINE
  8
0
 62
0
 10
295.26000000000033
 20
93.10600000000022
 30
0.0
 11
295.26000000000033
 21
79.61400000000023
 31
0.0
  0
LINE
  8
0
 62
0
 10
309.26000000000033
 20
79.61400000000023
 30
0.0
 11
309.26000000000033
 21
93.10600000000022
 31
0.0
  0
ARC
  8
0
 62
0
 10
295.51400000000035
 20
93.10600000000022
 30
0.0
 40
0.254
 50
90.0
 51
-180.0
  0
ARC
  8
0
 62
0
 10
309.0060000000003
 20
93.10600000000022
 30
0.0
 40
0.254
 50
-0.0
 51
90.0
  0
LINE
  8
0
 62
0
 10
309.0060000000003
 20
93.36000000000023
 30
0.0
 11
295.51400000000035
 21
93.36000000000023
 31
0.0
  0
LINE
  8
0
 62
0
 10
314.5639999999999
 20
79.36000000000001
 30
0.0
 11
328.05599999999987
 21
79.36000000000001
 31
0.0
  0
ARC
  8
0
 62
0
 10
314.5639999999999
 20
79.61400000000002
 30
0.0
 40
0.254
 50
-180.0
 51
-90.0
  0
ARC
  8
0
 62
0
 10
328.05599999999987
 20
79.61400000000002
 30
0.0
 40
0.254
 50
-90.0
 51
-0.0
  0
LINE
  8
0
 62
0
 10
314.3099999999999
 20
93.10600000000001
 30
0.0
 11
314.3099999999999
 21
79.61400000000002
 31
0.0
  0
LINE
  8
0
 62
0
 10
328.3099999999999
 20
79.61400000000002
 30
0.0
 11
328.3099999999999
 21
93.10600000000001
 31
0.0
  0
ARC
  8
0
 62
0
 10
314.5639999999999
 20
93.10600000000001
 30
0.0
 40
0.254
 50
90.0
 51
-180.0
  0
ARC
  8
0
 62
0
 10
328.05599999999987
 20
93.10600000000001
 30
0.0
 40
0.254
 50
-0.0
 51
90.0
  0
LINE
  8
0
 62
0
 10
328.05599999999987
 20
93.36000000000001
 30
0.0
 11
314.5639999999999
 21
93.36000000000001
 31
0.0
  0
LINE
  8
0
 62
0
 10
333.614
 20
79.36000000000011
 30
0.0
 11
347.10599999999994
 21
79.36000000000011
 31
0.0
  0
ARC
  8
0
 62
0
 10
333.614
 20
79.61400000000012
 30
0.0
 40
0.254
 50
-180.0
 51
-90.0
  0
ARC
  8
0
 62
0
 10
347.10599999999994
 20
79.61400000000012
 30
0.0
 40
0.254
 50
-90.0
 51
-0.0
  0
LINE
  8
0
 62
0
 10
333.35999999999996
 20
93.10600000000011
 30
0.0
 11
333.35999999999996
 21
79.61400000000012
 31
0.0
  0
LINE
  8
0
 62
0
 10
347.35999999999996
 20
79.61400000000012
 30
0.0
 11
347.35999999999996
 21
93.10600000000011
 31
0.0
  0
ARC
  8
0
 62
0
 10
333.614
 20
93.10600000000011
 30
0.0
 40
0.254
 50
90.0
 51
-180.0
  0
ARC
  8
0
 62
0
 10
347.10599999999994
 20
93.10600000000011
 30
0.0
 40
0.254
 50
-0.0
 51
90.0
  0
LINE
  8
0
 62
0
 10
347.10599999999994
 20
93.36000000000011
 30
0.0
 11
333.614
 21
93.36000000000011
 31
0.0
  0
LINE
  8
0
 62
0
 10
359.01399999999995
 20
79.35999999999991
 30
0.0
 11
372.5059999999999
 21
79.35999999999991
 31
0.0
  0
ARC
  8
0
 62
0
 10
359.01399999999995
 20
79.61399999999992
 30
0.0
 40
0.254
 50
-180.0
 51
-90.0
  0
ARC
  8
0
 62
0
 10
372.5059999999999
 20
79.61399999999992
 30
0.0
 40
0.254
 50
-90.0
 51
-0.0
  0
LINE
  8
0
 62
0
 10
358.75999999999993
 20
93.10599999999991
 30
0.0
 11
358.75999999999993
 21
79.61399999999992
 31
0.0
  0
LINE
  8
0
 62
0
 10
372.75999999999993
 20
79.61399999999992
 30
0.0
 11
372.75999999999993
 21
93.10599999999991
 31
0.0
  0
ARC
  8
0
 62
0
 10
359.01399999999995
 20
93.10599999999991
 30
0.0
 40
0.254
 50
90.0
 51
-180.0
  0
ARC
  8
0
 62
0
 10
372.5059999999999
 20
93.10599999999991
 30
0.0
 40
0.254
 50
-0.0
 51
90.0
  0
LINE
  8
0
 62
0
 10
372.5059999999999
 20
93.35999999999991
 30
0.0
 11
359.01399999999995
 21
93.35999999999991
 31
0.0
  0
LINE
  8
0
 62
0
 10
378.0639999999997
 20
79.36000000000011
 30
0.0
 11
391.55599999999964
 21
79.36000000000011
 31
0.0
  0
ARC
  8
0
 62
0
 10
378.0639999999997
 20
79.61400000000012
 30
0.0
 40
0.254
 50
-180.0
 51
-90.0
  0
ARC
  8
0
 62
0
 10
391.55599999999964
 20
79.61400000000012
 30
0.0
 40
0.254
 50
-90.0
 51
-0.0
  0
LINE
  8
0
 62
0
 10
377.80999999999966
 20
93.10600000000011
 30
0.0
 11
377.80999999999966
 21
79.61400000000012
 31
0.0
  0
LINE
  8
0
 62
0
 10
391.80999999999966
 20
79.61400000000012
 30
0.0
 11
391.80999999999966
 21
93.10600000000011
 31
0.0
  0
ARC
  8
0
 62
0
 10
378.0639999999997
 20
93.10600000000011
 30
0.0
 40
0.254
 50
90.0
 51
-180.0
  0
ARC
  8
0
 62
0
 10
391.55599999999964
 20
93.10600000000011
 30
0.0
 40
0.254
 50
-0.0
 51
90.0
  0
LINE
  8
0
 62
0
 10
391.55599999999964
 20
93.36000000000011
 30
0.0
 11
378.0639999999997
 21
93.36000000000011
 31
0.0
  0
LINE
  8
0
 62
0
 10
397.1139999999999
 20
79.36000000000006
 30
0.0
 11
410.6059999999999
 21
79.36000000000006
 31
0.0
  0
ARC
  8
0
 62
0
 10
397.1139999999999
 20
79.61400000000006
 30
0.0
 40
0.254
 50
-180.0
 51
-90.0
  0
ARC
  8
0
 62
0
 10
410.6059999999999
 20
79.61400000000006
 30
0.0
 40
0.254
 50
-90.0
 51
-0.0
  0
LINE
  8
0
 62
0
 10
396.8599999999999
 20
93.10600000000005
 30
0.0
 11
396.8599999999999
 21
79.61400000000006
 31
0.0
  0
LINE
  8
0
 62
0
 10
410.8599999999999
 20
79.61400000000006
 30
0.0
 11
410.8599999999999
 21
93.10600000000005
 31
0.0
  0
ARC
  8
0
 62
0
 10
397.1139999999999
 20
93.10600000000005
 30
0.0
 40
0.254
 50
90.0
 51
-180.0
  0
ARC
  8
0
 62
0
 10
410.6059999999999
 20
93.10600000000005
 30
0.0
 40
0.254
 50
-0.0
 51
90.0
  0
LINE
  8
0
 62
0
 10
410.6059999999999
 20
93.36000000000006
 30
0.0
 11
397.1139999999999
 21
93.36000000000006
 31
0.0
  0
LINE
  8
0
 62
0
 10
416.1640000000004
 20
79.35999999999993
 30
0.0
 11
429.65600000000035
 21
79.35999999999993
 31
0.0
  0
ARC
  8
0
 62
0
 10
416.1640000000004
 20
79.61399999999993
 30
0.0
 40
0.254
 50
-180.0
 51
-90.0
  0
ARC
  8
0
 62
0
 10
429.65600000000035
 20
79.61399999999993
 30
0.0
 40
0.254
 50
-90.0
 51
-0.0
  0
LINE
  8
0
 62
0
 10
415.91000000000037
 20
93.10599999999992
 30
0.0
 11
415.91000000000037
 21
79.61399999999993
 31
0.0
  0
LINE
  8
0
 62
0
 10
429.91000000000037
 20
79.61399999999993
 30
0.0
 11
429.91000000000037
 21
93.10599999999992
 31
0.0
  0
ARC
  8
0
 62
0
 10
416.1640000000004
 20
93.10599999999992
 30
0.0
 40
0.254
 50
90.0
 51
-180.0
  0
ARC
  8
0
 62
0
 10
429.65600000000035
 20
93.10599999999992
 30
0.0
 40
0.254
 50
-0.0
 51
90.0
  0
LINE
  8
0
 62
0
 10
429.65600000000035
 20
93.35999999999993
 30
0.0
 11
416.1640000000004
 21
93.35999999999993
 31
0.0
  0
LINE
  8
0
 62
0
 10
211.69400000000016
 20
109.84000000000007
 30
0.0
 11
225.18600000000018
 21
109.84000000000007
 31
0.0
  0
ARC
  8
0
 62
0
 10
211.69400000000016
 20
110.09400000000008
 30
0.0
 40
0.254
 50
-180.0
 51
-90.0
  0
ARC
  8
0
 62
0
 10
225.18600000000018
 20
110.09400000000008
 30
0.0
 40
0.254
 50
-90.0
 51
-0.0
  0
LINE
  8
0
 62
0
 10
211.44000000000017
 20
123.58600000000007
 30
0.0
 11
211.44000000000017
 21
110.09400000000008
 31
0.0
  0
LINE
  8
0
 62
0
 10
225.44000000000017
 20
110.09400000000008
 30
0.0
 11
225.44000000000017
 21
123.58600000000007
 31
0.0
  0
ARC
  8
0
 62
0
 10
211.69400000000016
 20
123.58600000000007
 30
0.0
 40
0.254
 50
90.0
 51
-180.0
  0
ARC
  8
0
 62
0
 10
225.18600000000018
 20
123.58600000000007
 30
0.0
 40
0.254
 50
-0.0
 51
90.0
  0
LINE
  8
0
 62
0
 10
225.18600000000018
 20
123.84000000000007
 30
0.0
 11
211.69400000000016
 21
123.84000000000007
 31
0.0
  0
LINE
  8
0
 62
0
 10
230.74399999999983
 20
109.83999999999995
 30
0.0
 11
244.23599999999985
 21
109.83999999999995
 31
0.0
  0
ARC
  8
0
 62
0
 10
230.74399999999983
 20
110.09399999999995
 30
0.0
 40
0.254
 50
-180.0
 51
-90.0
  0
ARC
  8
0
 62
0
 10
244.23599999999985
 20
110.09399999999995
 30
0.0
 40
0.254
 50
-90.0
 51
-0.0
  0
LINE
  8
0
 62
0
 10
230.48999999999984
 20
123.58599999999994
 30
0.0
 11
230.48999999999984
 21
110.09399999999995
 31
0.0
  0
LINE
  8
0
 62
0
 10
244.48999999999984
 20
110.09399999999995
 30
0.0
 11
244.48999999999984
 21
123.58599999999994
 31
0.0
  0
ARC
  8
0
 62
0
 10
230.74399999999983
 20
123.58599999999994
 30
0.0
 40
0.254
 50
90.0
 51
-180.0
  0
ARC
  8
0
 62
0
 10
244.23599999999985
 20
123.58599999999994
 30
0.0
 40
0.254
 50
-0.0
 51
90.0
  0
LINE
  8
0
 62
0
 10
244.23599999999985
 20
123.83999999999995
 30
0.0
 11
230.74399999999983
 21
123.83999999999995
 31
0.0
  0
LINE
  8
0
 62
0
 10
249.79399999999995
 20
109.83999999999997
 30
0.0
 11
263.28599999999994
 21
109.83999999999997
 31
0.0
  0
ARC
  8
0
 62
0
 10
249.79399999999995
 20
110.09399999999998
 30
0.0
 40
0.254
 50
-180.0
 51
-90.0
  0
ARC
  8
0
 62
0
 10
263.28599999999994
 20
110.09399999999998
 30
0.0
 40
0.254
 50
-90.0
 51
-0.0
  0
LINE
  8
0
 62
0
 10
249.53999999999996
 20
123.58599999999997
 30
0.0
 11
249.53999999999996
 21
110.09399999999998
 31
0.0
  0
LINE
  8
0
 62
0
 10
263.53999999999996
 20
110.09399999999998
 30
0.0
 11
263.53999999999996
 21
123.58599999999997
 31
0.0
  0
ARC
  8
0
 62
0
 10
249.79399999999995
 20
123.58599999999997
 30
0.0
 40
0.254
 50
90.0
 51
-180.0
  0
ARC
  8
0
 62
0
 10
263.28599999999994
 20
123.58599999999997
 30
0.0
 40
0.254
 50
-0.0
 51
90.0
  0
LINE
  8
0
 62
0
 10
263.28599999999994
 20
123.83999999999997
 30
0.0
 11
249.79399999999995
 21
123.83999999999997
 31
0.0
  0
LINE
  8
0
 62
0
 10
268.84399999999994
 20
109.83999999999982
 30
0.0
 11
282.3359999999999
 21
109.83999999999982
 31
0.0
  0
ARC
  8
0
 62
0
 10
268.84399999999994
 20
110.09399999999982
 30
0.0
 40
0.254
 50
-180.0
 51
-90.0
  0
ARC
  8
0
 62
0
 10
282.3359999999999
 20
110.09399999999982
 30
0.0
 40
0.254
 50
-90.0
 51
-0.0
  0
LINE
  8
0
 62
0
 10
268.5899999999999
 20
123.58599999999981
 30
0.0
 11
268.5899999999999
 21
110.09399999999982
 31
0.0
  0
LINE
  8
0
 62
0
 10
282.5899999999999
 20
110.09399999999982
 30
0.0
 11
282.5899999999999
 21
123.58599999999981
 31
0.0
  0
ARC
  8
0
 62
0
 10
268.84399999999994
 20
123.58599999999981
 30
0.0
 40
0.254
 50
90.0
 51
-180.0
  0
ARC
  8
0
 62
0
 10
282.3359999999999
 20
123.58599999999981
 30
0.0
 40
0.254
 50
-0.0
 51
90.0
  0
LINE
  8
0
 62
0
 10
282.3359999999999
 20
123.83999999999982
 30
0.0
 11
268.84399999999994
 21
123.83999999999982
 31
0.0
  0
LINE
  8
0
 62
0
 10
295.51400000000035
 20
109.8400000000001
 30
0.0
 11
309.0060000000003
 21
109.8400000000001
 31
0.0
  0
ARC
  8
0
 62
0
 10
295.51400000000035
 20
110.09400000000011
 30
0.0
 40
0.254
 50
-180.0
 51
-90.0
  0
ARC
  8
0
 62
0
 10
309.0060000000003
 20
110.09400000000011
 30
0.0
 40
0.254
 50
-90.0
 51
-0.0
  0
LINE
  8
0
 62
0
 10
295.26000000000033
 20
123.5860000000001
 30
0.0
 11
295.26000000000033
 21
110.09400000000011
 31
0.0
  0
LINE
  8
0
 62
0
 10
309.26000000000033
 20
110.09400000000011
 30
0.0
 11
309.26000000000033
 21
123.5860000000001
 31
0.0
  0
ARC
  8
0
 62
0
 10
295.51400000000035
 20
123.5860000000001
 30
0.0
 40
0.254
 50
90.0
 51
-180.0
  0
ARC
  8
0
 62
0
 10
309.0060000000003
 20
123.5860000000001
 30
0.0
 40
0.254
 50
-0.0
 51
90.0
  0
LINE
  8
0
 62
0
 10
309.0060000000003
 20
123.8400000000001
 30
0.0
 11
295.51400000000035
 21
123.8400000000001
 31
0.0
  0
LINE
  8
0
 62
0
 10
314.564
 20
109.83999999999993
 30
0.0
 11
328.056
 21
109.83999999999993
 31
0.0
  0
ARC
  8
0
 62
0
 10
314.564
 20
110.09399999999994
 30
0.0
 40
0.254
 50
-180.0
 51
-90.0
  0
ARC
  8
0
 62
0
 10
328.056
 20
110.09399999999994
 30
0.0
 40
0.254
 50
-90.0
 51
-0.0
  0
LINE
  8
0
 62
0
 10
314.31
 20
123.58599999999993
 30
0.0
 11
314.31
 21
110.09399999999994
 31
0.0
  0
LINE
  8
0
 62
0
 10
328.31
 20
110.09399999999994
 30
0.0
 11
328.31
 21
123.58599999999993
 31
0.0
  0
ARC
  8
0
 62
0
 10
314.564
 20
123.58599999999993
 30
0.0
 40
0.254
 50
90.0
 51
-180.0
  0
ARC
  8
0
 62
0
 10
328.056
 20
123.58599999999993
 30
0.0
 40
0.254
 50
-0.0
 51
90.0
  0
LINE
  8
0
 62
0
 10
328.056
 20
123.83999999999993
 30
0.0
 11
314.564
 21
123.83999999999993
 31
0.0
  0
LINE
  8
0
 62
0
 10
333.6140000000001
 20
109.8399999999996
 30
0.0
 11
347.10600000000005
 21
109.8399999999996
 31
0.0
  0
ARC
  8
0
 62
0
 10
333.6140000000001
 20
110.09399999999961
 30
0.0
 40
0.254
 50
-180.0
 51
-90.0
  0
ARC
  8
0
 62
0
 10
347.10600000000005
 20
110.09399999999961
 30
0.0
 40
0.254
 50
-90.0
 51
-0.0
  0
LINE
  8
0
 62
0
 10
333.36000000000007
 20
123.5859999999996
 30
0.0
 11
333.36000000000007
 21
110.09399999999961
 31
0.0
  0
LINE
  8
0
 62
0
 10
347.36000000000007
 20
110.09399999999961
 30
0.0
 11
347.36000000000007
 21
123.5859999999996
 31
0.0
  0
ARC
  8
0
 62
0
 10
333.6140000000001
 20
123.5859999999996
 30
0.0
 40
0.254
 50
90.0
 51
-180.0
  0
ARC
  8
0
 62
0
 10
347.10600000000005
 20
123.5859999999996
 30
0.0
 40
0.254
 50
-0.0
 51
90.0
  0
LINE
  8
0
 62
0
 10
347.10600000000005
 20
123.8399999999996
 30
0.0
 11
333.6140000000001
 21
123.8399999999996
 31
0.0
  0
ENDBLK
  0
ENDSEC
  0
SECTION
  2
ENTITIES
  0
INSERT
  2
BODY
  8
0
 62
0
 10
0.0
 20
0.0
 30
0.0
  0
ENDSEC
  0
EOF
